SplineFontDB: 1.0
FontName: GaramondNo8-Ita
FullName: GaramondNo8 Italic
FamilyName: GaramondNo8
Weight: Regular
Copyright: Copyright (URW)++,Copyright 2000 by (URW)++ Design & Development
Version: 1.05a
ItalicAngle: -16
UnderlinePosition: -225
UnderlineWidth: 51
Ascent: 800
Descent: 200
NeedsXUIDChange: 1
UniqueID: 4038272
OS2WinAscent: 0
OS2WinAOffset: 1
OS2WinDescent: 0
OS2WinDOffset: 1
HheadAscent: 0
HheadAOffset: 1
HheadDescent: 0
HheadDOffset: 1
ScriptLang: 2
 1 latn 1 dflt 
 1 DFLT 1 dflt 
Encoding: AdobeStandard
UnicodeInterp: none
DisplaySize: -24
AntiAlias: 1
FitToEm: 1
WinInfo: 32 16 4
BeginPrivate: 7
BlueValues 31 [-20 0 425 445 689 709 663 683]
BlueScale 8 0.039625
StdHW 4 [33]
StdVW 4 [79]
StemSnapH 206 [33 39 47 53 58 64 76 79] 
systemdict /internaldict known
{1183615869 systemdict /internaldict get exec
/StemSnapLength 2 copy known { get 8 lt } { pop pop true } ifelse }
{ true } ifelse { pop [33 39] } if
StemSnapV 2 []
ForceBold 5 false
EndPrivate
BeginChars: 353 353
StartChar: exclam
Encoding: 33 33 2
Width: 240
Flags: MW
HStem: -17 20 675 20<247 272.5>
Fore
98 192 m 1
 133 328 l 2
 140 355 137 341 143 370 c 0
 149 399 154 427 159 455 c 0
 180 568 190 613 201 641 c 0
 215 678 234 695 260 695 c 0
 285 695 301 679 301 653 c 0
 301 618 298 609 215 413 c 1
 129 191 l 1
 121 172 120 170 116 171 c 2
 109 172 l 1
 104 173 l 2
 97 174 95 176 95 179 c 0
 95 180 95 182 96 184 c 1
 98 192 l 1
80 102 m 0
 106 102 124 81 124 53 c 0
 124 12 96 -17 59 -17 c 0
 32 -17 17 1 17 33 c 0
 17 72 44 102 80 102 c 0
EndSplineSet
EndChar
StartChar: quotedbl
Encoding: 34 34 3
Width: 424
Flags: MW
HStem: 684 20<276 293.5 421 438.5>
Fore
197 465 m 1
 219 632 l 1
 223 661 228 672 239 684 c 0
 252 697 268 704 284 704 c 0
 303 704 318 690 318 672 c 0
 318 662 315 653 306 632 c 2
 230 456 l 1
 227 448 222 445 216 445 c 2
 203 445 l 2
 197 445 195 447 195 453 c 0
 195 455 195 455 197 465 c 1
341 465 m 1
 364 632 l 2
 368 661 372 672 384 684 c 0
 397 697 413 704 429 704 c 0
 448 704 463 690 463 673 c 0
 463 663 460 654 451 632 c 1
 375 456 l 1
 371 448 367 445 361 445 c 2
 348 445 l 2
 341 445 339 447 339 453 c 0
 339 455 339 455 341 465 c 1
EndSplineSet
EndChar
StartChar: numbersign
Encoding: 35 35 4
Width: 480
Flags: MW
HStem: -15 20 220 64<80 126 191 297 360 407> 368 77<131 172 241 344 411 447>
Fore
126 220 m 1
 60 220 l 2
 52 220 49 222 49 227 c 0
 49 229 50 232 51 235 c 2
 62 271 l 2
 65 281 69 284 80 284 c 2
 146 284 l 1
 172 368 l 1
 107 368 l 2
 100 368 96 372 96 378 c 0
 96 380 97 383 98 386 c 2
 111 430 l 1
 115 442 119 445 131 445 c 2
 196 445 l 1
 261 652 l 2
 263 659 265 661 271 661 c 2
 300 661 l 2
 303 661 307 657 307 654 c 1
 307 654 306 652 306 649 c 1
 241 445 l 1
 368 445 l 1
 435 653 l 2
 437 659 438 660 444 660 c 2
 470 661 l 2
 474 661 477 658 477 655 c 0
 477 654 476 651 475 647 c 2
 411 445 l 1
 466 445 l 2
 481 445 486 443 486 436 c 0
 486 434 486 432 485 430 c 1
 472 386 l 1
 467 371 463 368 447 368 c 2
 387 368 l 1
 360 284 l 1
 420 284 l 2
 434 284 437 283 437 277 c 0
 437 276 437 276 434 267 c 2
 422 229 l 1
 420 221 418 220 407 220 c 2
 340 220 l 1
 270 -5 l 1
 268 -13 265 -15 256 -15 c 2
 233 -15 l 2
 228 -15 226 -12 226 -7 c 2
 226 -2 l 1
 297 220 l 1
 171 220 l 1
 99 -10 l 2
 98 -13 94 -15 88 -15 c 2
 64 -15 l 2
 60 -15 56 -12 56 -8 c 0
 56 -5 56 -3 57 -1 c 1
 126 220 l 1
191 284 m 1
 317 284 l 1
 344 368 l 1
 217 368 l 1
 191 284 l 1
EndSplineSet
EndChar
StartChar: dollar
Encoding: 36 36 5
Width: 479
Flags: W
HStem: -8 40<214 250> -7 20
VStem: 153 70<514.5 530> 335 70<140 170>
Fore
183 -7 m 1x70
 165 -72 l 2
 162 -82 160 -84 153 -84 c 2
 136 -84 l 2
 132 -84 129 -82 129 -79 c 0
 129 -78 130 -74 131 -68 c 1
 150 -3 l 1
 92 16 52 73 52 137 c 0
 52 170 70 194 95 194 c 0
 117 194 128 178 129 146 c 0
 129 82 135 66 163 45 c 1
 241 326 l 1
 217 360 l 1
 206 376 l 2
 164 434 153 460 153 502 c 0
 153 558 183 610 234 644 c 0
 267 665 290 672 337 675 c 1
 352 727 l 2
 354 733 356 735 363 735 c 2
 379 735 l 2
 385 735 387 733 387 730 c 0
 387 728 387 726 386 724 c 1
 372 671 l 1
 413 661 433 649 456 625 c 1
 474 604 485 581 485 561 c 0
 485 537 465 518 440 518 c 0
 416 518 405 531 401 566 c 0
 397 599 389 611 360 630 c 1
 295 394 l 1
 389 275 405 246 405 191 c 0
 405 89 309 -8 208 -8 c 0xb0
 197 -8 194 -8 183 -7 c 1x70
266 293 m 1
 194 33 l 1
 203 32 211 32 217 32 c 0
 283 32 335 84 335 150 c 0
 335 190 328 206 266 293 c 1
267 422 m 1
 326 635 l 1
 291 631 275 625 257 609 c 0
 235 590 223 562 223 532 c 0
 223 497 233 471 267 422 c 1
EndSplineSet
EndChar
StartChar: percent
Encoding: 37 37 6
Width: 774
Flags: W
HStem: -7 32<530 576> 303 32<586 630> 330 32<200.5 246> 643 32<257 300.5>
VStem: 98 67<427.5 490.5> 339 67<513.5 579.5> 427 67<90.5 152> 669 67<174.5 240.5>
Fore
662 679 m 1xdf
 716 679 l 1
 177 -27 l 1
 121 -27 l 1
 662 679 l 1xdf
621 335 m 0
 684 335 736 276 736 205 c 0
 736 95 644 -7 546 -7 c 0
 479 -7 427 52 427 129 c 0
 427 230 526 335 621 335 c 0
614 303 m 0
 558 303 494 198 494 106 c 0
 494 56 514 25 546 25 c 0
 606 25 669 126 669 223 c 0
 669 269 646 303 614 303 c 0
291 675 m 0
 354 675 406 616 406 543 c 0
 406 435 314 330 220 330 c 0x3f
 150 330 98 388 98 467 c 0
 98 569 197 675 291 675 c 0
285 643 m 0
 229 643 165 537 165 444 c 0
 165 394 185 362 216 362 c 0
 276 362 339 464 339 563 c 0
 339 609 316 643 285 643 c 0
EndSplineSet
EndChar
StartChar: ampersand
Encoding: 38 38 7
Width: 682
Flags: MW
HStem: -20 57<270 343.5> 415 20 675 33<344 388.5>
VStem: 48 79<179 251.5> 189 74<538 588> 511 32<162 196>
Fore
480 251 m 1
 360 201 l 2
 352 197 348 196 345 196 c 0
 342 196 340 197 338 202 c 1
 327 222 l 2
 325 226 325 226 325 228 c 0
 325 230 325 230 332 232 c 2
 492 292 l 2
 553 315 606 338 651 361 c 0
 669 370 671 371 675 371 c 0
 680 371 683 366 684 357 c 1
 688 334 l 1
 689 327 689 327 689 325 c 0
 689 319 686 317 673 313 c 0
 597 290 548 275 528 268 c 2
 513 263 l 1
 536 232 543 214 543 179 c 0
 543 69 436 -20 304 -20 c 0
 163 -20 48 84 48 211 c 0
 48 292 87 362 159 411 c 0
 182 427 202 437 245 453 c 1
 201 490 189 511 189 549 c 0
 189 632 284 708 389 708 c 0
 461 708 512 678 512 635 c 0
 512 618 499 606 481 606 c 0
 465 606 455 613 441 631 c 0
 414 666 401 675 376 675 c 0
 312 675 263 623 263 553 c 0
 263 523 272 503 299 472 c 1
 334 486 352 490 380 490 c 0
 415 490 435 479 435 460 c 0
 435 436 396 416 351 416 c 0
 328 416 313 420 281 435 c 1
 183 395 127 322 127 231 c 0
 127 127 217 37 323 37 c 0
 364 37 415 53 452 78 c 0
 489 103 511 142 511 182 c 0
 511 210 502 230 480 251 c 1
EndSplineSet
EndChar
StartChar: quoteright
Encoding: 39 8217 8
Width: 240
Flags: MW
HStem: 410 20 675 20<187.5 223.5>
VStem: 224 64<553.5 569.5>
Fore
114 456 m 2
 114 463 l 1
 185 479 224 512 224 557 c 0
 224 582 218 590 174 617 c 0
 159 626 152 636 152 650 c 0
 152 675 174 695 201 695 c 0
 246 695 288 648 288 597 c 0
 288 510 216 439 119 430 c 1
 116 437 114 447 114 456 c 2
EndSplineSet
KernsSLIF: 121 23 1 0 119 17 1 0 118 15 1 0 116 -3 1 0 115 1 1 0 114 3 1 0 46 -35 1 0 111 -10 1 0 100 -14 1 0 44 -37 1 0 261 -73 1 0 256 -73 1 0 257 -73 1 0 225 -118 1 0 65 -73 1 0
EndChar
StartChar: parenleft
Encoding: 40 40 9
Width: 240
Flags: MW
HStem: -263 20<73 73>
VStem: 17 59<-20.5 55>
Fore
109 -248 m 2
 95 -253 l 2
 93 -254 88 -255 85 -255 c 0
 81 -255 77 -251 73 -243 c 2
 68 -233 l 2
 37 -168 17 -65 17 24 c 0
 17 202 82 409 188 568 c 0
 235 638 281 687 346 736 c 0
 380 763 392 770 398 770 c 0
 402 770 406 765 405 762 c 2
 404 760 l 1
 402 747 l 2
 400 734 400 734 395 728 c 1
 373 707 l 2
 306 647 248 564 188 440 c 0
 116 290 76 128 76 -18 c 0
 76 -97 88 -172 109 -229 c 0
 111 -234 112 -239 112 -242 c 0
 112 -245 111 -247 109 -248 c 2
EndSplineSet
EndChar
StartChar: parenright
Encoding: 41 41 10
Width: 240
Flags: MW
VStem: 195 59<460.5 535.5>
Fore
163 763 m 2
 176 768 l 2
 179 769 183 770 187 770 c 0
 191 770 194 766 198 758 c 2
 203 747 l 2
 233 686 254 580 254 491 c 0
 254 313 189 106 83 -53 c 0
 36 -123 -10 -173 -73 -221 c 0
 -108 -248 -120 -255 -126 -255 c 0
 -130 -255 -134 -250 -133 -246 c 1
 -131 -232 l 1
 -129 -221 l 1
 -126 -215 -124 -213 -102 -193 c 0
 -34 -131 23 -50 83 75 c 0
 156 225 195 386 195 535 c 0
 195 613 184 682 163 743 c 0
 161 749 160 754 160 757 c 0
 160 760 161 762 163 763 c 2
EndSplineSet
EndChar
StartChar: asterisk
Encoding: 42 42 11
Width: 480
Flags: MW
HStem: 675 20<366.5 386.5>
Fore
494 532 m 0
 513 532 523 520 523 498 c 0
 523 472 513 458 494 458 c 0
 470 458 422 472 377 492 c 0
 367 496 363 500 363 504 c 0
 363 509 367 512 378 514 c 0
 448 529 468 532 494 532 c 0
375 695 m 0
 398 695 421 679 421 662 c 0
 421 644 397 606 357 559 c 0
 345 545 342 542 337 542 c 0
 332 542 330 545 330 552 c 0
 330 568 340 640 345 660 c 0
 352 688 358 695 375 695 c 0
199 650 m 0
 215 650 235 631 267 584 c 0
 286 556 295 541 295 535 c 0
 295 531 292 528 288 528 c 0
 284 528 263 537 225 555 c 0
 173 580 159 591 159 607 c 0
 159 625 182 650 199 650 c 0
281 490 m 0
 286 490 290 487 290 483 c 0
 290 479 288 476 266 452 c 0
 215 398 196 381 182 381 c 0
 165 381 144 406 144 426 c 0
 144 442 161 455 200 468 c 0
 231 479 272 490 281 490 c 0
340 464 m 0
 344 464 346 461 352 452 c 0
 387 392 406 351 406 336 c 0
 406 320 385 306 361 306 c 0
 337 306 328 327 328 380 c 0
 328 446 331 464 340 464 c 0
EndSplineSet
EndChar
StartChar: plus
Encoding: 43 43 12
Width: 774
Flags: MW
HStem: -10 20 214 64<155 366 430 642>
VStem: 366 64<4 214 278 487>
Fore
430 278 m 1
 642 278 l 2
 651 278 654 275 654 266 c 2
 654 226 l 2
 654 217 651 214 642 214 c 2
 430 214 l 1
 430 4 l 2
 430 -6 427 -10 419 -10 c 2
 377 -10 l 2
 369 -10 366 -6 366 4 c 2
 366 214 l 1
 155 214 l 2
 146 214 143 217 143 226 c 2
 143 266 l 2
 143 275 146 278 155 278 c 2
 366 278 l 1
 366 487 l 2
 366 497 369 501 377 501 c 2
 419 501 l 2
 427 501 430 497 430 487 c 2
 430 278 l 1
EndSplineSet
EndChar
StartChar: comma
Encoding: 44 44 13
Width: 240
Flags: MW
VStem: 102 64<-22.5 -6>
Fore
-8 -120 m 2
 -8 -113 l 1
 62 -98 102 -64 102 -18 c 0
 102 6 96 13 52 41 c 0
 37 50 30 60 30 73 c 0
 30 99 52 119 79 119 c 0
 124 119 166 71 166 21 c 0
 166 -66 92 -138 -3 -146 c 1
 -6 -139 -8 -129 -8 -120 c 2
EndSplineSet
KernsSLIF: 39 -13 1 0 186 -16 1 0
EndChar
StartChar: hyphen
Encoding: 45 45 14
Width: 240
Flags: MW
HStem: 208 58<90 159>
Fore
90 266 m 2
 188 266 l 2
 205 266 207 265 207 261 c 0
 207 259 207 259 203 247 c 1
 195 227 l 2
 187 208 187 208 159 208 c 2
 58 208 l 2
 46 208 43 209 43 212 c 0
 43 215 43 215 48 226 c 2
 61 254 l 2
 66 266 66 266 90 266 c 2
EndSplineSet
KernsSLIF: 89 -74 1 0 87 -85 1 0 86 -80 1 0 84 -85 1 0 261 -15 1 0 256 -15 1 0 257 -15 1 0 225 -36 1 0 65 -15 1 0
EndChar
StartChar: period
Encoding: 46 46 15
Width: 240
Flags: MW
HStem: -15 20
Fore
79 113 m 0
 111 113 132 89 132 53 c 0
 132 15 106 -15 71 -15 c 0
 38 -15 17 9 17 47 c 0
 17 84 44 113 79 113 c 0
EndSplineSet
KernsSLIF: 39 -32 1 0 186 -34 1 0
EndChar
StartChar: slash
Encoding: 47 47 16
Width: 498
Flags: W
Fore
564 723 m 1
 625 723 l 1
 47 -60 l 1
 -8 -60 l 1
 564 723 l 1
EndSplineSet
EndChar
StartChar: zero
Encoding: 48 48 17
Width: 518
Flags: HW
Fore
508.044 213 m 0
 491.532 150 456.896 97 403.308 56 c 0
 350.634 14 291.796 -7 227.796 -7 c 0
 163.796 -7 116.634 14 85.2207 55 c 0
 53.8076 96 47.4443 149 64.0439 213 c 0
 80.6426 277 115.28 330 167.779 370 c 1
 220.454 412 279.204 432 344.204 432 c 0
 408.204 432 456.454 412 486.779 370 c 1
 518.28 330 524.643 277 508.044 213 c 0
436.219 215 m 0
 449.506 264 448.181 306 432.067 339 c 0
 415.305 376 381.967 395 333.967 395 c 0
 285.967 395 243.305 376 205.979 338 c 0
 173.093 305 150.418 263 137.044 213 c 0
 123.669 163 124.995 121 141.021 87 c 0
 157.608 48 190.946 29 238.946 29 c 0
 286.946 29 329.695 49 367.107 88 c 0
 400.17 123 423.845 165 436.219 215 c 0
EndSplineSet
EndChar
StartChar: one
Encoding: 49 49 18
Width: 518
Flags: HMW
HStem: 1 21<135 135 307.5 314>
VStem: 227 70
Fore
416.585 416 m 0
 414.71 406 400.098 399 374.66 394 c 1
 352.048 387 337.386 368 329.674 337 c 1
 264.063 90 l 2
 256.702 63 258.302 47 268.689 40 c 0
 274.427 37 284.989 32 300.552 27 c 0
 307.377 25 310.027 21 308.415 14 c 0
 305.627 5 300.277 1 290.277 1 c 0
 287.277 1 283.365 2 277.365 2 c 1
 272.54 4 267.54 4 264.54 4 c 2
 165.54 4 l 1
 116.277 1 l 2
 103.189 0 97.627 5 100.415 14 c 0
 102.027 21 117.552 27 147.989 32 c 0
 169.252 35 185.177 57 195.764 98 c 1
 261.373 345 l 1
 261.636 348 261.986 352 262.511 358 c 0
 263.036 364 263.474 369 264.735 372 c 1
 264.261 378 255.961 386 237.836 396 c 0
 219.798 407 211.41 414 212.673 417 c 0
 214.373 425 219.723 429 229.723 429 c 2
 289.197 423 l 1
 328.11 422 l 1
 406.635 428 l 2
 415.723 429 419.373 425 416.585 416 c 0
EndSplineSet
EndChar
StartChar: two
Encoding: 50 50 19
Width: 518
Flags: HMW
HStem: 3 61 380 55
VStem: 295 79
Fore
394.839 78 m 0
 393.052 69 383.652 53 366.814 32 c 0
 349.978 11 338.015 0 331.103 1 c 2
 281.365 4 l 1
 112.277 3 l 1
 44.9277 -1 l 2
 32.8398 -2 28.2773 3 31.2402 14 c 0
 32.5898 18 43.377 27 65.6016 41 c 0
 74.127 47 85.7393 54 99.3516 61 c 1
 226.313 152 297.875 227 313.124 287 c 0
 320.486 314 318.499 337 307.986 354 c 0
 296.474 371 277.261 380 250.261 380 c 0
 231.261 380 210.474 371 186.986 354 c 2
 152.711 328 l 1
 142.711 328 138.062 332 140.761 340 c 0
 142.198 345 149.073 355 163.386 370 c 0
 203.147 413 250.072 435 304.072 435 c 0
 341.072 435 368.022 423 386.011 400 c 0
 403.998 377 408.373 347 398.137 310 c 0
 392.124 287 385.725 271 377.762 260 c 0
 358.662 236 319.25 197 257.613 144 c 0
 211.114 104 184.014 80 176.314 72 c 1
 174.877 67 177.614 64 182.614 64 c 2
 322.614 64 l 2
 329.614 64 341.964 68 358.752 77 c 0
 375.539 86 383.889 90 384.889 90 c 0
 393.889 90 397.539 86 394.839 78 c 0
EndSplineSet
EndChar
StartChar: three
Encoding: 51 51 20
Width: 518
Flags: HMW
HStem: 386 50<293 294>
Fore
384.319 76 m 0
 370.857 25 343.745 -22 302.983 -65 c 0
 261.047 -110 214.422 -140 162.197 -154 c 1
 109.797 -170 79.1846 -177 70.1846 -177 c 0
 61.1846 -177 58.6221 -172 61.4971 -162 c 0
 63.1973 -154 74.8096 -147 94.334 -141 c 2
 135.384 -129 l 1
 218.834 -101 271.646 -46 293.907 37 c 0
 313.469 112 293.794 150 234.794 150 c 0
 228.794 150 218.618 148 204.094 142 c 0
 190.744 138 181.481 135 176.481 135 c 0
 165.481 135 162.006 141 164.969 152 c 0
 167.756 161 176.456 169 191.98 175 c 0
 277.955 209 327.979 255 344.142 314 c 0
 356.341 362 339.44 386 293.44 386 c 0
 278.44 386 255.653 377 223.991 358 c 0
 193.416 340 180.629 331 185.629 331 c 1
 176.629 331 172.979 335 175.679 343 c 0
 177.291 350 186.254 361 201.479 375 c 0
 247.065 416 294.815 436 344.815 436 c 0
 376.815 436 400.028 427 414.541 410 c 0
 429.966 392 432.778 367 424.066 336 c 0
 422.191 326 419.491 318 417.054 313 c 0
 411.742 298 396.167 280 373.33 259 c 1
 317.306 213 l 1
 316.043 210 317.78 207 321.693 206 c 0
 380.855 185 401.094 142 384.319 76 c 0
EndSplineSet
EndChar
StartChar: four
Encoding: 52 52 21
Width: 518
Flags: HMW
HStem: 34 48<251 251> 418 20<415 422.5>
Fore
490.395 57 m 0
 485.995 41 478.295 33 466.295 33 c 2
 363.295 33 l 2
 356.295 33 351.945 29 349.157 20 c 1
 301.06 -164 l 1
 299.447 -171 285.185 -174 260.272 -173 c 0
 235.359 -172 223.535 -170 224.972 -165 c 2
 272.982 18 l 1
 275.857 28 265.295 33 242.383 34 c 2
 147.558 36 l 1
 34.2949 33 l 2
 23.2949 33 18.7324 38 21.6943 49 c 0
 22.957 52 42.6191 71 81.6816 106 c 1
 351.729 358 l 1
 371.391 377 l 1
 435.641 437 l 2
 436.728 438 439.728 438 443.728 438 c 0
 454.728 438 458.378 434 456.766 427 c 1
 369.807 96 l 1
 367.02 87 368.582 82 375.582 82 c 2
 477.582 82 l 2
 490.582 82 494.882 74 490.395 57 c 0
293.895 97 m 1
 343.167 283 l 1
 343.517 287 342.692 289 339.692 289 c 0
 335.692 289 297.979 258 226.556 196 c 0
 156.131 134 119.069 99 117.457 92 c 0
 115.845 85 117.582 82 122.582 82 c 2
 278.582 82 l 2
 285.582 82 291.02 87 293.895 97 c 1
EndSplineSet
EndChar
StartChar: five
Encoding: 53 53 22
Width: 518
Flags: HW
Fore
456.94 431 m 0
 455.065 421 445.928 408 430.616 393 c 0
 415.304 378 403.516 369 393.341 367 c 0
 389.254 366 362.903 362 316.116 353 c 0
 300.854 350 286.679 348 271.504 346 c 1
 251.979 340 240.104 330 235.967 317 c 0
 231.479 300 235.255 286 247.467 277 c 0
 335.605 210 370.307 138 349.569 61 c 0
 337.72 17 312.046 -25 270.634 -64 c 0
 233.571 -99 191.034 -128 142.197 -149 c 0
 105.797 -165 83.0977 -173 75.0977 -173 c 0
 65.0977 -173 61.6221 -167 64.7598 -154 c 0
 66.1973 -149 73.7217 -143 88.2471 -137 c 0
 93.4219 -135 103.771 -131 117.297 -125 c 0
 199.446 -89 250.171 -35 269.47 37 c 0
 283.02 89 268.131 136 223.806 178 c 0
 184.043 215 167.492 243 173.33 264 c 0
 179.167 285 191.354 310 209.804 338 c 0
 228.341 367 247.091 387 266.054 398 c 0
 285.104 410 334.065 421 413.853 430 c 1
 440.553 438 451.902 442 448.902 442 c 1
 456.902 442 459.553 438 456.94 431 c 0
EndSplineSet
EndChar
StartChar: six
Encoding: 54 54 23
Width: 518
Flags: HW
Fore
567.516 634 m 0
 567.165 630 533.678 613 467.054 583 c 0
 423.304 563 366.892 524 300.817 466 c 0
 227.306 403 185.931 353 175.693 316 c 0
 174.256 311 175.994 308 179.994 308 c 1
 173.994 308 171.081 309 171.169 310 c 0
 172.432 313 188.044 320 219.006 331 c 0
 263.318 346 291.019 354 304.019 354 c 0
 349.019 354 383.618 338 409.819 306 c 0
 436.106 275 442.782 237 431.933 193 c 0
 416.946 136 383.834 89 333.597 52 c 0
 283.272 14 229.61 -5 172.61 -5 c 0
 114.61 -5 74.3594 15 51.9463 56 c 0
 30.1836 93 28.4707 142 43.6328 201 c 0
 67.5938 292 119.943 376 199.68 453 c 0
 274.066 526 360.791 580 457.853 615 c 0
 511.516 634 545.39 644 558.39 644 c 0
 566.39 644 570.128 641 567.516 634 c 0
343.046 160 m 0
 351.933 193 352.558 223 347.007 251 c 0
 339.332 289 315.994 308 278.994 308 c 0
 242.994 308 199.244 288 148.832 249 c 0
 141.307 243 133.819 226 126.458 199 c 0
 116.046 160 114.896 124 123.097 92 c 0
 133.51 51 160.672 30 203.672 30 c 0
 237.672 30 267.896 44 294.259 71 c 0
 317.271 94 333.896 124 343.046 160 c 0
EndSplineSet
EndChar
StartChar: seven
Encoding: 55 55 24
Width: 518
Flags: HW
Fore
540.853 419 m 1
 315.618 142 l 2
 221.383 25 139.108 -81 68.8848 -175 c 1
 66.4473 -180 60.2725 -182 52.2725 -182 c 0
 45.2725 -182 37.4473 -180 30.7969 -176 c 0
 24.1475 -172 21.585 -167 23.1094 -161 c 1
 97.333 -67 l 1
 313.868 202 422.854 339 424.291 344 c 0
 427.254 355 423.691 360 415.691 360 c 2
 197.691 360 l 2
 179.691 360 153.466 346 119.017 318 c 1
 110.017 318 106.366 322 109.154 331 c 1
 106.541 324 122.903 351 156.24 412 c 0
 159.853 419 165.203 423 172.29 424 c 2
 483.378 425 l 1
 529.728 429 l 2
 538.728 429 542.465 426 540.853 419 c 1
EndSplineSet
EndChar
StartChar: eight
Encoding: 56 56 25
Width: 518
Flags: HMW
HStem: -199 33<194 223> 404 33<303.5 326>
VStem: 98 67 203 107 351 68
Fore
466.223 293 m 0
 457.424 261 440.974 233 415.874 209 c 0
 411.437 204 393.299 191 361.287 168 c 0
 330.362 146 314.399 135 314.312 134 c 0
 313.225 133 322.088 120 341.075 97 c 0
 359.063 74 368.838 60 371.4 55 c 0
 383.863 26 384.802 -9 375.39 -48 c 0
 363.452 -93 338.303 -129 298.854 -157 c 0
 260.403 -185 218.179 -199 173.179 -199 c 0
 128.179 -199 94.2285 -187 71.2402 -164 c 0
 46.4277 -139 39.4902 -104 50.252 -61 c 0
 60.4893 -24 81.376 9 114.001 39 c 0
 124.963 50 143.101 63 167.588 80 c 0
 187.812 94 198.601 103 199.862 106 c 0
 201.3 111 189.612 126 163.712 150 c 1
 136.124 189 127.799 231 139.911 278 c 0
 152.022 325 179.348 363 220.885 392 c 0
 262.509 422 307.821 437 354.821 437 c 0
 398.821 437 431.684 424 452.409 398 c 0
 473.135 372 477.072 337 466.223 293 c 0
399.311 294 m 0
 406.848 323 406.035 348 395.872 369 c 0
 384.885 392 364.935 404 336.935 404 c 0
 308.935 404 284.06 394 261.135 372 c 1
 238.385 352 223.197 327 215.66 298 c 0
 209.998 279 212.986 256 224.799 231 c 0
 234.874 209 247.387 192 263.162 178 c 1
 279.112 166 287.5 159 288.5 159 c 0
 293.5 159 301.85 163 313.637 172 c 0
 357.437 204 386.023 245 399.311 294 c 0
301.552 -69 m 0
 313.664 -22 299.514 22 256.926 61 c 0
 242.063 74 233.676 81 230.676 81 c 0
 217.676 81 198.45 67 174.089 40 c 0
 145.289 8 127.576 -23 120.039 -52 c 0
 111.327 -83 112.053 -109 122.215 -130 c 0
 133.115 -154 154.065 -166 184.065 -166 c 0
 212.065 -166 236.854 -157 258.341 -140 c 0
 278.915 -122 294.015 -98 301.552 -69 c 0
EndSplineSet
EndChar
StartChar: nine
Encoding: 57 57 26
Width: 518
Flags: HWO
Fore
479.012 229 m 0
 453.7 134 404.351 50 329.877 -24 c 1
 254.577 -96 168.291 -145 70.2783 -168 c 0
 31.4912 -177 8.05371 -182 0.0537109 -182 c 0
 -10.9463 -182 -14.5088 -177 -12.6338 -167 c 0
 -8.49707 -154 13.3779 -144 53.9033 -138 c 0
 108.603 -130 168.577 -96 233.827 -36 c 0
 296.813 21 338.626 76 361.438 131 c 0
 376.587 167 386.124 196 392.049 218 c 0
 403.724 260 405.961 297 401.673 328 c 0
 393.785 375 368.797 398 325.797 398 c 0
 292.797 398 263.835 387 239.822 364 c 0
 215.811 341 199.36 313 190.386 279 c 0
 182.674 248 180.137 219 182.687 191 c 0
 188.1 150 206.35 130 238.35 130 c 0
 245.35 130 256.525 132 270.875 136 c 0
 286.312 141 296.487 143 303.487 143 c 0
 311.487 143 314.138 139 312.438 131 c 0
 311.088 127 303.562 121 289.862 113 c 0
 262.551 98 233.851 90 203.851 90 c 0
 162.851 90 134.163 105 116.7 134 c 0
 100.237 163 97.3867 199 107.974 240 c 0
 122.873 296 153.897 342 200.135 379 c 0
 247.372 416 298.946 434 354.946 434 c 0
 414.946 434 454.196 414 475.697 374 c 0
 493.548 338 495.348 290 479.012 229 c 0
EndSplineSet
EndChar
StartChar: colon
Encoding: 58 58 27
Width: 240
Flags: MW
HStem: -15 20 423 20<159.5 193>
Fore
79 113 m 0
 111 113 132 89 132 53 c 0
 132 15 106 -15 71 -15 c 0
 38 -15 17 9 17 47 c 0
 17 84 44 113 79 113 c 0
177 443 m 0
 209 443 230 419 230 383 c 0
 230 345 204 315 169 315 c 0
 136 315 115 339 115 377 c 0
 115 414 142 443 177 443 c 0
EndSplineSet
EndChar
StartChar: semicolon
Encoding: 59 59 28
Width: 240
Flags: MW
HStem: 423 20<167 201>
VStem: 100 64<-22.5 -6>
Fore
-10 -120 m 2
 -10 -113 l 1
 60 -98 100 -64 100 -18 c 0
 100 6 94 13 50 41 c 0
 35 50 28 60 28 73 c 0
 28 99 50 119 77 119 c 0
 122 119 164 71 164 21 c 0
 164 -66 90 -138 -5 -146 c 1
 -8 -139 -10 -129 -10 -120 c 2
185 443 m 0
 217 443 238 419 238 383 c 0
 238 345 211 315 177 315 c 0
 144 315 122 340 122 377 c 0
 122 414 149 443 185 443 c 0
EndSplineSet
EndChar
StartChar: less
Encoding: 60 60 29
Width: 996
Flags: MW
HStem: -1 20
Fore
199 264 m 1
 199 335 l 1
 797 600 l 1
 797 524 l 1
 285 299 l 1
 797 74 l 1
 797 -1 l 1
 199 264 l 1
EndSplineSet
EndChar
StartChar: equal
Encoding: 61 61 30
Width: 774
Flags: MW
HStem: 146 64<162 647> 273 64<162 646>
Fore
150 158 m 2
 150 198 l 2
 150 207 153 210 162 210 c 2
 647 210 l 2
 656 210 659 207 659 198 c 2
 659 158 l 2
 659 149 656 146 647 146 c 2
 161 146 l 2
 153 146 150 149 150 158 c 2
150 285 m 2
 150 325 l 2
 150 334 153 337 162 337 c 2
 647 337 l 2
 655 337 658 334 658 325 c 2
 658 285 l 2
 658 276 655 273 646 273 c 2
 162 273 l 2
 153 273 150 276 150 285 c 2
EndSplineSet
EndChar
StartChar: greater
Encoding: 62 62 31
Width: 996
Flags: MW
HStem: -1 20
Fore
797 335 m 1
 797 264 l 1
 199 -1 l 1
 199 74 l 1
 711 299 l 1
 199 524 l 1
 199 600 l 1
 797 335 l 1
EndSplineSet
EndChar
StartChar: question
Encoding: 63 63 32
Width: 351
Flags: MW
HStem: -15 20 637 70<274 282.5>
VStem: 85 52<293.5 311> 344 52<551 593.5>
Fore
125 113 m 0
 156 113 179 87 179 53 c 0
 179 15 151 -15 117 -15 c 0
 87 -15 64 11 64 45 c 0
 64 80 93 113 125 113 c 0
280 637 m 0
 268 637 261 636 243 632 c 0
 235 630 228 629 223 629 c 0
 204 629 187 646 187 666 c 0
 187 691 206 707 237 707 c 0
 328 707 396 639 396 548 c 0
 396 511 384 474 364 448 c 0
 342 421 314 405 258 391 c 0
 192 373 174 366 156 348 c 1
 144 338 137 319 137 303 c 0
 137 284 148 265 165 254 c 0
 175 248 176 248 215 247 c 0
 243 246 255 236 255 212 c 0
 255 187 237 168 213 168 c 0
 156 168 85 256 85 326 c 0
 85 354 103 395 128 423 c 0
 150 447 162 452 237 474 c 0
 311 496 344 527 344 575 c 0
 344 615 321 637 280 637 c 0
EndSplineSet
EndChar
StartChar: at
Encoding: 64 64 33
Width: 779
Flags: W
HStem: -139 52<323 447.5> 1 55<562.5 584> 10 39<327 349.5> 438 39<463.5 487.5> 593 52<395.5 556.5>
VStem: 9 67<112.5 248> 771 47<282.5 397>
Fore
716 14 m 1xde
 750 -7 l 1
 694 -51 665 -70 627 -89 c 0
 559 -122 487 -139 408 -139 c 0
 181 -139 9 3 9 190 c 0
 9 306 59 425 144 513 c 0
 229 600 335 645 456 645 c 0
 662 645 818 507 818 324 c 0
 818 157 684 1 540 1 c 0xde
 493 1 472 19 464 67 c 1
 411 25 373 10 326 10 c 0x36
 251 10 202 63 202 144 c 0
 202 225 236 312 297 385 c 0
 349 448 401 477 462 477 c 0
 513 477 543 458 578 404 c 1
 599 459 l 1
 689 459 l 1
 555 135 l 2
 547 116 542 96 542 83 c 0
 542 67 554 56 571 56 c 0
 597 56 639 79 675 111 c 0
 737 168 771 243 771 322 c 0
 771 472 639 593 474 593 c 0
 268 593 76 401 76 195 c 0
 76 30 221 -87 425 -87 c 0
 495 -87 566 -71 626 -43 c 0
 651 -30 674 -16 716 14 c 1xde
483 438 m 0
 444 438 404 405 362 339 c 0
 320 273 286 181 282 123 c 0
 279 80 307 49 347 49 c 0x36
 394 49 429 81 471 159 c 0
 513 237 544 329 544 373 c 0
 544 410 518 438 483 438 c 0
EndSplineSet
EndChar
StartChar: A
Encoding: 65 65 34
Width: 701
Flags: W
HStem: -6 20 -5 20 0 20 273 39<252.5 267 267 435>
Fore
437 273 m 1x90
 267 273 l 2
 238 273 229 272 223 267 c 0
 218 264 218 264 194 228 c 1
 138 140 l 2
 99 79 91 63 91 49 c 0
 91 33 106 28 149 27 c 0
 166 27 171 26 170 22 c 1
 169 14 l 1x90
 168 6 l 1
 168 -2 163 -5 154 -5 c 0x40
 150 -5 141 -5 133 -4 c 0
 105 -2 58 0 46 0 c 0x20
 27 0 25 0 -17 -4 c 0
 -23 -5 -33 -5 -42 -5 c 0
 -50 -5 -53 -3 -53 2 c 1
 -52 11 l 1
 -50 17 l 2
 -47 26 -46 27 -30 28 c 0
 9 28 20 37 64 101 c 1
 398 624 l 1
 405 638 413 651 421 662 c 1
 448 710 459 719 483 720 c 1
 536 106 l 2
 541 49 547 37 572 32 c 0
 598 27 607 23 606 17 c 2
 605 10 l 1
 603 1 l 2
 602 -3 598 -5 591 -5 c 0
 574 -5 574 -5 560 -2 c 0
 553 -1 543 0 527 0 c 0
 513 0 491 -1 464 -2 c 2
 420 -5 l 1x40
 393 -6 l 1
 389 -6 l 2
 382 -6 376 -1 378 5 c 1
 378 6 l 1
 379 17 l 2
 380 28 381 28 404 28 c 0
 439 28 452 39 452 68 c 0
 452 80 452 82 449 125 c 1
 437 273 l 1x90
435 312 m 1
 419 581 l 1
 249 312 l 1
 435 312 l 1
EndSplineSet
KernsSLIF: 121 -59 0 0 119 -60 0 0 118 -62 0 0 117 -28 0 0 116 -34 0 0 39 -85 0 0 186 -87 0 0 113 -25 0 0 46 -12 0 0 111 -45 0 0 45 -33 0 0 172 -76 0 0 171 -63 0 0 103 -47 0 0 101 -36 0 0 100 -24 0 0 44 -20 0 0 293 -41 0 0 99 -41 0 0 98 -34 0 0 97 -12 0 0 89 -68 0 0 87 -140 0 0 86 -136 0 0 281 -87 0 0 279 -87 0 0 282 -87 0 0 280 -87 0 0 85 -87 0 0 84 -79 0 0 81 -72 0 0 273 -71 0 0 79 -71 0 0 71 -79 0 0 262 -75 0 0 67 -75 0 0
EndChar
StartChar: B
Encoding: 66 66 35
Width: 572
Flags: W
HStem: -5 32<211 266.5> 0 20 355 32<287 329.5> 662 32<359 400.5>
VStem: 438 98<185.5 232> 493 91<509 568.5>
Fore
165 662 m 1x48
 167 674 l 1
 168 683 169 685 176 685 c 0
 207 689 321 694 363 694 c 0
 438 694 482 684 523 656 c 0
 562 630 584 591 584 546 c 0xb4
 584 463 519 404 388 370 c 1
 438 356 460 345 486 323 c 0
 517 296 536 254 536 210 c 0
 536 161 512 110 474 78 c 0
 413 27 316 -5 217 -5 c 0xb8
 202 -5 181 -4 152 -2 c 0
 131 -1 117 0 104 0 c 0
 95 0 89 0 34 -4 c 0
 26 -5 17 -5 12 -5 c 0
 2 -5 -1 -2 -2 7 c 1
 -2 17 l 1
 -2 21 l 2
 -2 27 0 27 26 29 c 0
 59 31 69 39 81 79 c 2
 231 585 l 1
 236 603 240 622 240 630 c 0
 240 647 229 654 202 654 c 0
 192 654 188 654 178 652 c 0
 174 651 171 651 169 651 c 0
 166 651 164 653 164 656 c 1
 165 662 l 1x48
316 594 m 2
 257 389 l 1
 274 387 282 387 292 387 c 0
 409 387 493 459 493 559 c 0
 493 626 453 662 378 662 c 0
 340 662 333 654 316 594 c 2
247 352 m 1
 176 111 l 2
 171 94 167 72 167 62 c 0
 167 37 186 27 236 27 c 0
 352 27 438 109 438 218 c 0xb8
 438 305 380 355 279 355 c 0
 266 355 260 354 247 352 c 1
EndSplineSet
KernsSLIF: 89 -21 0 0 87 -44 0 0 86 -44 0 0 233 -1 0 0 275 -7 0 0 273 -7 0 0 276 -7 0 0 274 -7 0 0 234 -14 0 0 79 -7 0 0 260 -17 0 0 261 -17 0 0 256 -17 0 0 259 -17 0 0 257 -17 0 0 225 -14 0 0 65 -17 0 0
EndChar
StartChar: C
Encoding: 67 67 36
Width: 701
Flags: MW
HStem: -20 38<343.5 458.5> 670 38<434 517.5>
VStem: 79 101<207 356.5> 704 57
Fore
630 158 m 1
 657 148 l 1
 612 24 l 1
 540 -9 494 -20 425 -20 c 0
 219 -20 79 111 79 303 c 0
 79 410 119 508 192 583 c 1
 269 660 381 708 487 708 c 0
 562 708 662 678 732 635 c 0
 753 622 761 614 761 606 c 0
 761 602 761 602 753 582 c 2
 720 497 l 1
 694 503 l 1
 702 524 704 535 704 548 c 0
 704 584 685 610 639 634 c 0
 598 656 542 670 493 670 c 0
 325 670 180 492 180 287 c 0
 180 125 273 18 414 18 c 0
 503 18 563 57 630 158 c 1
EndSplineSet
KernsSLIF: 273 -9 0 0 274 -9 0 0 79 -9 0 0 261 16 0 0 256 16 0 0 257 16 0 0 225 20 0 0 65 16 0 0
EndChar
StartChar: D
Encoding: 68 68 37
Width: 756
Flags: W
HStem: -5 33<271.5 319.5> 0 20 670 38<355.5 449>
VStem: 657 102<358.5 451.5>
Fore
108 181 m 1x50
 213 560 l 2
 223 597 228 620 228 630 c 0
 228 649 212 659 182 659 c 0
 173 659 160 658 151 657 c 0
 147 656 144 656 142 656 c 0
 136 656 134 659 134 664 c 0
 134 666 134 666 135 673 c 2
 136 680 l 2
 137 688 139 691 145 692 c 0
 181 700 290 708 369 708 c 0
 529 708 615 684 682 622 c 0
 730 576 759 496 759 407 c 0
 759 298 723 208 648 133 c 1
 557 39 439 -5 283 -5 c 0xb0
 260 -5 218 -4 179 -2 c 0
 148 -1 128 0 108 0 c 0
 96 0 73 -1 49 -2 c 0
 13 -4 -6 -5 -18 -5 c 0
 -25 -5 -26 -3 -26 7 c 1
 -27 14 l 1
 -27 19 l 2
 -27 23 -26 24 -19 26 c 0
 66 45 70 50 108 181 c 1x50
318 629 m 2
 181 142 l 2
 171 106 166 84 166 73 c 0
 166 41 196 28 270 28 c 0
 369 28 438 50 506 103 c 0
 599 175 657 297 657 420 c 0
 657 580 557 670 379 670 c 0
 332 670 329 668 318 629 c 2
EndSplineSet
KernsSLIF: 89 -51 0 0 88 -58 0 0 87 -75 0 0 86 -74 0 0 84 -37 0 0 74 -23 0 0 260 -50 0 0 261 -50 0 0 258 -50 0 0 256 -50 0 0 259 -50 0 0 257 -50 0 0 65 -50 0 0
EndChar
StartChar: E
Encoding: 69 69 38
Width: 590
Flags: W
HStem: -6 20 -5 20 0 20 355 33<252 348> 662 32<170.5 179> 670 20<389 398.5>
Fore
242 355 m 1x14
 180 141 l 2
 170 107 165 86 165 75 c 0
 165 58 176 45 195 38 c 0
 209 33 212 33 288 32 c 2
 322 32 l 2
 441 32 457 41 525 141 c 1
 553 134 l 1
 488 -5 l 1
 460 -4 443 -3 377 -3 c 2
 276 -2 l 2
 231 -1 199 0 191 0 c 0
 176 0 152 -1 122 -2 c 2
 62 -4 l 1
 6 -5 l 2x50
 1 -6 -4 -6 -6 -6 c 0x80
 -16 -6 -21 -4 -21 1 c 2
 -21 7 l 1
 -19 20 l 1
 -18 28 -18 29 -15 30 c 2
 -11 32 l 1
 31 33 l 2
 60 35 72 53 94 128 c 2
 218 556 l 2
 228 590 235 623 235 634 c 0
 235 652 215 662 179 662 c 2
 168 662 l 2
 164 661 161 661 159 661 c 0
 155 661 152 663 152 666 c 0
 152 667 152 668 155 676 c 2
 158 684 l 2
 161 692 165 694 176 694 c 0x28
 194 694 194 694 313 691 c 2
 389 690 l 2
 408 690 529 692 544 693 c 0
 566 694 585 694 597 694 c 0
 605 694 610 691 610 686 c 0
 610 685 610 685 607 675 c 2
 574 556 l 1
 547 563 l 1
 543 648 535 657 457 657 c 2
 396 657 l 2
 355 657 349 656 338 649 c 0
 325 641 322 635 310 591 c 1
 252 388 l 1
 351 388 l 2
 384 388 403 391 417 399 c 0
 433 408 434 410 453 448 c 0
 454 450 456 451 458 451 c 0
 459 451 459 451 465 449 c 2
 472 446 l 2
 479 443 481 442 481 438 c 0
 481 436 481 436 478 425 c 1
 436 297 l 1
 430 280 430 280 426 280 c 0
 424 280 423 280 417 282 c 2
 410 284 l 2
 405 285 403 287 403 290 c 1
 404 297 l 1
 407 306 410 322 410 332 c 0
 410 353 403 355 348 355 c 2
 242 355 l 1x14
EndSplineSet
EndChar
StartChar: F
Encoding: 70 70 39
Width: 498
Flags: W
HStem: -5 20 0 20 353 34<261 357> 429 20<465.5 468> 660 34<174 179 174 174> 669 20<390 396>
Fore
261 387 m 1x24
 366 387 l 2
 423 387 438 395 459 439 c 0
 463 448 464 449 467 449 c 0
 469 449 473 448 474 447 c 2
 482 444 l 2
 487 442 488 440 488 438 c 0
 488 435 488 435 484 423 c 1
 446 292 l 2
 440 272 440 272 429 272 c 1
 421 274 l 2
 414 275 412 276 412 280 c 0
 412 284 413 290 415 297 c 0
 417 308 420 325 420 331 c 0
 420 349 410 353 357 353 c 2
 252 353 l 1
 187 132 l 1
 174 79 174 79 174 67 c 0
 174 43 195 30 240 28 c 0
 256 27 260 26 260 19 c 0
 260 17 259 14 258 12 c 2
 256 6 l 1
 252 -3 248 -5 236 -5 c 2xb0
 102 0 l 1x40
 67 0 59 0 14 -4 c 0
 8 -5 -1 -5 -3 -5 c 0
 -12 -5 -15 -3 -15 3 c 0
 -15 5 -15 7 -14 9 c 1
 -13 17 l 1
 -10 27 -8 29 6 29 c 0
 62 30 76 45 102 132 c 1
 219 539 l 1
 238 618 238 618 238 627 c 0
 238 647 217 660 185 660 c 2
 174 660 l 2
 168 659 163 659 162 659 c 0
 157 659 154 662 154 666 c 1
 154 666 154 667 156 675 c 2
 159 685 l 2
 161 691 166 694 179 694 c 2x88
 390 689 l 2
 402 689 460 691 571 694 c 0
 585 694 590 691 590 683 c 0
 590 681 590 681 588 671 c 2
 567 571 l 1
 564 558 564 557 556 557 c 2
 548 558 l 2
 539 558 536 561 536 567 c 0
 536 568 536 572 537 576 c 1
 537 584 l 2
 537 613 531 632 520 643 c 0
 508 654 495 656 447 656 c 2
 425 656 l 2
 365 656 352 655 343 649 c 0
 335 644 331 635 322 603 c 2
 261 387 l 1x24
EndSplineSet
KernsSLIF: 117 -13 0 0 46 -56 0 0 249 -17 0 0 250 -14 0 0 303 -20 0 0 304 -20 0 0 111 -20 0 0 106 5 0 0 105 -13 0 0 295 -18 0 0 101 -18 0 0 44 -55 0 0 292 -37 0 0 241 -37 0 0 287 -27 0 0 288 -37 0 0 97 -37 0 0 273 -12 0 0 79 -12 0 0 74 10 0 0 260 -58 0 0 261 -58 0 0 258 -58 0 0 256 -58 0 0 259 -58 0 0 257 -58 0 0 65 -58 0 0
EndChar
StartChar: G
Encoding: 71 71 40
Width: 774
Flags: MW
HStem: -20 38<390.5 436.5> 670 38<477 545.5>
VStem: 81 101<263.5 332>
Fore
735 488 m 1
 702 495 l 1
 704 509 l 1
 706 525 708 539 708 547 c 0
 708 570 698 593 681 609 c 0
 643 645 575 670 516 670 c 0
 438 670 342 623 282 555 c 0
 221 486 182 381 182 283 c 0
 182 210 209 139 256 92 c 0
 298 49 365 18 416 18 c 0
 457 18 500 34 525 58 c 0
 544 76 558 103 570 147 c 1
 585 199 l 2
 596 237 596 237 596 245 c 0
 596 264 582 270 539 270 c 2
 510 270 l 2
 477 270 473 271 473 278 c 0
 473 279 474 285 475 287 c 1
 477 294 l 2
 479 300 480 301 482 302 c 0
 485 303 487 303 501 303 c 2
 748 302 l 2
 762 301 762 301 762 296 c 0
 762 295 762 293 761 291 c 1
 760 282 l 1
 759 276 759 276 757 275 c 2
 753 273 l 1
 732 268 l 2
 682 256 678 252 660 188 c 1
 606 13 l 1
 539 -7 461 -20 412 -20 c 0
 332 -20 239 20 176 81 c 0
 113 142 81 219 81 308 c 0
 81 408 122 503 196 576 c 0
 277 654 402 708 506 708 c 0
 597 708 696 673 770 615 c 1
 735 488 l 1
EndSplineSet
KernsSLIF: 89 -25 0 0 87 -49 0 0 86 -48 0 0 84 -20 0 0 260 -21 0 0 261 -21 0 0 258 -21 0 0 256 -21 0 0 259 -21 0 0 257 -21 0 0 225 -17 0 0 65 -21 0 0
EndChar
StartChar: H
Encoding: 72 72 41
Width: 774
Flags: W
HStem: -5 20 0 20 669 20<292 327.5 738 772> 674 20<172.5 178 414 420.5 620 626 858 863>
Fore
260 388 m 1x10
 621 388 l 1
 670 557 l 2
 679 587 683 609 683 623 c 0
 683 647 665 658 622 661 c 0
 605 662 602 663 602 669 c 0x20
 602 671 602 671 605 677 c 1
 607 683 l 2
 610 691 615 694 625 694 c 0x10
 627 694 636 694 643 693 c 0
 693 690 720 689 756 689 c 0
 788 689 813 690 844 693 c 0
 849 694 857 694 859 694 c 0
 867 694 871 691 870 685 c 0
 870 684 870 682 869 680 c 1
 867 672 l 1
 865 662 862 660 848 660 c 0
 795 658 782 643 755 557 c 1
 634 133 l 2
 626 105 621 80 621 66 c 0
 621 42 639 31 681 28 c 0
 698 27 701 26 701 20 c 0x50
 701 18 700 15 699 12 c 2
 696 6 l 1
 693 -2 688 -5 679 -5 c 0
 677 -5 668 -5 661 -4 c 0
 612 -1 583 0 546 0 c 0
 513 0 505 0 459 -4 c 0
 454 -5 444 -5 440 -5 c 0x80
 431 -5 427 -2 428 3 c 0
 428 4 428 6 429 9 c 2
 431 17 l 1
 433 27 436 29 450 29 c 0
 507 29 521 44 548 133 c 1
 610 349 l 1
 248 348 l 1
 186 133 l 2
 177 102 173 80 173 66 c 0
 173 42 191 31 234 28 c 0
 251 27 254 26 254 20 c 0x50
 254 18 253 16 251 12 c 1
 249 6 l 1
 245 -2 241 -5 231 -5 c 0x80
 229 -5 220 -5 214 -4 c 0
 163 -1 136 0 99 0 c 0
 65 0 58 0 12 -4 c 0
 7 -5 -3 -5 -7 -5 c 0
 -16 -5 -19 -3 -19 3 c 0
 -19 5 -19 7 -18 9 c 1
 -17 17 l 1
 -14 27 -11 29 2 29 c 0
 60 29 74 43 101 133 c 1
 222 557 l 2
 230 585 235 609 235 623 c 0
 235 647 217 658 175 661 c 0
 158 662 155 663 155 669 c 0xa0
 155 671 155 673 157 677 c 2
 160 683 l 1
 163 691 168 694 177 694 c 0
 179 694 188 694 195 693 c 0
 244 690 273 689 311 689 c 0
 344 689 351 689 396 693 c 0
 402 694 412 694 416 694 c 0
 425 694 429 691 428 686 c 0
 428 685 428 683 427 680 c 2
 425 672 l 1
 423 662 420 660 406 660 c 0
 349 660 335 645 308 557 c 1
 260 388 l 1x10
EndSplineSet
EndChar
StartChar: I
Encoding: 73 73 42
Width: 332
Flags: W
HStem: -5 20 0 20 669 20<286 315.5> 674 20<175 181> 675 20<405 409.5>
Fore
101 132 m 1x80
 223 557 l 1
 232 586 236 609 236 623 c 0
 236 646 218 658 177 661 c 0
 160 662 157 663 157 669 c 0x20
 157 671 157 671 160 677 c 1
 162 683 l 1
 166 691 170 694 180 694 c 0x10
 182 694 191 694 198 693 c 0
 250 690 272 689 300 689 c 0x20
 331 689 386 692 397 694 c 0x10
 403 695 404 695 406 695 c 0
 413 695 416 692 416 686 c 0
 416 684 416 682 415 680 c 1
 414 672 l 1
 411 662 409 661 395 660 c 0
 346 654 334 640 309 557 c 1
 187 132 l 2
 178 101 174 80 174 66 c 0
 174 42 192 31 235 27 c 0
 240 26 242 24 242 20 c 0x48
 242 18 241 15 240 12 c 2
 237 6 l 1
 234 -2 229 -5 219 -5 c 0x80
 212 -5 210 -5 180 -2 c 0
 163 -1 143 0 114 0 c 0x48
 74 0 46 -1 13 -4 c 0
 8 -5 1 -5 -2 -5 c 0
 -10 -5 -13 -3 -13 3 c 0
 -13 5 -13 7 -12 9 c 1
 -11 17 l 1
 -8 27 -6 29 8 29 c 0
 61 31 75 46 101 132 c 1x80
EndSplineSet
EndChar
StartChar: J
Encoding: 74 74 43
Width: 313
Flags: W
HStem: -221 49<-3.5 1> 669 20<284 284 398 398> 674 20<146.5 150 387 391.5>
Fore
64 -35 m 1xc0
 206 545 l 2
 216 585 222 616 222 627 c 0
 222 653 207 660 147 662 c 0
 140 662 138 663 138 671 c 2
 138 677 l 1
 140 685 l 2
 142 693 143 694 150 694 c 2x20
 284 689 l 1x40
 373 693 l 2
 380 694 385 694 389 694 c 0x20
 394 694 398 692 398 689 c 1
 397 684 l 1
 392 672 l 1
 389 663 388 662 380 662 c 0
 325 660 313 646 292 559 c 2
 184 106 l 2
 153 -23 153 -23 143 -53 c 0
 105 -158 38 -221 -36 -221 c 0
 -73 -221 -103 -198 -103 -169 c 0
 -103 -148 -85 -129 -65 -129 c 0
 -50 -129 -46 -131 -19 -163 c 0
 -14 -169 -7 -172 0 -172 c 0
 28 -172 39 -150 64 -35 c 1xc0
EndSplineSet
KernsSLIF: 261 -13 0 0 256 -13 0 0 225 -9 0 0 65 -13 0 0
EndChar
StartChar: K
Encoding: 75 75 44
Width: 682
Flags: W
HStem: -5 20 0 20 669 20<289 322 632.5 642.5> 674 20
Fore
222 295 m 1x90
 176 132 l 1
 167 103 163 80 163 65 c 0
 163 42 181 31 224 28 c 0
 241 27 244 26 244 20 c 0x40
 244 18 244 18 241 12 c 1
 239 6 l 1
 235 -2 231 -5 221 -5 c 0x90
 219 -5 210 -5 203 -4 c 0
 158 -1 124 0 98 0 c 0
 72 0 61 -1 10 -4 c 0
 5 -5 -3 -5 -6 -5 c 0
 -15 -5 -18 -3 -18 3 c 0
 -18 5 -18 7 -17 9 c 1
 -16 17 l 1
 -14 26 -11 28 0 29 c 0
 50 31 64 46 90 132 c 1
 212 557 l 2
 220 585 225 609 225 623 c 0
 225 643 210 656 184 659 c 0
 157 662 153 663 153 669 c 0xa0
 153 671 154 673 156 677 c 1
 158 683 l 2
 161 690 166 694 172 694 c 0
 175 694 180 694 185 693 c 0
 203 691 269 689 309 689 c 0
 335 689 342 689 386 693 c 0
 391 694 401 694 405 694 c 0
 414 694 417 692 417 686 c 2
 417 680 l 1
 415 672 l 1
 413 662 410 660 396 660 c 0
 338 660 325 645 298 557 c 1
 238 349 l 1
 524 575 l 2
 566 609 585 629 585 642 c 0
 585 655 567 662 539 662 c 0
 517 661 512 663 512 673 c 2
 512 685 l 2
 512 692 515 694 524 694 c 0x10
 538 694 538 694 590 691 c 0
 612 690 629 689 636 689 c 0xa0
 649 689 664 690 682 691 c 0
 704 693 720 694 733 694 c 0x10
 741 694 744 693 744 689 c 0xa0
 744 687 744 685 743 682 c 2
 741 674 l 1
 740 666 739 665 736 663 c 2
 731 661 l 1
 709 659 l 1
 670 641 664 637 635 615 c 2
 371 407 l 1
 524 121 l 1
 569 43 581 31 617 29 c 0
 630 29 631 28 631 18 c 1
 628 5 l 2
 626 -4 626 -5 614 -5 c 0x90
 603 -5 603 -5 569 -2 c 0
 554 -1 539 0 524 0 c 0x40
 511 0 505 0 425 -4 c 0
 413 -5 401 -5 394 -5 c 0
 388 -5 386 -3 386 2 c 0
 386 3 386 4 387 6 c 1
 389 18 l 1
 391 28 391 28 405 28 c 2
 423 28 l 2
 455 28 470 34 470 45 c 0
 470 52 468 57 438 110 c 2
 301 354 l 1
 222 295 l 1x90
EndSplineSet
KernsSLIF: 121 -86 0 0 309 -6 0 0 117 -6 0 0 303 -30 0 0 304 -30 0 0 111 -30 0 0 45 -55 0 0 101 -14 0 0 292 9 0 0 241 8 0 0 287 9 0 0 97 9 0 0 273 -65 0 0 274 -65 0 0 234 -74 0 0 79 -65 0 0 71 -74 0 0 67 -68 0 0
EndChar
StartChar: L
Encoding: 76 76 45
Width: 590
Flags: W
HStem: -5 20 1 32<250 296.5> 669 20<264.5 278.5> 674 20<185 192 406 412>
Fore
527 135 m 1x50
 554 124 l 1
 503 16 l 2
 493 -5 493 -5 484 -5 c 0x80
 467 -5 415 -3 371 -1 c 0
 331 0 305 1 288 1 c 0x40
 195 1 55 -1 32 -3 c 0
 19 -4 4 -5 1 -5 c 0
 -7 -5 -10 -3 -10 3 c 0
 -10 5 -10 7 -9 9 c 1
 -8 17 l 1
 -5 26 -3 27 13 28 c 0
 67 35 68 37 97 132 c 1
 222 556 l 1
 237 612 237 612 237 622 c 0
 237 642 221 655 192 659 c 0
 171 662 169 662 169 668 c 0
 169 670 170 675 171 677 c 2
 173 682 l 2
 177 691 181 694 189 694 c 0x90
 195 694 212 693 231 691 c 0
 243 690 258 689 271 689 c 0x20
 286 689 347 691 375 693 c 2
 406 694 l 2
 418 694 422 689 421 679 c 1
 420 673 l 1
 419 662 418 661 398 662 c 1
 344 661 340 657 316 580 c 1
 179 108 l 2
 174 91 171 78 171 71 c 0
 171 57 179 46 193 40 c 0
 205 35 225 33 275 33 c 0
 354 33 438 43 456 54 c 0
 465 59 505 105 527 135 c 1x50
EndSplineSet
KernsSLIF: 121 -34 0 0 309 -10 0 0 117 -10 0 0 39 -110 0 0 186 -112 0 0 45 1 0 0 89 -62 0 0 87 -118 0 0 86 -118 0 0 279 -39 0 0 85 -39 0 0 84 -72 0 0 83 -10 0 0 277 -39 0 0 275 -39 0 0 273 -39 0 0 276 -39 0 0 274 -39 0 0 79 -39 0 0 71 -49 0 0 262 -47 0 0 67 -44 0 0 261 19 0 0 256 19 0 0 257 19 0 0 225 23 0 0 65 19 0 0
EndChar
StartChar: M
Encoding: 77 77 46
Width: 774
Flags: W
HStem: -5 20 0 20 669 20 674 20<233 290 702.5 707.5 835 841.5>
Fore
360 155 m 1x10
 661 633 l 2
 687 674 687 674 690 679 c 0
 699 694 699 694 706 694 c 0x10
 709 694 713 694 719 693 c 0
 731 691 754 689 761 689 c 0x20
 832 694 832 694 838 694 c 0
 845 694 849 691 848 686 c 1
 847 683 l 1
 847 676 l 1
 846 663 846 663 824 663 c 1
 785 660 771 641 754 571 c 1
 669 249 l 2
 663 226 658 203 653 181 c 0
 647 154 641 127 634 100 c 0
 631 84 628 67 628 58 c 0
 628 33 639 28 693 27 c 0
 700 27 701 26 701 17 c 2
 701 7 l 2
 701 -3 699 -5 689 -5 c 0x90
 678 -5 648 -4 625 -2 c 0
 604 -1 589 0 582 0 c 0x40
 580 0 573 0 500 -4 c 0
 487 -5 478 -5 471 -5 c 0
 462 -5 459 -1 460 9 c 1
 461 17 l 1
 461 25 463 27 471 27 c 0
 510 29 525 33 536 47 c 1
 549 67 550 71 581 221 c 0
 591 271 621 393 637 451 c 0
 657 525 664 550 668 577 c 1
 315 17 l 1
 300 21 l 1
 274 520 l 1
 156 236 l 2
 122 154 92 69 92 53 c 0
 92 34 103 29 152 27 c 0
 163 26 166 24 166 16 c 1
 165 7 l 1
 165 -2 160 -5 148 -5 c 0x90
 139 -5 139 -5 98 -2 c 0
 79 -1 65 0 57 0 c 0x40
 42 0 42 0 -9 -4 c 0
 -16 -5 -25 -5 -31 -5 c 0
 -40 -5 -43 -2 -43 4 c 2
 -43 7 l 1
 -42 15 l 1
 -41 20 -39 23 -38 24 c 0
 -35 27 -34 27 -11 27 c 0
 22 28 32 37 49 80 c 1
 70 128 l 1
 91 176 l 1
 101 200 l 1
 268 605 l 1
 260 647 244 660 205 660 c 0
 199 660 194 660 189 659 c 0
 184 658 181 658 178 658 c 0
 175 658 173 660 173 664 c 2
 173 669 l 1xa0
 174 678 l 1
 174 691 190 694 276 694 c 0
 304 694 315 694 340 692 c 1
 360 155 l 1x10
EndSplineSet
EndChar
StartChar: N
Encoding: 78 78 47
Width: 738
Flags: W
HStem: -7 159<567.5 570.5> -5 20 0 20 540 154<285.5 287.5> 662 32 669 20<225 230.5 733.5 739 833 833>
Fore
595 95 m 1x44
 638 16 l 1
 642 10 643 6 643 3 c 0
 643 -4 639 -7 632 -7 c 0
 629 -7 625 -7 621 -6 c 0
 610 -5 602 -5 596 -5 c 0x40
 590 -5 583 -5 574 -7 c 2
 567 -7 l 2x80
 557 -7 548 3 538 23 c 2
 304 514 l 2
 298 527 289 540 286 540 c 0
 282 540 280 536 277 527 c 1
 272 506 l 1
 154 97 l 1
 144 60 144 60 144 52 c 0
 144 35 159 28 198 26 c 0
 221 25 222 25 222 18 c 0
 222 16 222 14 221 13 c 1
 219 4 l 1
 217 -2 214 -5 207 -5 c 0x50
 197 -5 197 -5 149 -2 c 0
 128 -1 113 0 107 0 c 0x20
 94 0 44 -3 17 -5 c 2
 15 -5 l 2
 9 -5 7 -3 7 1 c 1
 8 8 l 1
 8 16 l 1
 10 27 11 28 36 28 c 0
 81 30 90 41 123 143 c 1
 253 583 l 1
 231 634 197 658 141 659 c 0
 127 659 122 662 123 670 c 1
 124 674 l 1
 125 682 l 2
 126 691 130 694 141 694 c 0
 148 694 179 692 194 691 c 0
 211 690 222 689 228 689 c 0x44
 233 689 242 690 253 691 c 0
 274 693 281 694 290 694 c 0x50
 304 694 313 684 330 647 c 2
 549 182 l 2
 557 165 566 152 569 152 c 0
 572 152 572 152 579 174 c 1
 692 571 l 2
 706 621 706 621 706 632 c 0
 706 651 689 662 659 662 c 2x88
 648 662 l 2
 642 661 637 661 635 661 c 0
 628 661 624 664 624 669 c 0x44
 624 670 624 672 625 675 c 1
 627 684 l 1
 629 691 634 694 643 694 c 0x88
 653 694 681 693 702 691 c 0
 719 690 731 689 736 689 c 0
 742 689 746 689 802 693 c 0
 811 694 818 694 824 694 c 0
 829 694 833 692 833 689 c 1
 832 681 l 1
 832 672 l 1
 831 665 829 663 821 662 c 0
 762 661 757 655 730 562 c 2
 595 95 l 1x44
EndSplineSet
KernsSLIF: 309 -16 0 0 117 -16 0 0 249 1 0 0 303 -9 0 0 304 -9 0 0 111 -9 0 0 295 -6 0 0 101 -6 0 0 44 -3 0 0 292 -14 0 0 241 -14 0 0 287 -14 0 0 288 -14 0 0 97 -14 0 0 273 -13 0 0 274 -13 0 0 79 -13 0 0 71 -23 0 0 262 -17 0 0 67 -17 0 0 261 13 0 0 256 13 0 0 257 13 0 0 225 16 0 0 65 13 0 0
EndChar
StartChar: O
Encoding: 79 79 48
Width: 793
Flags: MW
HStem: -20 39<323.5 425.5> 669 39<438 541>
VStem: 72 101<207.5 334> 692 102<348.5 481.5>
Fore
475 708 m 0
 664 708 794 577 794 386 c 0
 794 164 612 -20 392 -20 c 0
 200 -20 72 110 72 305 c 0
 72 525 255 708 475 708 c 0
476 669 m 0
 400 669 328 634 277 573 c 0
 214 498 173 383 173 285 c 0
 173 122 257 19 390 19 c 0
 461 19 526 50 579 107 c 0
 651 186 692 294 692 403 c 0
 692 563 606 669 476 669 c 0
EndSplineSet
KernsSLIF: 89 -57 0 0 88 -51 0 0 87 -76 0 0 86 -71 0 0 84 -46 0 0 261 -35 0 0 256 -35 0 0 257 -35 0 0 225 -32 0 0 65 -35 0 0
EndChar
StartChar: P
Encoding: 80 80 49
Width: 553
Flags: W
HStem: -5 20 0 20 297 31<354.5 391> 655 39<343 402>
VStem: 499 92<477.5 566.5>
Fore
276 324 m 1xb8
 292 348 l 1
 313 335 334 328 355 328 c 0
 427 328 499 427 499 528 c 0
 499 605 444 655 360 655 c 0
 322 655 317 651 306 608 c 1
 180 132 l 2
 173 105 169 81 169 67 c 0
 169 42 187 31 230 28 c 0
 247 27 250 26 250 19 c 0
 250 17 249 13 248 12 c 1
 246 6 l 1
 242 -2 238 -5 228 -5 c 0xb8
 226 -5 217 -5 211 -4 c 0
 161 -1 133 0 100 0 c 0x48
 69 0 38 -1 12 -4 c 0
 6 -5 0 -5 -2 -5 c 0
 -10 -5 -13 -3 -13 3 c 0
 -13 4 -13 7 -12 9 c 1
 -11 17 l 1
 -9 27 -7 28 7 29 c 0
 58 29 72 46 96 132 c 1
 212 568 l 1
 217 588 223 619 223 628 c 0
 223 645 211 652 182 652 c 0
 176 652 170 652 165 651 c 0
 158 650 152 649 150 649 c 0
 144 649 142 651 141 661 c 2
 140 670 l 1
 140 673 l 1
 139 680 144 683 157 685 c 0
 179 687 327 694 359 694 c 0
 511 694 591 635 591 522 c 0
 591 398 494 297 375 297 c 0
 334 297 302 306 276 324 c 1xb8
EndSplineSet
KernsSLIF: 46 -89 0 0 249 -25 0 0 250 -22 0 0 303 -27 0 0 304 -27 0 0 111 -27 0 0 45 -37 0 0 295 -27 0 0 101 -27 0 0 44 -95 0 0 292 -64 0 0 241 -64 0 0 287 -53 0 0 288 -64 0 0 97 -64 0 0 74 -35 0 0 261 -78 0 0 256 -78 0 0 257 -78 0 0 225 -87 0 0 65 -78 0 0
EndChar
StartChar: Q
Encoding: 81 81 50
Width: 793
Flags: MW
HStem: -245 39 669 39<476 476>
VStem: 74 101 690 102
Fore
1630 -263 m 0
 1630 -269 1628 -270 1594 -289 c 0
 1546 -316 1504 -339 1429 -341 c 2
 1355 -343 l 2
 1278 -345 1188 -335 1083 -312 c 0
 996 -293 926 -274 874 -256 c 0
 716 -200 579 -129 390 -20 c 1
 106 2 78 200 75 300 c 1
 80 528 252 710 475 708 c 0
 661 706 800 555 792 386 c 0
 778 102 566 16 510 -8 c 1
 510 -17 533 -33 582 -60 c 0
 771 -163 959 -228 1126 -268 c 0
 1229 -293 1333 -305 1410 -305 c 0
 1459 -305 1489 -301 1538 -283 c 2
 1616 -254 l 1
 1625 -254 1630 -257 1630 -263 c 0
476 669 m 0
 401 669 329 634 279 573 c 0
 216 498 175 383 175 285 c 0
 175 122 258 19 390 19 c 0
 461 19 526 50 578 107 c 0
 649 186 690 295 690 403 c 0
 690 563 605 669 476 669 c 0
EndSplineSet
EndChar
StartChar: R
Encoding: 82 82 51
Width: 682
Flags: W
HStem: -6 20 0 20 662 32<368 417.5>
VStem: 511 97<517.5 578.5>
Fore
620 28 m 1xb0
 614 -4 l 1
 552 -4 l 2
 465 -4 461 -1 431 75 c 2
 352 273 l 2
 328 332 316 342 264 342 c 2
 241 342 l 1
 181 132 l 2
 173 105 168 79 168 66 c 0
 168 44 187 30 221 28 c 0
 240 26 241 26 241 21 c 0
 241 18 240 14 239 12 c 2
 237 6 l 1
 233 -3 229 -6 222 -6 c 0xb0
 218 -6 213 -6 208 -5 c 0
 185 -3 126 0 92 0 c 0x50
 63 0 56 0 11 -5 c 0
 5 -6 -5 -6 -14 -6 c 0
 -24 -6 -27 -4 -27 3 c 0
 -27 5 -27 7 -26 9 c 1
 -25 17 l 1
 -23 27 -20 29 -6 29 c 0
 60 30 70 41 98 132 c 1
 214 536 l 2
 228 585 233 607 233 623 c 0
 233 646 223 652 179 656 c 2
 151 658 l 2
 142 659 141 659 141 663 c 2
 141 668 l 1
 142 677 l 1
 143 682 144 684 146 686 c 1
 154 687 l 1
 179 688 l 1
 330 693 l 2
 351 694 351 694 385 694 c 0
 526 694 608 640 608 548 c 0
 608 487 572 432 510 399 c 0
 477 381 449 371 400 357 c 1
 422 336 441 297 481 189 c 1
 527 54 544 34 620 28 c 1xb0
250 375 m 1
 282 375 l 2
 356 375 397 386 444 417 c 0
 486 445 511 492 511 543 c 0
 511 614 457 662 378 662 c 0
 357 662 342 657 335 649 c 0
 329 643 329 643 319 607 c 1
 250 375 l 1
EndSplineSet
KernsSLIF: 121 -72 0 0 309 -12 0 0 310 -13 0 0 117 -12 0 0 250 -27 0 0 303 -32 0 0 304 -32 0 0 111 -32 0 0 45 -56 0 0 295 -16 0 0 101 -16 0 0 292 4 0 0 241 4 0 0 287 4 0 0 288 4 0 0 97 4 0 0 89 -53 0 0 87 -86 0 0 86 -86 0 0 279 -68 0 0 85 -68 0 0 84 -55 0 0 273 -58 0 0 274 -58 0 0 234 -66 0 0 79 -58 0 0 71 -67 0 0 262 -62 0 0 67 -62 0 0
EndChar
StartChar: S
Encoding: 83 83 52
Width: 461
Flags: MW
HStem: -20 33<156.5 224.5> 676 32<302.5 358>
VStem: 128 79<516 564.5> 329 84<116 165>
Fore
450 543 m 1
 421 551 l 1
 429 581 430 590 430 603 c 0
 430 642 386 676 336 676 c 0
 269 676 207 612 207 543 c 0
 207 489 235 443 327 341 c 0
 396 266 413 233 413 174 c 0
 413 58 322 -20 189 -20 c 0
 116 -20 20 11 20 34 c 0
 20 39 20 40 38 78 c 1
 63 142 l 1
 66 148 68 151 70 151 c 2
 70 151 72 151 74 150 c 2
 85 146 l 2
 92 144 93 143 93 140 c 0
 93 138 92 132 89 122 c 0
 84 105 81 90 81 80 c 0
 81 44 129 13 184 13 c 0
 265 13 329 70 329 143 c 0
 329 187 318 207 251 286 c 0
 151 403 128 444 128 510 c 0
 128 619 219 708 332 708 c 0
 384 708 436 691 479 661 c 0
 485 657 488 653 488 649 c 0
 488 647 487 643 485 638 c 0
 480 630 466 594 456 563 c 2
 450 543 l 1
EndSplineSet
KernsSLIF: 116 -12 0 0 89 1 0 0 87 -22 0 0 86 -22 0 0 84 -10 0 0 261 6 0 0 256 6 0 0 257 6 0 0 225 10 0 0 65 6 0 0
EndChar
StartChar: T
Encoding: 84 84 53
Width: 608
Flags: W
HStem: -5 20 0 20
Fore
261 695 m 2x80
 614 695 l 2
 672 695 688 702 711 735 c 0
 714 738 715 739 717 739 c 0
 730 739 739 735 739 730 c 0
 739 727 739 727 734 708 c 1
 707 586 l 2
 702 563 702 563 692 563 c 0
 678 563 670 567 670 573 c 0
 670 576 670 579 671 583 c 0
 672 587 672 591 672 599 c 0
 672 642 650 656 581 656 c 2
 556 656 l 2
 499 656 496 654 482 607 c 1
 345 133 l 2
 337 106 332 80 332 66 c 0
 332 42 350 31 392 28 c 0
 409 27 412 26 412 20 c 0x40
 412 18 411 15 410 12 c 2
 407 6 l 1
 404 -2 399 -5 390 -5 c 0
 388 -5 379 -5 372 -4 c 0
 321 -1 298 0 266 0 c 0
 233 0 231 0 170 -4 c 2
 144 -5 l 2
 135 -5 132 -3 132 3 c 0
 132 6 132 7 133 9 c 1
 134 17 l 1
 136 27 139 29 153 29 c 0
 218 30 230 41 258 133 c 1
 393 600 l 1
 404 636 404 636 404 642 c 0
 404 655 400 656 339 656 c 2
 317 656 l 2
 218 656 175 648 159 625 c 0
 157 622 139 593 136 588 c 0
 135 585 133 584 130 584 c 2
 123 584 l 1
 116 585 l 2
 108 586 106 587 106 591 c 0
 106 593 106 594 108 599 c 2
 112 610 l 1
 146 719 l 1
 154 741 154 741 157 741 c 0
 159 741 159 741 165 740 c 2
 171 739 l 2
 178 738 180 737 180 731 c 0
 183 700 194 695 261 695 c 2x80
EndSplineSet
KernsSLIF: 121 -79 0 0 119 -86 0 0 118 -85 0 0 117 -79 0 0 59 -37 0 0 115 -62 0 0 114 -83 0 0 46 -61 0 0 249 -53 0 0 111 -73 0 0 106 6 0 0 105 -1 0 0 45 -61 0 0 172 -109 0 0 171 -89 0 0 103 -74 0 0 101 -71 0 0 44 -67 0 0 58 -37 0 0 99 -75 0 0 241 -63 0 0 97 -63 0 0 89 52 0 0 87 25 0 0 86 24 0 0 83 13 0 0 277 -2 0 0 233 -1 0 0 275 -2 0 0 273 -2 0 0 276 -2 0 0 274 -2 0 0 234 -14 0 0 79 -2 0 0 74 24 0 0 71 -12 0 0 67 -7 0 0 260 -37 0 0 261 -37 0 0 258 -37 0 0 256 -37 0 0 259 -37 0 0 257 -37 0 0 225 -33 0 0 65 -37 0 0
EndChar
StartChar: U
Encoding: 85 85 54
Width: 756
Flags: W
HStem: -20 45<317.5 388> 669 20 674 20<163 177 411 423 636 647 817.5 825.5>
VStem: 111 92<110.5 144.5>
Fore
123 211 m 1xb0
 224 585 l 2
 229 604 232 619 232 628 c 0
 232 652 215 661 167 660 c 0
 152 660 148 661 149 668 c 1
 150 672 l 1
 151 682 l 1
 153 693 155 694 171 694 c 0x30
 183 694 224 692 249 691 c 0
 273 690 290 689 302 689 c 0xd0
 312 689 328 690 349 691 c 0
 381 693 404 694 418 694 c 0x30
 428 694 431 691 430 683 c 1
 429 669 l 1
 429 661 427 660 419 660 c 0
 344 660 334 652 310 566 c 2
 217 237 l 1
 210 211 203 167 203 146 c 0
 203 75 270 25 365 25 c 0
 484 25 563 101 607 262 c 1
 683 532 l 1
 694 569 702 611 702 627 c 0
 702 649 693 656 661 658 c 0
 642 660 642 660 629 661 c 0
 624 661 622 664 622 669 c 0xd0
 622 670 622 672 623 673 c 1
 626 683 l 1
 628 692 631 694 641 694 c 0x30
 653 694 681 693 703 691 c 0
 720 690 732 689 737 689 c 0xd0
 743 689 755 690 771 691 c 0
 791 693 814 694 821 694 c 0
 830 694 834 691 834 686 c 2
 834 683 l 1
 833 672 l 1
 833 667 832 665 828 663 c 2
 823 662 l 1
 797 658 l 1
 765 650 756 636 739 569 c 1
 659 285 l 1
 630 178 600 114 556 64 c 0
 508 10 433 -20 343 -20 c 0
 206 -20 111 43 111 135 c 0
 111 154 116 183 123 211 c 1xb0
EndSplineSet
KernsSLIF: 114 -21 0 0 46 -24 0 0 112 -14 0 0 110 -28 0 0 109 -24 0 0 44 -27 0 0 260 -56 0 0 261 -56 0 0 256 -56 0 0 259 -56 0 0 257 -56 0 0 225 -53 0 0 65 -56 0 0
EndChar
StartChar: V
Encoding: 86 86 55
Width: 719
Flags: W
HStem: -19 20 669 20<248.5 255 766.5 770> 674 20
Fore
367 -19 m 1xa0
 334 -19 l 1
 212 605 l 1
 203 655 200 658 147 662 c 0
 141 662 137 664 137 668 c 1
 138 675 l 1
 140 685 l 2
 141 691 145 694 152 694 c 0xa0
 156 694 157 694 208 691 c 0
 230 690 246 689 251 689 c 0x40
 259 689 274 690 294 691 c 0
 319 693 353 694 365 694 c 0
 372 694 375 692 375 686 c 2
 375 682 l 1
 373 673 l 1
 371 666 371 666 369 664 c 0
 365 662 365 662 340 661 c 0
 308 661 294 651 294 627 c 0
 294 619 296 602 301 578 c 1
 393 100 l 1
 665 527 l 1
 718 609 722 617 722 639 c 0
 722 657 711 661 662 662 c 0
 655 663 653 664 652 674 c 1
 652 682 l 1
 651 684 l 2
 649 690 655 694 664 694 c 0xa0
 675 694 675 694 727 691 c 0
 749 690 765 689 768 689 c 0x40
 772 689 786 690 803 691 c 0
 818 693 843 694 849 694 c 0
 854 694 858 691 857 687 c 1
 856 685 l 1
 855 675 l 1
 854 667 853 666 847 664 c 0
 813 656 797 641 754 579 c 1
 367 -19 l 1xa0
EndSplineSet
KernsSLIF: 121 -31 0 0 117 -48 0 0 59 -20 0 0 114 -37 0 0 46 -70 0 0 249 -49 0 0 111 -57 0 0 105 7 0 0 45 -40 0 0 172 -80 0 0 171 -67 0 0 103 -43 0 0 101 -49 0 0 44 -71 0 0 58 -20 0 0 241 -62 0 0 97 -62 0 0 84 40 0 0 83 2 0 0 277 -29 0 0 233 -28 0 0 275 -29 0 0 273 -29 0 0 276 -29 0 0 274 -29 0 0 79 -29 0 0 71 -37 0 0 67 -34 0 0 260 -76 0 0 261 -76 0 0 258 -76 0 0 256 -76 0 0 259 -76 0 0 257 -76 0 0 225 -95 0 0 65 -76 0 0
EndChar
StartChar: W
Encoding: 87 87 56
Width: 959
Flags: W
HStem: -19 20 669 20<260.5 272.5 526 539 738 743.5 993 1000.5> 674 20 675 20
Fore
542 360 m 1xa0
 493 587 l 1
 482 647 467 662 419 661 c 0
 411 661 410 662 410 673 c 1
 409 684 l 1
 408 691 413 694 422 694 c 0xa0
 429 694 429 694 481 691 c 0
 504 690 522 689 530 689 c 0x40
 548 689 568 690 593 693 c 2
 612 694 l 2xa0
 618 694 621 692 621 685 c 2
 621 676 l 2
 621 665 618 663 602 662 c 0
 581 660 570 652 570 638 c 0
 570 633 570 633 574 603 c 1
 600 456 l 1
 674 601 l 2
 687 627 692 640 692 647 c 0
 692 658 686 661 659 663 c 0
 651 664 651 664 651 675 c 2x10
 651 685 l 1
 652 692 654 694 661 694 c 0xa0
 668 694 668 694 707 691 c 0
 723 690 735 689 741 689 c 0x40
 746 689 750 689 804 693 c 0
 812 694 820 694 823 694 c 0
 829 694 830 693 831 685 c 1
 831 676 l 2
 831 670 831 668 830 666 c 0
 828 663 827 663 810 661 c 0
 766 657 737 634 704 576 c 1
 613 412 l 1
 674 95 l 1
 927 536 l 2
 961 596 974 625 974 639 c 0
 974 653 963 661 940 661 c 0
 917 661 915 663 915 677 c 1
 916 686 l 1
 917 692 919 694 927 694 c 0xa0
 932 694 943 693 962 691 c 0
 978 690 990 689 996 689 c 0x40
 1005 689 1021 690 1042 693 c 0
 1057 694 1066 695 1077 695 c 0x10
 1093 695 1093 695 1095 684 c 1
 1095 674 l 1
 1094 668 1094 667 1092 665 c 2
 1085 661 l 1
 1063 656 l 2
 1049 653 1039 647 1032 637 c 0
 1028 631 1016 610 994 574 c 1
 652 -19 l 1
 615 -19 l 1
 553 312 l 1
 382 -19 l 1
 343 -19 l 1
 221 568 l 1
 203 653 199 658 146 662 c 0
 140 662 138 665 138 672 c 2
 138 683 l 2
 138 692 140 694 149 694 c 0xa0
 166 694 182 693 225 691 c 0
 243 690 256 689 265 689 c 0x40
 280 689 281 689 331 693 c 0
 338 694 345 694 350 694 c 0
 358 694 363 690 362 685 c 1
 361 683 l 1
 360 677 l 1
 359 663 355 660 335 660 c 0
 308 661 297 654 297 636 c 0
 297 631 297 631 306 575 c 1
 403 98 l 1
 542 360 l 1xa0
EndSplineSet
KernsSLIF: 121 -23 0 0 117 -39 0 0 59 -7 0 0 114 -29 0 0 46 -52 0 0 249 -37 0 0 111 -46 0 0 105 6 0 0 45 -24 0 0 172 -69 0 0 171 -56 0 0 103 -35 0 0 101 -39 0 0 44 -58 0 0 58 -8 0 0 241 -51 0 0 97 -50 0 0 84 40 0 0 83 2 0 0 277 -27 0 0 233 -17 0 0 275 -27 0 0 273 -27 0 0 276 -27 0 0 274 -27 0 0 79 -27 0 0 71 -32 0 0 67 -30 0 0 260 -70 0 0 261 -70 0 0 258 -70 0 0 256 -70 0 0 259 -70 0 0 257 -70 0 0 225 -74 0 0 65 -70 0 0
EndChar
StartChar: X
Encoding: 88 88 57
Width: 701
Flags: W
HStem: -5 20 0 20 669 20<268 280.5 670 680 773 773> 674 20<152 161.5 389 396.5 557.5 565 760 766>
Fore
348 346 m 1xa0
 270 548 l 1
 232 644 217 661 169 661 c 1
 143 663 142 663 142 668 c 1
 143 675 l 1
 146 688 l 2
 147 693 149 694 155 694 c 0x10
 168 694 183 693 222 691 c 0
 244 690 261 689 275 689 c 0x20
 286 689 304 690 326 691 c 0
 356 693 385 694 393 694 c 0
 400 694 402 692 401 684 c 1
 400 673 l 1
 399 666 396 663 388 663 c 0
 347 661 329 653 329 638 c 0
 329 628 334 609 344 584 c 2
 414 404 l 1
 570 570 l 2
 609 612 618 625 618 639 c 0
 618 654 602 662 573 662 c 0
 550 663 548 663 548 671 c 2
 548 677 l 1
 550 686 l 1
 552 692 554 694 561 694 c 0x10
 569 694 569 694 626 691 c 0
 650 690 667 689 673 689 c 0x20
 687 689 692 689 741 693 c 0
 749 694 757 694 763 694 c 0x10
 769 694 773 692 773 689 c 1
 772 685 l 1
 772 675 l 2
 772 668 770 666 761 664 c 0
 710 652 696 643 650 596 c 2
 429 367 l 1
 530 115 l 1
 561 39 573 30 637 27 c 0
 641 26 643 25 643 22 c 0
 643 20 643 18 642 16 c 1
 639 4 l 1
 636 -3 634 -5 626 -5 c 0xa0
 616 -5 615 -5 568 -2 c 0
 546 -1 530 0 516 0 c 0x40
 507 0 435 -3 419 -4 c 0
 408 -5 399 -5 392 -5 c 0xa0
 383 -5 379 -2 379 4 c 0
 379 5 379 7 380 9 c 1
 382 17 l 1
 383 23 384 25 387 26 c 0
 390 28 391 28 413 29 c 0
 445 30 462 38 462 54 c 0
 462 64 462 64 438 123 c 2
 363 305 l 1
 175 110 l 1
 135 67 135 67 135 54 c 0
 135 36 149 29 181 28 c 0
 201 28 208 26 207 20 c 0x40
 207 19 206 16 205 13 c 2
 203 6 l 1
 201 -3 198 -5 188 -5 c 0xa0
 181 -5 181 -5 128 -2 c 0
 105 -1 89 0 83 0 c 0x40
 74 0 69 0 8 -4 c 0
 -1 -5 -10 -5 -14 -5 c 0
 -20 -5 -21 -2 -21 5 c 1
 -20 13 l 1
 -20 18 -19 20 -18 21 c 2
 -13 24 l 2
 -6 26 1 27 7 29 c 0
 32 34 79 67 118 108 c 2
 348 346 l 1xa0
EndSplineSet
KernsSLIF: 121 -86 0 0 117 -10 0 0 111 -34 0 0 45 -56 0 0 101 -18 0 0 97 5 0 0 81 -61 0 0 273 -60 0 0 79 -60 0 0 67 -63 0 0
EndChar
StartChar: Y
Encoding: 89 89 58
Width: 664
Flags: W
HStem: -5 20 0 20 669 20<235 239.5 663 671> 674 20
Fore
238 132 m 1x80
 271 233 l 2
 284 273 290 300 290 318 c 0
 290 341 280 377 265 411 c 2
 192 576 l 2
 158 654 152 659 99 660 c 0
 88 660 84 662 84 668 c 0
 84 671 84 672 85 674 c 1
 87 685 l 1
 89 692 92 694 101 694 c 0x10
 111 694 111 694 184 691 c 0
 213 690 234 689 236 689 c 0x20
 243 689 298 692 313 693 c 0
 322 694 330 694 335 694 c 0
 343 694 348 691 347 685 c 1
 347 682 l 1
 346 671 l 1
 345 665 343 663 339 662 c 0
 335 661 327 660 312 659 c 0
 273 657 258 651 258 637 c 0
 258 632 258 632 271 596 c 1
 354 401 l 1
 366 367 368 363 372 363 c 0
 375 363 375 363 409 398 c 2
 570 560 l 2
 599 589 622 624 622 639 c 0
 622 654 610 658 552 661 c 0
 545 661 541 664 541 668 c 0
 541 669 541 671 542 675 c 2
 544 684 l 1
 545 691 549 694 560 694 c 0x10
 569 694 589 693 622 691 c 0
 643 690 659 689 667 689 c 0x20
 675 689 729 691 783 694 c 0
 790 694 791 693 791 687 c 2
 791 675 l 2
 791 664 786 662 760 661 c 0
 722 658 716 654 670 608 c 2
 413 350 l 2
 393 329 382 316 379 312 c 0
 376 308 374 303 372 296 c 2
 363 263 l 1
 325 132 l 1
 315 100 311 80 311 65 c 0
 311 42 328 31 371 28 c 0
 388 27 391 26 391 20 c 0x50
 391 18 390 15 389 12 c 2
 386 6 l 1
 383 -2 378 -5 369 -5 c 0
 367 -5 358 -5 351 -4 c 0
 299 -1 277 0 238 0 c 0
 202 0 194 0 147 -4 c 2
 124 -5 l 2
 115 -5 113 -3 112 3 c 1
 112 9 l 1
 114 17 l 2
 117 27 120 29 134 29 c 0
 197 31 207 41 238 132 c 1x80
EndSplineSet
KernsSLIF: 118 -98 0 0 117 -111 0 0 59 -67 0 0 46 -102 0 0 112 -101 0 0 249 -91 0 0 111 -107 0 0 105 1 0 0 45 -102 0 0 172 -138 0 0 171 -125 0 0 103 -106 0 0 101 -99 0 0 44 -104 0 0 58 -66 0 0 241 -102 0 0 97 -101 0 0 84 34 0 0 83 -7 0 0 277 -39 0 0 233 -38 0 0 275 -39 0 0 273 -39 0 0 276 -39 0 0 274 -39 0 0 79 -39 0 0 71 -52 0 0 67 -45 0 0 260 -75 0 0 261 -75 0 0 258 -75 0 0 256 -75 0 0 259 -75 0 0 257 -75 0 0 225 -72 0 0 65 -75 0 0
EndChar
StartChar: Z
Encoding: 90 90 59
Width: 627
Flags: W
HStem: -5 20 1 34 655 39<298 487>
Fore
584 119 m 1x60
 544 -5 l 1x80
 507 -3 484 -2 421 -2 c 2
 303 -1 l 2
 256 0 224 1 212 1 c 0x40
 189 1 99 -2 81 -4 c 2
 61 -5 l 2x80
 51 -5 46 -2 46 4 c 0
 46 8 49 13 57 22 c 1
 60 24 64 29 69 38 c 1
 490 625 l 1
 507 646 507 646 507 650 c 0
 507 654 506 655 487 655 c 2
 264 655 l 2
 192 655 185 651 156 597 c 0
 146 579 144 576 140 576 c 0
 139 576 138 576 133 578 c 2
 124 582 l 2
 116 586 116 586 116 589 c 0
 116 592 117 596 121 605 c 0
 130 625 163 726 163 733 c 0
 165 742 167 745 172 745 c 2
 182 745 l 2
 190 745 191 744 194 737 c 0
 207 703 229 694 298 694 c 2
 613 694 l 2
 635 694 639 692 639 685 c 0
 639 679 637 675 626 659 c 2
 208 85 l 2
 201 75 193 65 185 54 c 0
 182 50 180 46 180 43 c 0
 180 36 189 35 258 35 c 0
 376 35 469 45 494 61 c 0
 511 71 537 105 557 142 c 0
 559 146 561 147 564 147 c 0
 566 147 568 147 570 146 c 2
 579 143 l 2
 586 141 588 140 588 137 c 0
 588 135 588 135 584 119 c 1x60
EndSplineSet
KernsSLIF: 121 -29 0 0 118 -29 0 0
EndChar
StartChar: bracketleft
Encoding: 91 91 60
Width: 240
Flags: MW
HStem: 682 32<292.5 312 312 349>
Fore
-73 -151 m 1
 174 688 l 1
 182 714 182 714 210 714 c 2
 357 714 l 2
 370 714 373 713 373 707 c 0
 373 705 373 705 371 700 c 1
 368 690 l 1
 367 683 364 682 349 682 c 2
 312 682 l 2
 273 682 252 678 240 668 c 0
 228 659 226 655 211 604 c 2
 6 -90 l 1
 -2 -114 -4 -120 -4 -125 c 0
 -4 -138 8 -142 43 -142 c 2
 120 -142 l 2
 135 -142 137 -143 137 -148 c 0
 137 -150 137 -151 136 -155 c 1
 133 -163 l 2
 130 -172 130 -172 111 -172 c 2
 -61 -179 l 1
 -71 -179 l 2
 -77 -179 -79 -177 -79 -173 c 0
 -79 -168 -79 -167 -73 -151 c 1
EndSplineSet
EndChar
StartChar: backslash
Encoding: 92 92 61
Width: 498
Flags: W
Fore
367 -34 m 1
 174 697 l 2
 173 701 172 706 172 709 c 0
 172 717 176 720 186 720 c 2
 207 720 l 2
 222 720 224 718 229 700 c 2
 422 -32 l 1
 424 -38 425 -43 425 -47 c 0
 425 -54 421 -57 412 -57 c 2
 385 -57 l 2
 374 -57 372 -55 367 -34 c 1
EndSplineSet
EndChar
StartChar: bracketright
Encoding: 93 93 62
Width: 240
Flags: MW
HStem: -179 32<-107 -70 -70 -51> 694 20<302 313 313 316>
Fore
315 686 m 1
 67 -153 l 1
 60 -178 59 -179 32 -179 c 2
 -115 -179 l 2
 -128 -179 -131 -178 -131 -172 c 0
 -131 -170 -131 -170 -129 -165 c 1
 -127 -155 l 1
 -125 -148 -123 -147 -107 -147 c 2
 -70 -147 l 2
 -32 -147 -10 -143 2 -133 c 0
 13 -124 16 -119 31 -69 c 2
 236 625 l 1
 245 651 246 654 246 660 c 0
 246 673 234 677 199 677 c 2
 122 677 l 2
 106 677 105 678 105 684 c 0
 105 685 105 685 106 689 c 2
 109 698 l 2
 112 707 113 707 131 707 c 2
 302 714 l 1
 313 714 l 2
 319 714 321 712 321 708 c 0
 321 703 321 702 315 686 c 1
EndSplineSet
EndChar
StartChar: asciicircum
Encoding: 94 94 63
Width: 498
Flags: W
Fore
451 530 m 1
 451 485 l 1
 370 493 310 521 263 573 c 0
 259 578 254 582 250 586 c 1
 245 582 241 578 236 573 c 0
 188 520 130 493 48 485 c 1
 48 530 l 1
 139 576 215 673 220 750 c 1
 279 750 l 1
 284 674 360 577 451 530 c 1
EndSplineSet
EndChar
StartChar: underscore
Encoding: 95 95 64
Width: 498
Flags: MW
HStem: -250 51<-1 499>
Fore
-1 -199 m 1
 499 -199 l 1
 499 -250 l 1
 -1 -250 l 1
 -1 -199 l 1
EndSplineSet
EndChar
StartChar: quoteleft
Encoding: 96 8216 65
Width: 240
Flags: MW
HStem: 410 20<216.5 252.5> 675 20
VStem: 152 64<561.5 571>
Fore
321 695 m 1
 325 685 326 678 326 669 c 0
 326 668 326 665 325 662 c 1
 256 647 216 613 216 567 c 0
 216 556 221 543 228 535 c 0
 235 528 235 528 266 508 c 0
 281 499 288 489 288 476 c 0
 288 451 266 430 239 430 c 0
 194 430 152 477 152 528 c 0
 152 614 226 687 321 695 c 1
EndSplineSet
KernsSLIF: 89 36 1 0 87 9 1 0 86 10 1 0 84 17 1 0 261 -54 1 0 256 -54 1 0 257 -54 1 0 225 -106 1 0 65 -54 1 0
EndChar
StartChar: a
Encoding: 97 97 66
Width: 461
Flags: MW
HStem: -17 69 425 20<395 411.5>
VStem: -2 74<81.5 89.5> 250 70
Fore
420 143 m 1
 438 128 l 1
 436 119 l 1
 433 108 433 108 368 29 c 0
 346 1 314 -17 288 -17 c 0
 265 -17 250 3 250 32 c 0
 250 63 253 76 282 186 c 1
 174 35 113 -17 45 -17 c 0
 16 -17 -2 10 -2 55 c 0
 -2 124 46 215 124 294 c 0
 197 367 276 412 333 412 c 0
 342 412 348 411 364 408 c 1
 370 420 l 2
 380 440 386 445 404 445 c 0
 419 445 425 442 425 434 c 0
 425 431 424 426 422 422 c 0
 365 288 320 139 320 88 c 0
 320 72 326 63 336 63 c 0
 348 63 359 69 377 87 c 0
 392 101 415 130 417 136 c 2
 420 143 l 1
290 353 m 0
 239 356 168 301 119 222 c 0
 91 177 72 126 72 94 c 0
 72 69 83 52 99 52 c 0
 136 52 194 104 256 194 c 0
 293 247 323 306 323 328 c 0
 323 343 311 352 290 353 c 0
EndSplineSet
KernsSLIF: 121 -15 0 0 119 -15 0 0 118 -20 0 0 39 -20 0 0 106 -2 0 0
EndChar
StartChar: b
Encoding: 98 98 67
Width: 479
Flags: MW
HStem: -17 45<149.5 182.5> 422 20<381.5 440.5>
VStem: 41 72 420 78<315 356>
Fore
155 727 m 1
 158 750 l 1
 183 754 l 2
 200 756 215 758 229 760 c 0
 246 764 262 768 278 771 c 0
 293 775 297 775 303 775 c 2
 312 775 l 2
 318 775 322 772 322 767 c 0
 322 765 321 761 319 756 c 0
 317 751 315 745 313 738 c 2
 296 687 l 1
 153 222 l 1
 269 379 345 442 418 442 c 0
 463 442 498 399 498 343 c 0
 498 195 280 -17 126 -17 c 0
 81 -17 41 12 41 43 c 0
 41 54 41 54 71 156 c 1
 115 297 l 1
 139 377 173 497 190 568 c 0
 196 592 202 616 209 641 c 0
 214 660 217 679 217 691 c 0
 217 714 205 721 155 727 c 1
387 392 m 0
 343 396 254 317 176 204 c 0
 132 141 113 103 113 79 c 0
 113 49 134 28 165 28 c 0
 200 28 248 59 295 112 c 0
 370 196 420 288 420 342 c 0
 420 370 407 390 387 392 c 0
EndSplineSet
KernsSLIF: 121 34 0 0 119 26 0 0 118 26 0 0
EndChar
StartChar: c
Encoding: 99 99 68
Width: 369
Flags: MW
HStem: -17 57<168 196> 409 33<257.5 283.5>
VStem: 30 79<117 179>
Fore
290 86 m 1
 307 71 l 1
 267 8 226 -17 166 -17 c 0
 84 -17 30 42 30 131 c 0
 30 291 151 442 279 442 c 0
 339 442 383 415 383 378 c 0
 383 355 369 340 346 340 c 0
 326 340 314 355 313 381 c 0
 313 395 312 399 307 402 c 0
 301 406 289 409 278 409 c 0
 237 409 196 381 166 333 c 0
 131 277 109 207 109 151 c 0
 109 83 142 40 194 40 c 0
 229 40 258 54 290 86 c 1
EndSplineSet
KernsSLIF: 107 -9 0 0 104 -6 0 0
EndChar
StartChar: d
Encoding: 100 100 69
Width: 498
Flags: MW
HStem: -17 70<125.5 130> 422 20<225 309.5>
VStem: 12 80<91.5 138>
Fore
374 719 m 1
 377 742 l 1
 395 744 465 759 494 767 c 0
 509 772 512 773 516 773 c 0
 517 773 517 773 523 772 c 2
 529 771 l 2
 534 770 536 769 536 765 c 0
 536 761 535 756 533 748 c 2
 369 144 l 1
 357 94 357 94 357 85 c 0
 357 74 366 63 376 63 c 0
 395 63 412 80 453 141 c 2
 467 161 l 1
 489 149 l 1
 466 111 l 2
 417 29 366 -17 325 -17 c 0
 301 -17 284 2 284 28 c 0
 284 52 288 67 317 166 c 1
 326 195 l 1
 228 42 164 -17 96 -17 c 0
 43 -17 12 25 12 98 c 0
 12 268 155 442 295 442 c 0
 324 442 343 436 375 416 c 1
 424 616 l 1
 437 671 437 671 437 684 c 0
 437 708 423 719 393 719 c 2
 374 719 l 1
282 409 m 0
 248 411 206 383 176 338 c 0
 126 262 92 169 92 107 c 0
 92 76 112 53 139 53 c 0
 166 53 193 72 232 116 c 0
 291 184 347 293 347 340 c 0
 347 377 319 407 282 409 c 0
EndSplineSet
EndChar
StartChar: e
Encoding: 101 101 70
Width: 369
Flags: MW
HStem: -17 57<158 181> 413 29<243 277.5>
VStem: 23 79<111.5 152.5> 308 69<336 377>
Fore
300 97 m 1
 320 81 l 1
 309 65 l 2
 272 14 212 -17 150 -17 c 0
 70 -17 23 37 23 128 c 0
 23 210 56 298 112 363 c 0
 156 415 212 442 274 442 c 0
 337 442 377 411 377 362 c 0
 377 275 278 219 106 207 c 1
 103 175 102 162 102 143 c 0
 102 80 133 40 183 40 c 0
 221 40 260 57 287 84 c 2
 300 97 l 1
112 231 m 1
 118 232 119 232 126 232 c 0
 154 234 182 240 207 250 c 0
 275 276 308 312 308 360 c 0
 308 394 292 413 263 413 c 0
 204 413 151 349 112 231 c 1
EndSplineSet
KernsSLIF: 121 24 0 0 120 19 0 0 119 18 0 0 118 18 0 0 116 5 0 0 39 11 0 0
EndChar
StartChar: f
Encoding: 102 102 71
Width: 276
Flags: MW
HStem: -266 58 389 39<75 131 214 284 284 285> 669 20 734 39<377 380>
Fore
131 389 m 1
 64 389 l 2
 51 389 48 390 48 394 c 0
 48 395 48 397 49 399 c 2
 51 404 l 1
 55 418 l 2
 58 427 59 428 75 428 c 2
 142 428 l 1
 155 477 l 2
 179 569 216 649 260 702 c 0
 296 745 351 773 403 773 c 0
 446 773 480 747 480 714 c 0
 480 689 461 669 437 669 c 0
 422 669 414 676 409 695 c 0
 401 726 392 734 368 734 c 0
 317 734 283 677 240 525 c 1
 214 428 l 1
 300 428 l 2
 310 428 313 427 313 424 c 0
 313 423 313 422 312 420 c 2
 310 415 l 1
 306 400 l 2
 303 390 297 387 285 389 c 2
 284 389 l 1
 204 389 l 1
 125 96 l 2
 94 -18 54 -115 9 -184 c 0
 -24 -234 -69 -266 -108 -266 c 0
 -135 -266 -155 -248 -155 -224 c 0
 -155 -202 -140 -186 -119 -186 c 0
 -107 -186 -100 -189 -89 -197 c 0
 -77 -206 -72 -208 -65 -208 c 0
 -33 -208 -2 -136 46 53 c 2
 131 389 l 1
EndSplineSet
KernsSLIF: 116 19 0 0 115 3 0 0 39 18 0 0 249 -13 0 0 250 -10 0 0 303 -14 0 0 304 -14 0 0 111 -14 0 0 108 49 0 0 106 45 0 0 105 37 0 0 102 27 0 0 295 -14 0 0 101 -14 0 0 292 3 0 0 241 -31 0 0 287 -30 0 0 288 -30 0 0 97 -30 0 0
EndChar
StartChar: g
Encoding: 103 103 72
Width: 424
Flags: W
HStem: -266 39<148.5 228.5> -12 20 117 33<189 217> 409 33<212.5 249>
VStem: -23 64<-152 -113.5> 45 70<230.5 253> 310 69<274.5 309> 313 63<-177 -137>
Fore
444 411 m 1xfd
 429 365 l 1
 365 364 l 1
 376 338 379 322 379 296 c 0xf6
 379 248 363 210 328 176 c 0
 291 139 241 117 193 117 c 0
 185 117 176 118 161 120 c 1
 142 98 137 90 137 79 c 0
 137 62 160 44 233 6 c 0
 349 -55 376 -82 376 -139 c 0
 376 -216 301 -266 186 -266 c 0
 68 -266 -23 -206 -23 -128 c 0
 -23 -99 -10 -70 11 -50 c 0
 22 -39 42 -28 87 -5 c 0
 93 -2 99 1 104 4 c 1
 80 19 69 33 69 48 c 0
 69 63 89 88 133 127 c 1
 73 152 45 196 45 265 c 0
 45 369 122 442 233 442 c 0
 265 442 293 436 314 424 c 0
 343 409 343 409 362 409 c 2
 396 410 l 1
 444 411 l 1xfd
232 409 m 0
 193 409 163 391 144 356 c 0
 126 321 115 276 115 230 c 0
 115 184 146 150 188 150 c 0
 254 150 310 229 310 320 c 0
 310 375 280 409 232 409 c 0
132 -12 m 1xf9
 127 -15 127 -15 122 -17 c 0
 68 -44 41 -79 41 -121 c 0
 41 -183 104 -227 193 -227 c 0
 264 -227 313 -198 313 -156 c 0
 313 -118 263 -79 132 -12 c 1xf9
EndSplineSet
KernsSLIF: 114 10 0 0 303 -14 0 0 304 -14 0 0 108 -19 0 0 295 -11 0 0 101 -11 0 0 292 -22 0 0 241 -23 0 0 287 -22 0 0 97 -22 0 0
EndChar
StartChar: h
Encoding: 104 104 73
Width: 479
Flags: W
HStem: -18 20 -17 63 382 60<358 363.5>
VStem: 382 79<304 346.5>
Fore
132 720 m 1xb0
 139 744 l 1
 191 752 215 757 256 769 c 0
 267 772 270 773 272 773 c 2
 279 773 l 1
 287 772 l 2
 293 771 296 768 296 764 c 0
 296 761 295 757 294 753 c 0
 288 735 275 690 259 635 c 0
 252 611 243 583 235 550 c 1
 126 198 l 1
 242 371 320 442 396 442 c 0
 435 442 461 403 461 344 c 0
 461 264 423 157 364 69 c 0
 328 16 283 -17 246 -17 c 0
 221 -17 201 0 201 20 c 0
 201 44 217 62 238 62 c 0
 245 62 251 60 258 56 c 0
 273 47 275 46 280 46 c 0x70
 296 46 312 64 329 99 c 0
 355 156 382 274 382 331 c 0
 382 362 372 382 355 382 c 0
 318 382 277 351 220 278 c 0
 158 198 102 103 79 38 c 0
 62 -11 57 -18 41 -18 c 0
 25 -18 8 -5 8 8 c 0
 8 15 10 24 13 34 c 0
 18 48 23 63 26 77 c 0
 32 95 37 113 42 133 c 1
 125 401 l 1
 156 503 194 654 194 679 c 0
 194 706 179 716 132 720 c 1xb0
EndSplineSet
KernsSLIF: 121 18 0 0 39 -1 0 0
EndChar
StartChar: i
Encoding: 105 105 74
Width: 295
Flags: MW
HStem: -17 69 373 69 622 91<227 252>
VStem: 49 84 194 91<655.5 680>
Fore
92 331 m 1
 64 347 l 1
 117 409 165 442 204 442 c 0
 226 442 246 424 246 404 c 0
 246 384 234 351 159 154 c 0
 137 96 133 83 133 74 c 0
 133 63 144 52 156 52 c 0
 177 52 208 79 248 131 c 2
 260 146 l 1
 279 127 l 1
 264 106 l 2
 213 35 143 -17 96 -17 c 0
 69 -17 49 1 49 26 c 0
 49 44 50 47 71 102 c 0
 90 149 138 277 154 321 c 0
 160 335 163 348 163 356 c 0
 163 364 154 373 145 373 c 0
 133 373 114 358 92 331 c 1
239 713 m 0
 265 713 285 693 285 667 c 0
 285 642 265 622 239 622 c 0
 215 622 194 643 194 668 c 0
 194 692 214 713 239 713 c 0
EndSplineSet
KernsSLIF: 84 -32 0 0
EndChar
StartChar: j
Encoding: 106 106 75
Width: 240
Flags: W
HStem: -266 56 422 20<150.5 179> 624 91<211.5 235>
VStem: 127 81 178 91<657.5 681.5>
Fore
-11 -146 m 1xf0
 94 213 l 1
 98 232 102 249 107 264 c 0
 110 277 114 290 117 302 c 0
 125 330 127 342 127 353 c 0
 127 363 120 371 111 371 c 0
 98 371 92 367 67 344 c 2
 48 325 l 2
 46 322 44 321 42 321 c 1
 42 321 41 322 37 325 c 1
 31 332 l 2
 30 333 27 338 27 339 c 0
 27 341 37 353 48 365 c 0
 97 417 135 442 166 442 c 0
 192 442 208 425 208 399 c 0
 208 373 201 338 184 282 c 2
 89 -29 l 2
 45 -173 -21 -266 -79 -266 c 0
 -97 -266 -110 -251 -110 -232 c 0
 -110 -210 -97 -191 -83 -191 c 0
 -77 -191 -74 -193 -57 -205 c 0
 -53 -208 -49 -210 -46 -210 c 0
 -33 -210 -25 -196 -11 -146 c 1xf0
224 715 m 0xe8
 249 715 269 695 269 670 c 0
 269 645 248 624 222 624 c 0
 198 624 178 644 178 669 c 0
 178 694 199 715 224 715 c 0xe8
EndSplineSet
EndChar
StartChar: k
Encoding: 107 107 76
Width: 498
Flags: MW
HStem: -17 57 389 53<342.5 367>
VStem: 406 73<331.5 352.5>
Fore
135 725 m 1
 140 749 l 1
 188 757 214 762 247 772 c 0
 263 777 269 778 274 778 c 2
 280 778 l 1
 287 777 l 2
 292 776 294 775 294 772 c 0
 294 770 293 767 292 764 c 0
 286 743 279 723 273 701 c 1
 153 293 l 1
 238 398 305 442 380 442 c 0
 436 442 479 402 479 349 c 0
 479 314 459 283 421 257 c 0
 376 228 328 216 240 212 c 1
 256 196 269 172 287 124 c 0
 313 56 326 40 357 40 c 0
 381 40 421 66 446 97 c 2
 454 108 l 1
 469 90 l 1
 462 78 l 2
 455 67 445 55 433 42 c 0
 394 2 358 -17 320 -17 c 0
 270 -17 247 10 215 105 c 0
 192 176 169 208 133 221 c 1
 75 19 l 1
 66 -10 61 -17 47 -17 c 0
 25 -17 10 -8 10 6 c 0
 10 15 10 15 21 52 c 1
 169 583 l 1
 183 632 192 673 192 687 c 0
 192 710 177 720 135 725 c 1
144 245 m 1
 199 240 202 240 225 240 c 0
 332 240 406 280 406 337 c 0
 406 368 383 389 351 389 c 0
 292 389 220 339 144 245 c 1
EndSplineSet
KernsSLIF: 309 -2 0 0 117 -2 0 0 115 17 0 0 46 15 0 0 303 -2 0 0 304 -2 0 0 111 -2 0 0 45 -14 0 0 103 -1 0 0 295 7 0 0 101 7 0 0 44 11 0 0 292 20 0 0 241 19 0 0 287 20 0 0 288 20 0 0 97 20 0 0
EndChar
StartChar: l
Encoding: 108 108 77
Width: 276
Flags: MW
HStem: -17 75
Fore
230 137 m 1
 248 119 l 1
 236 104 l 2
 215 79 178 43 149 21 c 0
 114 -7 92 -17 67 -17 c 0
 46 -17 25 3 25 23 c 0
 25 34 25 34 41 93 c 1
 184 601 l 1
 193 631 200 667 200 679 c 0
 200 704 180 718 140 723 c 1
 141 733 142 738 145 745 c 1
 151 746 l 1
 201 755 l 2
 208 756 243 765 256 769 c 0
 270 773 273 774 278 774 c 0
 280 774 280 774 285 773 c 2
 294 773 l 2
 301 772 303 771 303 767 c 0
 303 766 303 766 300 755 c 2
 125 151 l 2
 114 112 109 92 109 80 c 0
 109 67 118 58 131 58 c 0
 149 58 168 71 206 111 c 2
 230 137 l 1
EndSplineSet
KernsSLIF: 121 -26 0 0 118 -29 0 0
EndChar
StartChar: m
Encoding: 109 109 78
Width: 811
Flags: W
HStem: -17 20 361 80 388 53 388 54
VStem: 148 57 401 56 680 70<362.5 363>
Fore
447 313 m 2xae
 439 275 l 1
 485 327 500 343 523 365 c 0
 571 412 635 442 686 442 c 0
 724 442 750 416 750 379 c 0
 750 346 747 337 703 231 c 2
 687 192 l 1
 680 173 l 1
 662 126 l 1
 656 112 653 99 653 91 c 0
 653 82 660 75 669 75 c 0
 686 75 698 84 761 145 c 1
 779 126 l 1
 752 97 737 81 705 52 c 0
 649 1 620 -17 594 -17 c 0
 574 -17 559 -3 559 17 c 0
 559 31 573 71 619 183 c 0
 662 291 680 340 680 355 c 0
 680 371 661 388 643 388 c 0x9e
 588 388 510 317 450 214 c 0
 430 180 383 86 361 36 c 0
 343 -6 335 -17 322 -17 c 0
 303 -17 290 -7 290 7 c 0
 290 16 290 16 316 85 c 0
 359 196 401 329 401 352 c 0
 401 372 385 388 366 388 c 0xae
 327 388 272 336 213 243 c 0
 173 179 158 149 122 60 c 0
 98 1 84 -17 65 -17 c 0
 49 -17 35 -5 35 8 c 0
 35 21 35 22 106 188 c 0
 128 239 148 307 148 331 c 0
 148 350 139 361 124 361 c 0
 104 361 90 348 66 304 c 0
 61 295 59 293 56 293 c 0
 55 293 53 294 51 295 c 2
 41 301 l 2
 38 303 37 305 37 307 c 0
 37 308 37 310 39 312 c 0
 44 323 50 332 55 339 c 0
 61 348 66 358 71 367 c 0
 96 410 134 441 162 441 c 0xce
 187 441 205 417 205 383 c 0
 205 361 203 351 188 280 c 1
 275 387 349 441 408 441 c 0
 437 441 457 419 457 386 c 0
 457 371 453 342 447 313 c 2xae
EndSplineSet
KernsSLIF: 121 -13 0 0 119 -18 0 0 118 -18 0 0 112 -8 0 0
EndChar
StartChar: n
Encoding: 110 110 79
Width: 553
Flags: W
HStem: -17 20 363 79 390 52<397 402>
VStem: 157 57 425 75
Fore
66 303 m 1xd8
 46 319 l 1
 89 402 131 442 176 442 c 0x58
 199 442 214 420 214 387 c 0
 214 362 213 355 190 265 c 1
 289 387 363 442 431 442 c 0
 470 442 500 417 500 386 c 0
 500 357 489 323 440 207 c 0
 410 136 393 88 393 79 c 0
 393 72 398 67 406 67 c 0
 425 67 457 88 495 126 c 2
 504 135 l 1
 522 117 l 1
 508 101 l 2
 485 74 442 36 407 12 c 0
 375 -9 357 -17 336 -17 c 0
 317 -17 301 -2 301 15 c 0
 301 29 301 29 351 154 c 0
 414 310 425 341 425 360 c 0
 425 375 410 390 394 390 c 0xb8
 344 390 268 319 200 207 c 0
 174 165 162 140 130 65 c 0
 102 -2 92 -17 76 -17 c 0
 57 -17 39 -6 39 6 c 0
 39 12 39 12 116 198 c 1
 137 254 157 320 157 336 c 0
 157 351 146 363 133 363 c 0
 113 363 98 349 66 303 c 1xd8
EndSplineSet
KernsSLIF: 121 -10 0 0 119 -15 0 0 118 -15 0 0 39 -19 0 0 112 -5 0 0 84 -94 0 0
EndChar
StartChar: o
Encoding: 111 111 80
Width: 461
Flags: MW
HStem: -17 32<161 206> 409 33<256 297>
VStem: 38 74<110.5 167> 348 79<278.5 321>
Fore
273 442 m 0
 362 442 427 370 427 272 c 0
 427 121 309 -17 180 -17 c 0
 95 -17 38 56 38 165 c 0
 38 234 68 311 118 365 c 1
 164 417 216 442 273 442 c 0
275 409 m 0
 237 409 202 387 175 344 c 0
 138 285 112 199 112 135 c 0
 112 59 138 15 184 15 c 0
 228 15 272 50 299 108 c 0
 330 173 348 248 348 309 c 0
 348 369 319 409 275 409 c 0
EndSplineSet
KernsSLIF: 121 13 0 0 120 -6 0 0 119 1 0 0 118 3 0 0 116 -13 0 0 39 -10 0 0 84 -98 0 0
EndChar
StartChar: p
Encoding: 112 112 81
Width: 461
Flags: W
HStem: -278 20 -273 20 -17 39<176.5 199.5> -4 20 383 45
VStem: 369 79<275.5 325>
Fore
154 391 m 1x94
 164 428 l 1
 182 500 187 507 217 507 c 0
 239 507 248 502 248 490 c 0
 248 483 248 483 240 452 c 2
 228 406 l 1
 305 424 325 428 352 428 c 0
 407 428 448 378 448 312 c 0
 448 237 403 141 333 66 c 0
 281 11 227 -17 172 -17 c 0x2c
 153 -17 141 -14 118 -4 c 1
 71 -152 l 2
 59 -189 54 -208 54 -218 c 0
 54 -238 67 -247 103 -251 c 0
 123 -253 125 -253 125 -258 c 2
 125 -263 l 1
 124 -272 l 1
 123 -276 122 -278 117 -278 c 0x94
 116 -278 79 -276 6 -273 c 0x44
 -9 -273 -12 -274 -62 -277 c 0
 -69 -278 -75 -278 -79 -278 c 0
 -85 -278 -86 -276 -86 -269 c 2
 -86 -262 l 2
 -86 -259 -85 -255 -84 -254 c 2
 -80 -252 l 1
 -58 -248 l 2
 -35 -242 -30 -238 -21 -213 c 0
 -13 -190 -5 -166 2 -142 c 2
 69 81 l 1
 87 139 87 139 144 351 c 1
 113 342 78 328 29 306 c 1
 21 334 l 1
 36 343 78 361 154 391 c 1x94
217 369 m 1
 151 122 l 1
 141 86 140 80 140 70 c 0
 140 43 162 22 191 22 c 0
 228 22 268 52 301 107 c 0
 343 176 369 250 369 301 c 0
 369 349 338 383 296 383 c 0
 273 383 258 380 217 369 c 1
EndSplineSet
KernsSLIF: 121 23 0 0 116 -9 0 0
EndChar
StartChar: q
Encoding: 113 113 82
Width: 480
Flags: W
HStem: -266 20 -264 20 -263 20 -18 39<104 134> 422 20<264 352.5>
Fore
430 396 m 1x98
 452 429 l 2
 459 439 461 441 467 441 c 2
 477 441 l 2
 485 441 487 440 487 436 c 0
 487 433 486 431 483 420 c 1
 385 96 l 1
 371 53 370 48 347 -44 c 0
 342 -63 336 -83 330 -106 c 0
 312 -169 308 -186 308 -199 c 0
 308 -222 323 -235 353 -238 c 0
 368 -239 369 -240 370 -242 c 0
 371 -243 371 -244 371 -250 c 2
 371 -257 l 1
 370 -262 368 -264 363 -264 c 0x50
 343 -264 321 -263 300 -262 c 0
 280 -261 266 -260 259 -260 c 0
 252 -260 237 -261 217 -263 c 0x20
 190 -265 172 -266 156 -266 c 0
 148 -266 147 -265 147 -257 c 2
 147 -248 l 2
 147 -238 147 -238 175 -236 c 0
 208 -235 217 -225 238 -161 c 2
 342 156 l 1
 241 33 170 -18 98 -18 c 0
 47 -18 10 32 10 100 c 0
 10 250 193 442 335 442 c 0
 370 442 396 430 430 396 c 1x98
336 409 m 0
 294 412 234 370 184 304 c 0
 123 223 80 133 74 74 c 0
 71 44 90 21 118 21 c 0
 216 21 390 235 390 355 c 0
 390 386 369 407 336 409 c 0
EndSplineSet
KernsSLIF: 117 -2 0 0 99 2 0 0
EndChar
StartChar: r
Encoding: 114 114 83
Width: 387
Flags: W
HStem: -17 20 362 80 373 69
VStem: 155 57
Fore
52 305 m 1xd0
 33 317 l 1
 84 410 115 442 154 442 c 0x50
 187 442 212 409 212 366 c 0
 212 347 206 300 199 273 c 1
 191 237 l 1
 208 274 224 301 262 355 c 0
 305 419 333 442 366 442 c 0
 396 442 418 422 418 395 c 0
 418 368 396 348 368 348 c 0
 353 348 342 354 331 367 c 0
 328 371 325 373 323 373 c 0x30
 315 373 299 358 283 334 c 0
 231 259 208 210 162 79 c 0
 134 1 123 -17 102 -17 c 0
 84 -17 68 -8 68 2 c 0
 68 8 68 8 78 38 c 2
 115 151 l 2
 146 244 155 281 155 310 c 0
 155 343 142 362 120 362 c 0
 98 362 87 353 52 305 c 1xd0
EndSplineSet
KernsSLIF: 122 15 0 0 121 24 0 0 120 25 0 0 119 20 0 0 118 18 0 0 117 8 0 0 116 17 0 0 59 -11 0 0 115 8 0 0 114 19 0 0 39 2 0 0 113 -27 0 0 46 -64 0 0 112 19 0 0 249 -5 0 0 305 -7 0 0 250 -2 0 0 303 -7 0 0 306 -7 0 0 304 -7 0 0 111 -7 0 0 110 13 0 0 109 15 0 0 108 -10 0 0 107 -6 0 0 106 27 0 0 105 10 0 0 45 -43 0 0 104 -8 0 0 103 13 0 0 102 26 0 0 296 -7 0 0 297 -7 0 0 295 -7 0 0 101 -7 0 0 100 -13 0 0 44 -67 0 0 58 -7 0 0 293 -13 0 0 99 -11 0 0 292 -49 0 0 289 -49 0 0 241 -49 0 0 287 -49 0 0 290 -49 0 0 288 -49 0 0 97 -49 0 0
EndChar
StartChar: s
Encoding: 115 115 84
Width: 295
Flags: MW
HStem: -17 58 403 39
VStem: 61 57 181 69
Fore
32 81 m 0
 45 81 48 80 70 58 c 0
 80 48 100 41 115 41 c 0
 149 41 181 71 181 103 c 0
 181 127 175 136 121 196 c 0
 73 249 61 269 61 296 c 0
 61 327 80 368 107 396 c 0
 135 426 172 442 212 442 c 0
 260 442 291 424 291 395 c 0
 291 372 278 354 260 354 c 0
 246 354 243 357 224 382 c 0
 214 395 198 403 181 403 c 0
 151 403 118 371 118 342 c 0
 118 325 132 304 179 251 c 0
 241 181 250 166 250 136 c 0
 250 106 229 67 194 34 c 0
 158 -1 121 -17 78 -17 c 0
 27 -17 -3 5 -3 43 c 0
 -3 65 11 81 32 81 c 0
EndSplineSet
KernsSLIF: 39 -10 0 0
EndChar
StartChar: t
Encoding: 116 116 85
Width: 313
Flags: MW
HStem: -17 64 390 38<93 141 216 296 296 304 304 309>
Fore
141 390 m 1
 86 390 l 2
 69 390 66 391 66 396 c 0
 66 399 66 401 67 403 c 1
 71 418 l 2
 74 428 75 428 93 428 c 2
 153 428 l 1
 168 484 l 2
 180 529 187 537 213 537 c 0
 229 537 240 531 240 521 c 0
 240 518 239 513 238 508 c 1
 232 489 l 1
 216 428 l 1
 304 428 l 2
 325 428 328 427 328 420 c 0
 328 417 328 415 327 412 c 2
 324 400 l 1
 322 394 321 393 317 391 c 0
 316 390 314 390 309 390 c 2
 296 390 l 1
 207 390 l 1
 139 145 l 2
 123 87 123 87 123 76 c 0
 123 59 135 47 154 47 c 0
 181 47 224 73 260 111 c 2
 272 123 l 1
 290 104 l 1
 277 88 l 2
 270 80 249 59 233 46 c 0
 185 4 141 -17 101 -17 c 0
 67 -17 45 2 45 30 c 0
 45 42 46 48 57 85 c 1
 141 390 l 1
EndSplineSet
KernsSLIF: 59 21 0 0 39 -12 0 0 303 1 0 0 304 1 0 0 111 1 0 0 104 9 0 0 295 11 0 0 101 11 0 0 58 25 0 0 292 22 0 0 241 22 0 0 287 22 0 0 288 22 0 0 97 22 0 0
EndChar
StartChar: u
Encoding: 117 117 86
Width: 516
Flags: W
HStem: -17 20 -16 20 422 20<187.5 209 440.5 454>
Fore
469 170 m 1x60
 491 156 l 1
 481 141 l 2
 447 89 433 70 404 42 c 1
 368 4 333 -17 309 -17 c 0x80
 294 -17 278 1 278 18 c 0
 278 31 278 31 310 124 c 1
 366 275 l 1
 201 96 195 90 137 37 c 0
 97 2 72 -16 61 -16 c 0
 49 -16 33 4 33 19 c 0
 33 44 57 120 87 191 c 2
 127 284 l 2
 141 316 146 332 146 341 c 0
 146 350 140 357 133 357 c 0
 124 357 113 351 95 334 c 0
 82 322 79 319 76 319 c 0
 75 319 75 319 71 323 c 2
 66 327 l 2
 64 329 62 332 62 333 c 0
 62 339 85 365 114 392 c 0
 155 430 175 442 200 442 c 0
 218 442 232 430 232 415 c 0
 232 407 224 375 218 360 c 2
 133 146 l 2
 122 119 118 106 118 99 c 0
 118 93 125 86 130 86 c 0
 144 86 212 151 269 218 c 0
 339 302 373 348 413 416 c 0
 423 433 434 442 447 442 c 0
 461 442 473 431 473 419 c 0
 473 413 467 393 459 370 c 1
 393 193 l 1
 360 102 359 99 359 90 c 0
 359 78 367 68 376 68 c 0
 394 68 414 89 461 158 c 2
 469 170 l 1x60
EndSplineSet
KernsSLIF: 39 -21 0 0
EndChar
StartChar: v
Encoding: 118 118 87
Width: 516
Flags: W
HStem: -17 68<232.5 247> 376 61 422 20<143 157.5 325 325 452.5 482.5>
VStem: 31 45 132 64<99 131> 461 57<325 327.5>
Fore
325 442 m 1xbc
 334 425 l 1
 250 336 196 218 196 121 c 0
 196 77 216 51 249 51 c 0
 338 51 461 202 461 311 c 0
 461 344 450 364 424 376 c 1
 421 382 420 386 420 391 c 0
 420 422 439 442 466 442 c 0xbc
 499 442 518 415 518 369 c 0
 518 281 466 166 386 77 c 0
 331 15 274 -17 220 -17 c 0
 169 -17 132 30 132 96 c 0
 132 166 165 237 260 372 c 1
 234 373 l 2
 205 375 182 376 173 376 c 0xdc
 116 376 76 354 76 323 c 0
 76 313 78 309 91 299 c 0
 100 291 103 286 103 278 c 0
 103 259 86 243 65 243 c 0
 45 243 31 259 31 281 c 0
 31 318 54 361 101 413 c 0
 122 437 132 442 154 442 c 0xbc
 161 442 177 441 191 440 c 0
 207 438 221 437 227 437 c 0xdc
 236 437 248 438 266 439 c 0
 286 440 292 440 325 442 c 1xbc
EndSplineSet
KernsSLIF: 59 28 0 0 115 3 0 0 46 -15 0 0 249 7 0 0 305 4 0 0 303 4 0 0 304 4 0 0 111 4 0 0 108 -1 0 0 45 19 0 0 103 9 0 0 296 9 0 0 297 9 0 0 295 9 0 0 101 9 0 0 44 -18 0 0 58 27 0 0 99 5 0 0 291 -5 0 0 292 -5 0 0 289 -5 0 0 241 -5 0 0 287 -5 0 0 290 -5 0 0 288 -5 0 0 97 -5 0 0
EndChar
StartChar: w
Encoding: 119 119 88
Width: 719
Flags: W
HStem: -17 20 -16 65<241.5 246> 382 60<140 152> 389 53<479.5 489> 414 20<250.5 275>
VStem: 34 38 125 69<101 110.5> 506 34<355.5 368> 672 45<292.5 331>
Fore
265 376 m 1x4f80
 233 376 l 2
 220 376 208 377 194 378 c 0
 175 381 159 382 152 382 c 0x2780
 111 382 72 354 72 324 c 0
 72 311 75 306 85 300 c 0
 98 292 103 284 103 270 c 0
 103 252 91 240 72 240 c 0
 48 240 34 258 34 287 c 0
 34 329 55 371 98 414 c 0x0f80
 121 436 131 442 149 442 c 0x2780
 155 442 181 440 209 436 c 0
 223 435 241 434 260 434 c 0
 290 434 302 435 328 442 c 1
 340 424 l 1
 306 390 288 368 269 338 c 0
 227 271 194 175 194 120 c 0
 194 82 224 49 259 49 c 0x4f80
 289 49 323 67 350 99 c 1
 353 197 379 305 418 378 c 0
 441 423 465 442 494 442 c 0
 521 442 540 419 540 387 c 0
 540 324 498 240 407 122 c 1
 421 72 443 48 473 48 c 0
 547 48 672 216 672 315 c 0
 672 347 658 366 622 385 c 1
 621 388 621 390 621 393 c 0
 621 421 639 442 665 442 c 0
 695 442 717 412 717 369 c 0
 717 216 548 -17 437 -17 c 0x9780
 403 -17 379 6 358 58 c 1
 307 6 267 -16 225 -16 c 0
 167 -16 125 28 125 88 c 0
 125 133 139 179 163 220 c 1
 235 329 l 1
 265 376 l 1x4f80
399 153 m 1x1780
 406 159 407 159 409 161 c 0
 419 171 435 193 453 220 c 0
 492 281 506 319 506 359 c 0
 506 377 496 389 482 389 c 0
 437 389 394 292 394 189 c 0
 394 175 395 168 399 153 c 1x1780
EndSplineSet
KernsSLIF: 59 26 0 0 46 -21 0 0 249 5 0 0 108 -3 0 0 45 15 0 0 103 6 0 0 296 4 0 0 297 4 0 0 295 4 0 0 101 4 0 0 44 -24 0 0 58 25 0 0 291 -7 0 0 292 -7 0 0 289 -7 0 0 241 -7 0 0 287 -7 0 0 290 -7 0 0 288 -7 0 0 97 -7 0 0
EndChar
StartChar: x
Encoding: 120 120 89
Width: 461
Flags: W
HStem: -17 66 -14 20 379 63<119.5 124.5> 382 60
Fore
57 329 m 1x60
 37 339 l 1
 80 422 100 442 139 442 c 0x20
 180 442 207 409 223 340 c 0
 233 297 235 291 240 275 c 1
 250 288 l 1
 302 367 l 2
 335 417 369 442 405 442 c 0
 431 442 448 419 448 385 c 0
 448 356 436 338 416 338 c 0
 400 338 393 344 390 360 c 0
 387 376 383 382 374 382 c 0
 359 382 344 369 315 331 c 0
 294 302 267 263 249 233 c 1
 259 173 277 115 298 81 c 0
 311 58 324 49 340 49 c 0
 361 49 387 72 404 103 c 2
 414 122 l 1
 436 111 l 1
 430 96 l 2
 425 83 416 66 405 50 c 0
 376 5 345 -17 309 -17 c 0x90
 279 -17 256 1 238 38 c 0
 230 54 224 76 204 157 c 2
 200 173 l 1
 171 124 126 61 97 29 c 0
 70 -2 50 -14 27 -14 c 0
 7 -14 -5 2 -5 28 c 0
 -5 51 6 66 23 66 c 0
 32 66 37 64 51 53 c 0
 55 50 59 49 62 49 c 0
 84 49 128 105 190 211 c 1
 169 312 138 379 111 379 c 0
 94 379 79 365 57 329 c 1x60
EndSplineSet
KernsSLIF: 113 18 0 0 111 2 0 0 295 11 0 0 101 11 0 0 99 8 0 0 97 21 0 0
EndChar
StartChar: y
Encoding: 121 121 90
Width: 442
Flags: MW
HStem: 372 70<110.5 135.5>
VStem: 368 59
Fore
34 272 m 1
 10 280 l 1
 48 393 86 442 135 442 c 0
 184 442 220 395 238 305 c 0
 251 247 253 211 253 72 c 1
 254 27 l 1
 328 141 368 244 368 323 c 0
 368 336 367 350 365 365 c 0
 362 383 360 399 360 407 c 0
 360 428 372 442 391 442 c 0
 411 442 427 422 427 395 c 0
 427 271 327 68 170 -124 c 0
 99 -212 41 -259 5 -259 c 0
 -15 -259 -29 -240 -29 -212 c 0
 -29 -185 -13 -169 15 -169 c 0
 26 -169 31 -171 47 -182 c 0
 50 -184 56 -186 59 -186 c 0
 74 -186 96 -171 121 -142 c 0
 181 -75 194 -38 194 66 c 0
 194 251 161 372 110 372 c 0
 84 372 66 348 34 272 c 1
EndSplineSet
KernsSLIF: 59 23 0 0 115 -7 0 0 46 -12 0 0 249 2 0 0 305 -3 0 0 303 -3 0 0 304 -3 0 0 111 -3 0 0 108 -6 0 0 45 9 0 0 103 -1 0 0 44 -19 0 0 58 22 0 0 99 -2 0 0 291 -10 0 0 292 -10 0 0 289 -10 0 0 241 -10 0 0 287 -10 0 0 290 -10 0 0 288 -10 0 0 97 -10 0 0
EndChar
StartChar: z
Encoding: 122 122 91
Width: 424
Flags: MW
HStem: -5 33<159 187>
Fore
425 427 m 1
 426 409 l 1
 419 402 413 394 406 385 c 1
 332 304 l 1
 204 156 l 1
 99 32 l 1
 137 29 151 28 167 28 c 0
 207 28 247 33 279 41 c 0
 304 47 322 63 341 95 c 0
 352 113 357 118 365 118 c 0
 366 118 369 118 370 117 c 2
 375 116 l 2
 380 114 383 112 383 110 c 0
 383 108 380 100 376 90 c 1
 344 -5 l 1
 -8 -5 l 1
 -8 12 l 1
 324 393 l 1
 256 395 250 395 226 395 c 0
 123 395 118 393 79 323 c 1
 66 325 61 326 53 332 c 1
 92 461 l 1
 117 462 l 1
 134 427 134 427 229 427 c 2
 425 427 l 1
EndSplineSet
EndChar
StartChar: braceleft
Encoding: 123 123 92
Width: 442
Flags: W
VStem: 119 97<-131.5 -96.5> 196 82<141 156>
Fore
113 250 m 1x40
 118 275 l 1
 241 334 265 368 266 491 c 0
 268 607 293 657 373 709 c 1
 419 736 448 745 521 757 c 1
 516 732 l 1
 418 700 386 655 366 519 c 1
 348 367 323 335 164 264 c 1
 242 225 278 183 278 129 c 0x40
 278 100 271 71 250 16 c 0
 222 -60 216 -81 216 -112 c 0
 216 -160 240 -189 297 -211 c 1
 292 -236 l 1
 186 -224 119 -169 119 -94 c 0x80
 119 -63 131 -25 162 44 c 0
 188 101 196 127 196 155 c 0
 196 200 172 227 113 250 c 1x40
EndSplineSet
EndChar
StartChar: bar
Encoding: 124 124 93
Width: 498
Flags: MW
VStem: 223 51<-250 750>
Fore
223 750 m 1
 274 750 l 1
 274 -250 l 1
 223 -250 l 1
 223 750 l 1
EndSplineSet
EndChar
StartChar: braceright
Encoding: 125 125 94
Width: 442
Flags: W
VStem: 206 82<364.5 378> 269 97<617.5 636>
Fore
372 269 m 1x80
 367 244 l 1
 244 186 220 151 219 29 c 0
 217 -86 192 -136 111 -188 c 1
 66 -214 38 -223 -36 -236 c 1
 -31 -211 l 1
 65 -181 99 -133 119 1 c 1
 136 152 161 184 321 255 c 1
 240 295 206 336 206 393 c 0x80
 206 421 215 453 239 516 c 0
 261 575 269 604 269 631 c 0
 269 681 245 710 188 732 c 1
 193 757 l 1
 243 751 271 742 303 720 c 0
 343 694 366 656 366 616 c 0x40
 366 583 356 550 322 477 c 0
 298 422 288 391 288 365 c 0
 288 320 312 292 372 269 c 1x80
EndSplineSet
EndChar
StartChar: asciitilde
Encoding: 126 126 95
Width: 996
Flags: W
HStem: 629 50<584.5 596> 670 48<400 404>
Fore
694 733 m 1x80
 708 724 l 1
 677 669 620 629 572 629 c 0x80
 552 629 552 629 478 652 c 0
 433 667 416 670 392 670 c 0
 357 670 342 661 301 613 c 1
 287 622 l 1
 324 683 374 718 426 718 c 0x40
 447 718 462 715 516 697 c 0
 559 683 575 679 594 679 c 0
 632 679 664 697 694 733 c 1x80
EndSplineSet
EndChar
StartChar: exclamdown
Encoding: 161 161 96
Width: 258
Flags: MW
HStem: -269 20 423 20<186.5 218.5>
Fore
180 234 m 1
 145 97 l 1
 127 13 l 1
 119 -29 l 2
 99 -136 87 -188 76 -215 c 0
 62 -252 44 -269 18 -269 c 0
 -7 -269 -23 -253 -23 -228 c 0
 -23 -192 -20 -183 63 13 c 1
 149 235 l 2
 157 255 157 255 162 255 c 2
 162 255 163 255 169 254 c 2
 174 253 l 2
 180 251 182 250 182 246 c 0
 182 244 181 239 180 234 c 1
205 443 m 0
 232 443 247 425 247 394 c 0
 247 354 220 324 185 324 c 0
 159 324 141 344 141 374 c 0
 141 414 168 443 205 443 c 0
EndSplineSet
EndChar
StartChar: cent
Encoding: 162 162 97
Width: 480
Flags: MW
HStem: -11 20 102 57<257.5 267>
VStem: 92 79<252 302.5>
Fore
445 674 m 1
 395 556 l 1
 441 544 461 526 461 497 c 0
 461 474 446 459 424 459 c 0
 401 459 399 462 391 499 c 0
 389 508 387 511 379 519 c 1
 229 165 l 1
 245 160 252 159 263 159 c 0
 301 159 331 172 366 205 c 1
 382 190 l 1
 340 127 299 102 235 102 c 0
 225 102 218 103 204 105 c 1
 154 -11 l 1
 121 -11 l 1
 174 114 l 1
 118 141 92 184 92 250 c 0
 92 411 218 560 353 560 c 2
 363 560 l 1
 412 674 l 1
 445 674 l 1
203 181 m 1
 349 527 l 1
 308 525 280 510 248 474 c 0
 204 423 171 335 171 270 c 0
 171 234 183 202 203 181 c 1
EndSplineSet
EndChar
StartChar: sterling
Encoding: 163 163 98
Width: 479
Flags: MW
HStem: -15 73 334 41<86 87 87 162 240 330 330 331> 634 41<351.5 374>
VStem: 398 38<86 109>
Fore
331 334 m 2
 230 334 l 1
 196 214 180 165 157 118 c 1
 192 110 204 106 242 90 c 0
 308 63 326 58 352 58 c 0
 380 58 398 74 398 98 c 0
 398 120 387 131 354 142 c 0
 326 151 314 163 314 183 c 0
 314 208 334 226 361 226 c 0
 404 226 436 180 436 119 c 0
 436 49 373 -15 304 -15 c 0
 277 -15 251 -6 220 15 c 0
 214 19 194 34 160 62 c 0
 153 67 146 72 138 77 c 1
 96 10 70 -15 38 -15 c 0
 19 -15 4 1 4 22 c 0
 4 46 17 70 41 90 c 0
 65 110 83 116 125 120 c 1
 147 181 156 232 162 334 c 1
 87 334 l 2
 81 334 76 338 76 343 c 2
 76 364 l 2
 76 370 80 375 86 375 c 2
 162 375 l 1
 176 477 183 509 202 551 c 0
 238 631 297 675 367 675 c 0
 432 675 485 634 485 585 c 0
 485 559 467 540 443 540 c 0
 416 540 399 559 396 592 c 0
 393 622 384 634 364 634 c 0
 339 634 312 615 296 585 c 0
 281 559 281 556 251 423 c 2
 240 375 l 1
 330 375 l 2
 340 375 344 373 344 367 c 2
 344 343 l 2
 344 336 341 334 331 334 c 2
EndSplineSet
EndChar
StartChar: fraction
Encoding: 164 8260 99
Width: 111
Flags: MW
HStem: -15 20
Fore
-188 8 m 2
 313 653 l 1
 319 659 322 661 334 661 c 2
 356 661 l 2
 362 661 368 656 368 651 c 0
 368 648 366 644 362 639 c 2
 -135 1 l 2
 -145 -12 -149 -15 -156 -15 c 2
 -187 -15 l 2
 -191 -15 -196 -11 -196 -6 c 0
 -196 -3 -194 1 -188 8 c 2
EndSplineSet
EndChar
StartChar: yen
Encoding: 165 165 100
Width: 479
Flags: W
HStem: -6 20 0 20 167 36<103 186 278 361> 257 36<130 212 302 384> 669 20 675 20<162 166 300.5 305.5 434 438 576.5 580.5>
Fore
93 167 m 1xb4
 103 203 l 1
 196 203 l 1
 212 257 l 1
 118 257 l 1
 130 293 l 1
 221 293 l 1
 231 325 l 1
 192 582 l 1
 185 624 174 645 159 649 c 2
 142 654 l 2
 138 656 135 660 135 665 c 0
 135 669 137 675 139 677 c 2
 145 683 l 2
 152 691 159 695 165 695 c 0x34
 167 695 171 694 176 693 c 0
 184 690 196 689 211 689 c 0x08
 236 689 259 690 282 693 c 0
 295 695 299 695 302 695 c 0x34
 309 695 314 691 313 687 c 2
 313 687 313 686 312 684 c 1
 308 669 l 1
 305 662 303 660 293 658 c 0
 274 654 264 641 264 622 c 0
 264 618 265 610 266 603 c 2
 299 356 l 1
 460 596 l 2
 472 613 474 619 474 629 c 0
 474 646 466 651 431 656 c 0
 426 656 423 660 423 666 c 2
 423 669 l 1x08
 427 685 l 1
 428 692 431 695 437 695 c 0x34
 439 695 439 695 458 692 c 0
 469 690 496 689 531 689 c 0x08
 544 689 551 690 557 691 c 0
 567 694 575 695 578 695 c 0
 583 695 589 689 588 685 c 1
 588 683 l 1
 585 668 l 1
 583 661 581 660 570 657 c 0
 546 649 540 644 523 619 c 2
 308 311 l 1
 302 293 l 1
 394 293 l 1
 384 257 l 1
 292 257 l 1
 278 203 l 1
 369 203 l 1
 361 167 l 1
 267 167 l 1
 246 92 l 2
 243 81 241 70 241 62 c 0
 241 40 252 32 288 29 c 0
 294 28 297 26 297 22 c 0
 297 20 297 18 296 16 c 1
 293 5 l 1
 292 -1 284 -6 276 -6 c 0xb4
 272 -6 265 -5 257 -3 c 0
 245 -1 233 0 208 0 c 0x40
 180 0 135 -2 99 -5 c 0
 93 -6 86 -6 82 -6 c 0
 73 -6 68 -3 68 1 c 1
 69 7 l 1
 74 18 l 2
 78 28 81 29 105 32 c 0
 135 34 151 50 165 91 c 1
 186 167 l 1
 93 167 l 1xb4
EndSplineSet
EndChar
StartChar: florin
Encoding: 166 402 101
Width: 479
Flags: MW
HStem: -266 58 389 39<162 218 301 371 371 372> 669 20 734 39<464 467>
Fore
218 389 m 1
 151 389 l 2
 138 389 135 390 135 394 c 0
 135 395 135 397 136 399 c 2
 138 404 l 1
 142 418 l 2
 145 427 146 428 162 428 c 2
 229 428 l 1
 242 477 l 2
 266 569 303 649 347 702 c 0
 383 745 438 773 490 773 c 0
 533 773 567 747 567 714 c 0
 567 689 548 669 524 669 c 0
 509 669 501 676 496 695 c 0
 488 726 479 734 455 734 c 0
 404 734 370 677 327 525 c 1
 301 428 l 1
 387 428 l 2
 397 428 400 427 400 424 c 0
 400 423 400 422 399 420 c 2
 397 415 l 1
 393 400 l 2
 390 390 384 387 372 389 c 2
 371 389 l 1
 291 389 l 1
 212 96 l 2
 181 -18 141 -115 96 -184 c 0
 63 -234 18 -266 -21 -266 c 0
 -48 -266 -68 -248 -68 -224 c 0
 -68 -202 -53 -186 -32 -186 c 0
 -20 -186 -13 -189 -2 -197 c 0
 10 -206 15 -208 22 -208 c 0
 54 -208 85 -136 133 53 c 2
 218 389 l 1
EndSplineSet
EndChar
StartChar: section
Encoding: 167 167 102
Width: 479
Flags: MW
HStem: -189 47<207 216> 660 47<213 236.5>
VStem: 46 46<456 502.5> 128 43<597.5 598.5> 280 42<-84.5 -83.5> 367 47<24 80>
Fore
108 -74 m 0
 126 -74 143 -85 163 -109 c 0
 186 -136 196 -142 218 -142 c 0
 254 -142 280 -114 280 -74 c 0
 280 -14 258 34 174 161 c 0
 76 308 46 378 46 456 c 0
 46 591 152 707 274 707 c 0
 333 707 381 677 381 640 c 0
 381 617 360 597 336 597 c 0
 317 597 307 603 278 634 c 0
 263 651 245 660 228 660 c 0
 196 660 171 633 171 598 c 0
 171 548 204 481 288 356 c 0
 385 214 414 144 414 53 c 0
 414 -10 394 -63 351 -113 c 0
 303 -168 256 -189 176 -189 c 0
 107 -189 60 -161 60 -120 c 0
 60 -96 83 -74 108 -74 c 0
127 600 m 0
 115 600 92 523 92 482 c 0
 92 430 105 383 135 324 c 0
 146 303 161 279 217 192 c 0
 312 43 327 12 327 -44 c 0
 327 -54 325 -73 323 -80 c 0
 322 -82 322 -83 322 -84 c 0
 322 -85 323 -86 324 -86 c 0
 326 -86 328 -83 336 -71 c 0
 352 -45 367 7 367 41 c 0
 367 119 338 187 258 304 c 0
 213 369 213 369 162 464 c 0
 127 529 124 537 124 545 c 0
 127 592 127 592 127 594 c 0
 128 597 128 597 128 598 c 0
 128 599 128 600 127 600 c 0
EndSplineSet
EndChar
StartChar: currency
Encoding: 168 164 103
Width: 479
Flags: MW
HStem: 141 48<250 302> 528 48<249.5 302.5>
VStem: 59 48<333.5 386> 446 48<333 386>
Fore
38 564 m 1
 70 595 l 1
 136 528 l 1
 182 562 223 576 276 576 c 0
 329 576 371 562 416 528 c 1
 483 595 l 1
 514 564 l 1
 447 497 l 1
 480 451 494 412 494 360 c 0
 494 306 479 261 447 220 c 1
 514 153 l 1
 483 122 l 1
 416 189 l 1
 363 153 328 141 276 141 c 0
 224 141 190 153 136 189 c 1
 69 122 l 1
 38 153 l 1
 105 220 l 1
 74 262 59 307 59 360 c 0
 59 412 72 451 105 497 c 1
 38 564 l 1
276 528 m 0
 184 528 107 452 107 361 c 0
 107 265 182 189 275 189 c 0
 370 189 446 264 446 358 c 0
 446 452 370 528 276 528 c 0
EndSplineSet
EndChar
StartChar: quotesingle
Encoding: 169 39 104
Width: 276
Flags: MW
HStem: 684 20<277 294.5>
Fore
198 465 m 1
 220 632 l 1
 224 661 229 672 240 684 c 0
 253 697 269 704 285 704 c 0
 304 704 319 690 319 672 c 0
 319 662 316 653 307 632 c 2
 231 456 l 1
 228 448 223 445 217 445 c 2
 204 445 l 2
 198 445 196 447 196 453 c 0
 196 455 196 455 198 465 c 1
EndSplineSet
EndChar
StartChar: quotedblleft
Encoding: 170 8220 105
Width: 406
Flags: MW
HStem: 430 21<187.5 223.5 362.5 398.5>
VStem: 123 64<558 571.5> 298 64<558 571.5>
Fore
472 662 m 1
 400 646 362 613 362 567 c 0
 362 549 372 533 389 523 c 0
 431 496 434 494 434 476 c 0
 434 451 412 430 385 430 c 0
 340 430 298 477 298 528 c 0
 298 615 370 686 468 695 c 1
 470 687 472 678 472 670 c 2
 472 662 l 1
296 662 m 1
 225 646 187 613 187 567 c 0
 187 549 197 533 214 523 c 0
 256 497 259 494 259 476 c 0
 259 451 237 430 210 430 c 0
 165 430 123 477 123 528 c 0
 123 615 195 686 292 695 c 1
 296 686 297 679 297 670 c 0
 297 669 297 666 296 662 c 1
EndSplineSet
KernsSLIF: 89 34 1 0 87 10 1 0 86 11 1 0 84 20 1 0 261 -46 1 0 256 -46 1 0 257 -46 1 0 225 -95 1 0 65 -46 1 0
EndChar
StartChar: guillemotleft
Encoding: 171 171 106
Width: 406
Flags: W
Fore
370 401 m 1
 385 389 l 1
 269 238 l 1
 367 86 l 1
 354 74 l 1
 192 241 l 1
 370 401 l 1
226 401 m 1
 241 389 l 1
 125 238 l 1
 223 86 l 1
 211 74 l 1
 49 241 l 1
 226 401 l 1
EndSplineSet
EndChar
StartChar: guilsinglleft
Encoding: 172 8249 107
Width: 295
Flags: W
Fore
261 401 m 1
 275 389 l 1
 151 238 l 1
 241 86 l 1
 228 74 l 1
 75 241 l 1
 261 401 l 1
EndSplineSet
EndChar
StartChar: guilsinglright
Encoding: 173 8250 108
Width: 295
Flags: W
Fore
59 74 m 1
 44 87 l 1
 168 238 l 1
 78 389 l 1
 91 401 l 1
 244 235 l 1
 59 74 l 1
EndSplineSet
KernsSLIF: 89 -107 1 0 87 -119 1 0 86 -119 1 0 84 -123 1 0 261 -53 1 0 256 -53 1 0 257 -53 1 0 225 -72 1 0 65 -53 1 0
EndChar
StartChar: fi
Encoding: 174 64257 109
Width: 500
Flags: W
HStem: -266 58 -17 69 389 39<79 135 218 317 317 321> 422 20<418 429> 669 20 734 39<396 407>
VStem: 248 84
Fore
218 428 m 1xee
 317 428 l 2x22
 345 428 371 431 399 438 c 0
 407 441 415 442 421 442 c 0x12
 437 442 448 430 448 412 c 0
 448 395 427 335 358 153 c 0
 335 94 332 84 332 74 c 0
 332 63 343 52 355 52 c 0
 379 52 418 93 462 163 c 1
 482 144 l 1
 408 33 350 -17 295 -17 c 0
 268 -17 248 2 248 26 c 0
 248 43 249 46 270 102 c 0
 323 239 334 270 357 337 c 0
 364 356 366 364 366 370 c 0
 366 385 362 387 321 389 c 1
 208 389 l 1
 129 96 l 2
 98 -18 58 -115 13 -184 c 0
 -20 -234 -65 -266 -104 -266 c 0
 -131 -266 -151 -248 -151 -224 c 0
 -151 -202 -136 -186 -115 -186 c 0
 -103 -186 -96 -189 -85 -197 c 0
 -73 -206 -68 -208 -61 -208 c 0
 -29 -208 2 -136 50 53 c 2
 135 389 l 1
 68 389 l 2
 55 389 52 390 52 394 c 0
 52 395 52 397 53 399 c 2
 55 404 l 1
 59 418 l 2
 62 427 63 428 79 428 c 2
 146 428 l 1
 159 477 l 2
 184 573 225 658 271 709 c 0
 308 750 364 773 428 773 c 0
 485 773 519 751 519 714 c 0
 519 689 499 669 476 669 c 0
 461 669 453 676 448 695 c 0
 440 723 423 734 391 734 c 0
 321 734 290 690 244 525 c 1
 218 428 l 1xee
EndSplineSet
Ligature: 0 0 'liga' f i
EndChar
StartChar: fl
Encoding: 175 64258 110
Width: 537
Flags: MW
HStem: -266 58 -17 75 389 39<84 140 223 293 293 294> 734 39<385.5 389.5>
Fore
223 428 m 1
 309 428 l 2
 319 428 322 427 322 424 c 0
 322 423 322 422 321 420 c 2
 319 415 l 1
 315 400 l 2
 312 390 306 387 294 389 c 2
 293 389 l 1
 213 389 l 1
 134 96 l 2
 103 -18 63 -115 18 -184 c 0
 -15 -234 -60 -266 -99 -266 c 0
 -126 -266 -146 -248 -146 -224 c 0
 -146 -202 -131 -186 -110 -186 c 0
 -98 -186 -91 -189 -80 -197 c 0
 -68 -206 -63 -208 -56 -208 c 0
 -24 -208 7 -136 55 53 c 2
 140 389 l 1
 73 389 l 2
 60 389 57 390 57 394 c 0
 57 395 57 397 58 399 c 2
 60 404 l 1
 64 418 l 2
 67 427 68 428 84 428 c 2
 151 428 l 1
 164 477 l 2
 188 569 225 649 269 702 c 0
 305 745 360 773 411 773 c 0
 435 773 456 766 473 751 c 1
 498 770 507 774 519 774 c 0
 520 774 520 774 526 773 c 2
 534 773 l 2
 541 772 543 771 543 767 c 0
 543 766 543 766 540 755 c 2
 365 151 l 2
 353 110 349 92 349 80 c 0
 349 67 358 58 371 58 c 0
 389 58 408 71 446 111 c 2
 470 137 l 1
 488 119 l 1
 476 104 l 2
 455 79 418 43 390 21 c 0
 355 -7 332 -17 307 -17 c 0
 286 -17 265 3 265 23 c 0
 265 33 265 33 281 93 c 1
 444 669 l 1
 427 673 423 677 418 695 c 0
 409 727 402 734 377 734 c 0
 326 734 292 677 249 525 c 1
 223 428 l 1
EndSplineSet
Ligature: 0 0 'liga' f l
EndChar
StartChar: endash
Encoding: 177 8211 111
Width: 480
Flags: MW
HStem: 208 58<83 412>
Fore
83 266 m 2
 440 266 l 2
 459 266 460 265 460 261 c 0
 460 259 460 259 455 247 c 2
 447 227 l 2
 440 208 440 208 412 208 c 2
 51 208 l 2
 39 208 36 209 36 212 c 0
 36 215 36 215 41 226 c 2
 54 254 l 2
 59 266 59 266 83 266 c 2
EndSplineSet
EndChar
StartChar: dagger
Encoding: 178 8224 112
Width: 480
Flags: W
HStem: 437 19<271.5 275.5 310.5 313.5> 686 20<277 309>
VStem: 281 23<404 428> 281 24<461 466.5>
Fore
282 -223 m 1xe0
 277 -86 l 1
 272 53 252 216 231 292 c 1
 268 351 281 384 281 423 c 0xe0
 281 433 278 437 273 437 c 0
 270 437 265 436 260 434 c 0
 255 433 216 422 194 416 c 0
 159 406 136 401 125 401 c 0
 96 401 77 419 77 447 c 0
 77 475 95 493 124 493 c 0
 142 493 143 493 179 482 c 0
 190 479 190 479 210 474 c 0
 231 467 246 463 260 459 c 0
 265 457 270 456 273 456 c 0
 278 456 281 459 281 463 c 0
 281 471 274 497 260 543 c 0
 247 584 240 620 240 645 c 0
 240 682 261 706 293 706 c 0
 325 706 346 682 346 647 c 0
 346 619 339 583 327 543 c 0
 312 497 305 470 305 463 c 0xd0
 305 459 308 456 313 456 c 0
 316 456 321 457 326 459 c 0
 387 479 442 493 463 493 c 0
 490 493 509 474 509 447 c 0
 509 419 490 401 461 401 c 0
 437 401 437 401 325 434 c 0
 320 436 315 437 312 437 c 0
 307 437 304 433 304 423 c 0
 304 385 317 352 354 292 c 1
 332 206 314 56 309 -86 c 1
 304 -223 l 1
 282 -223 l 1xe0
EndSplineSet
EndChar
StartChar: daggerdbl
Encoding: 179 8225 113
Width: 479
Flags: MW
HStem: 417 20 684 20<257 289.5>
Fore
261 72 m 1
 260 100 l 1
 258 176 250 214 217 306 c 1
 251 361 262 389 262 419 c 0
 262 424 262 429 261 437 c 1
 223 432 217 431 180 418 c 0
 154 408 128 402 110 402 c 0
 82 402 59 424 59 451 c 0
 59 477 80 497 108 497 c 0
 128 497 157 491 186 481 c 0
 221 468 225 467 261 462 c 1
 256 503 253 513 236 558 c 0
 223 592 216 624 216 647 c 0
 216 679 241 704 273 704 c 0
 306 704 331 678 331 646 c 0
 331 625 323 591 311 558 c 0
 293 510 292 503 286 462 c 1
 323 467 328 468 363 481 c 0
 392 491 422 497 442 497 c 0
 470 497 490 477 490 450 c 0
 490 423 467 402 437 402 c 0
 419 402 394 406 368 414 c 0
 332 424 326 425 287 429 c 1
 290 365 296 349 332 306 c 1
 329 296 326 285 322 275 c 0
 289 175 286 161 286 108 c 2
 286 100 l 1
 287 72 l 1
 326 76 331 78 368 91 c 0
 394 101 421 107 439 107 c 0
 468 107 490 85 490 57 c 0
 490 31 470 12 441 12 c 0
 421 12 392 18 363 28 c 0
 328 40 323 42 287 47 c 1
 293 1 295 -7 311 -49 c 0
 325 -82 332 -113 332 -137 c 0
 332 -169 305 -196 271 -196 c 0
 240 -196 216 -172 216 -139 c 0
 216 -115 224 -82 236 -49 c 0
 253 -5 255 1 261 47 c 1
 225 42 218 40 186 28 c 0
 157 18 129 12 110 12 c 0
 82 12 59 33 59 60 c 0
 59 86 82 107 110 107 c 0
 128 107 154 101 181 91 c 0
 218 78 223 76 261 72 c 1
EndSplineSet
EndChar
StartChar: periodcentered
Encoding: 180 183 114
Width: 240
Flags: W
Fore
158 396 m 0
 190 396 211 372 211 337 c 0
 211 298 185 268 150 268 c 0
 117 268 96 292 96 330 c 0
 96 367 123 396 158 396 c 0
EndSplineSet
EndChar
StartChar: paragraph
Encoding: 182 182 115
Width: 480
Flags: MW
HStem: 704 41<431 499 431 431>
VStem: 306 39<-159 279 279 279> 392 39<-159 704>
Fore
499 745 m 1
 499 704 l 1
 431 704 l 1
 431 -159 l 1
 392 -159 l 1
 392 704 l 1
 345 704 l 1
 345 -159 l 1
 306 -159 l 1
 306 279 l 1
 229 294 191 311 155 345 c 0
 111 386 86 445 86 507 c 0
 86 584 124 655 186 693 c 0
 241 728 313 745 407 745 c 2
 499 745 l 1
EndSplineSet
EndChar
StartChar: bullet
Encoding: 183 8226 116
Width: 498
Flags: W
Fore
252 540 m 0
 350 540 431 457 431 359 c 0
 431 258 350 177 250 177 c 0
 148 177 68 258 68 360 c 0
 68 460 150 540 252 540 c 0
EndSplineSet
EndChar
StartChar: quotesinglbase
Encoding: 184 8218 117
Width: 240
Flags: MW
VStem: 98 65<-60.5 -44.5>
Fore
-14 -159 m 2
 -14 -152 l 1
 57 -137 98 -102 98 -57 c 0
 98 -32 91 -24 47 3 c 0
 32 12 25 22 25 35 c 0
 25 60 47 81 74 81 c 0
 120 81 163 34 163 -17 c 0
 163 -104 88 -177 -9 -185 c 1
 -12 -177 -14 -168 -14 -159 c 2
EndSplineSet
EndChar
StartChar: quotedblbase
Encoding: 185 8222 118
Width: 406
Flags: MW
VStem: 82 64<-40.5 -24.5> 257 64<-40.5 -24.5>
Fore
-28 -139 m 2
 -28 -132 l 1
 41 -118 82 -82 82 -37 c 0
 82 -12 76 -5 32 22 c 0
 17 31 10 42 10 55 c 0
 10 80 32 101 59 101 c 0
 104 101 146 54 146 3 c 0
 146 -84 73 -157 -23 -165 c 1
 -26 -158 -28 -148 -28 -139 c 2
152 -165 m 1
 149 -158 147 -146 147 -138 c 0
 147 -137 147 -135 148 -132 c 1
 217 -118 257 -83 257 -37 c 0
 257 -12 251 -5 207 22 c 0
 192 31 185 42 185 55 c 0
 185 81 207 101 234 101 c 0
 279 101 321 53 321 3 c 0
 321 -84 248 -157 152 -165 c 1
EndSplineSet
KernsSLIF: 89 -61 1 0 87 -111 1 0 86 -110 1 0 84 -72 1 0 225 22 1 0 65 19 1 0
EndChar
StartChar: quotedblright
Encoding: 186 8221 119
Width: 406
Flags: MW
HStem: 410 20 675 20<192.5 228.5 367.5 403.5>
VStem: 229 64<553.5 569.5> 404 64<553.5 570>
Fore
119 456 m 2
 119 463 l 1
 190 479 229 512 229 557 c 0
 229 582 223 590 179 617 c 0
 164 626 157 636 157 650 c 0
 157 675 179 695 206 695 c 0
 251 695 293 648 293 597 c 0
 293 510 221 439 124 430 c 1
 121 437 119 447 119 456 c 2
299 430 m 1
 296 437 294 447 294 456 c 0
 294 457 294 460 295 463 c 1
 366 479 404 512 404 558 c 0
 404 582 398 590 354 617 c 0
 338 626 332 636 332 649 c 0
 332 675 354 695 381 695 c 0
 426 695 468 648 468 597 c 0
 468 510 396 439 299 430 c 1
EndSplineSet
KernsSLIF: 89 27 1 0 86 1 1 0 84 13 1 0 261 -66 1 0 256 -66 1 0 257 -66 1 0 225 -111 1 0 65 -66 1 0
EndChar
StartChar: guillemotright
Encoding: 187 187 120
Width: 406
Flags: W
Fore
43 74 m 1
 28 87 l 1
 145 238 l 1
 47 389 l 1
 60 401 l 1
 221 235 l 1
 43 74 l 1
186 74 m 1
 171 87 l 1
 288 238 l 1
 190 389 l 1
 203 401 l 1
 364 235 l 1
 186 74 l 1
EndSplineSet
KernsSLIF: 89 -102 1 0 87 -115 1 0 86 -114 1 0 84 -113 1 0 261 -44 1 0 256 -44 1 0 257 -44 1 0 225 -67 1 0 65 -44 1 0
EndChar
StartChar: ellipsis
Encoding: 188 8230 121
Width: 774
Flags: MW
HStem: -15 20
VStem: 29 118<28.5 60.5> 284 118<28.5 60.5> 539 118<28.5 60.5>
Fore
88 103 m 0
 121 103 147 77 147 44 c 0
 147 11 121 -15 87 -15 c 0
 55 -15 29 12 29 45 c 0
 29 77 56 103 88 103 c 0
598 103 m 0
 631 103 657 77 657 44 c 0
 657 11 631 -15 598 -15 c 0
 565 -15 539 12 539 45 c 0
 539 77 566 103 598 103 c 0
343 103 m 0
 375 103 402 77 402 44 c 0
 402 11 375 -15 343 -15 c 0
 310 -15 284 12 284 45 c 0
 284 76 311 103 343 103 c 0
EndSplineSet
Ligature: 0 1 'liga' period period period
EndChar
StartChar: perthousand
Encoding: 189 8240 122
Width: 1125
Flags: W
HStem: -7 32<532 578 886 932> 303 32<588 632 942 986> 330 32<202.5 248> 643 32<259 302.5>
VStem: 100 67<427.5 490.5> 341 67<513.5 579.5> 429 67<90.5 152> 671 67<174.5 240.5> 783 67<90.5 152> 1025 67<175 240.5>
Fore
664 679 m 1xdfc0
 718 679 l 1
 179 -27 l 1
 123 -27 l 1
 664 679 l 1xdfc0
623 335 m 0
 686 335 738 276 738 205 c 0
 738 95 646 -7 548 -7 c 0
 481 -7 429 52 429 129 c 0
 429 230 528 335 623 335 c 0
616 303 m 0
 560 303 496 198 496 106 c 0
 496 56 516 25 548 25 c 0
 608 25 671 126 671 223 c 0
 671 269 648 303 616 303 c 0
293 675 m 0
 356 675 408 616 408 543 c 0
 408 435 316 330 222 330 c 0x3fc0
 152 330 100 388 100 467 c 0
 100 569 199 675 293 675 c 0
287 643 m 0
 231 643 167 537 167 444 c 0
 167 394 187 362 218 362 c 0
 278 362 341 464 341 563 c 0
 341 609 318 643 287 643 c 0
977 335 m 0xcfc0
 1040 335 1092 276 1092 205 c 0
 1092 95 1000 -7 902 -7 c 0
 835 -7 783 52 783 129 c 0
 783 230 882 335 977 335 c 0xcfc0
970 303 m 0
 914 303 850 198 850 106 c 0
 850 56 870 25 902 25 c 0
 962 25 1025 127 1025 223 c 0
 1025 269 1002 303 970 303 c 0
EndSplineSet
EndChar
StartChar: questiondown
Encoding: 191 191 123
Width: 351
Flags: MW
HStem: -280 70<80.5 86.5> 423 20<222 254.5>
VStem: -33 52<-166 -123.5> 226 52<106 133.5>
Fore
239 443 m 0
 270 443 292 417 292 382 c 0
 292 346 263 315 229 315 c 0
 200 315 177 342 177 376 c 0
 177 412 205 443 239 443 c 0
149 259 m 0
 203 262 278 172 278 103 c 0
 278 68 252 17 222 -8 c 0
 202 -24 193 -27 126 -47 c 0
 53 -68 19 -100 19 -147 c 0
 19 -187 41 -210 81 -210 c 0
 92 -210 104 -209 116 -206 c 0
 127 -203 135 -202 141 -202 c 0
 160 -202 176 -220 176 -240 c 0
 176 -265 157 -280 125 -280 c 0
 36 -280 -33 -211 -33 -121 c 0
 -33 -68 -10 -19 27 5 c 0
 53 22 53 22 153 50 c 0
 199 62 226 89 226 123 c 0
 226 144 215 163 198 173 c 0
 188 179 182 180 148 181 c 0
 120 181 108 192 108 215 c 0
 108 240 124 257 149 259 c 0
EndSplineSet
EndChar
StartChar: grave
Encoding: 193 96 124
Width: 479
Flags: W
Fore
342 528 m 2
 203 666 l 2
 181 688 169 706 169 717 c 0
 169 731 188 744 210 744 c 0
 227 744 241 737 252 724 c 0
 255 721 255 721 273 692 c 2
 367 540 l 1
 374 530 375 527 375 525 c 0
 375 523 374 521 372 520 c 2
 366 516 l 2
 364 514 363 514 361 514 c 0
 358 514 351 519 342 528 c 2
EndSplineSet
EndChar
StartChar: acute
Encoding: 194 180 125
Width: 480
Flags: W
Fore
279 539 m 2
 373 692 l 2
 393 724 393 724 400 730 c 0
 409 739 421 744 436 744 c 0
 458 744 477 731 477 717 c 0
 477 705 465 687 443 666 c 2
 300 525 l 1
 293 517 287 513 284 513 c 0
 283 513 281 514 279 516 c 2
 274 519 l 2
 272 520 271 522 271 524 c 0
 271 526 273 530 279 539 c 2
EndSplineSet
EndChar
StartChar: circumflex
Encoding: 195 710 126
Width: 479
Flags: W
Fore
344 652 m 1
 266 566 l 2
 237 534 214 514 205 514 c 0
 200 514 192 521 192 525 c 0
 192 533 192 533 270 639 c 1
 320 715 l 2
 334 736 344 744 356 744 c 0
 377 744 390 729 396 697 c 0
 411 620 415 602 433 550 c 0
 436 541 438 532 438 526 c 0
 438 519 433 513 427 513 c 0
 418 513 411 524 387 569 c 2
 344 652 l 1
EndSplineSet
EndChar
StartChar: tilde
Encoding: 196 732 127
Width: 479
Flags: MW
HStem: 513 64 600 64<267 270.5>
Fore
281 664 m 0
 299 664 299 664 353 600 c 0
 363 587 380 577 389 577 c 0
 403 577 433 610 453 648 c 0
 457 654 460 657 464 657 c 0
 471 657 477 653 477 648 c 0
 477 641 469 623 451 588 c 0
 425 540 395 513 367 513 c 0
 352 513 352 513 295 579 c 0
 279 598 276 600 265 600 c 0
 245 600 227 580 198 526 c 0
 196 522 192 518 190 518 c 0
 184 518 173 526 173 530 c 0
 173 536 186 567 199 593 c 0
 223 637 253 664 281 664 c 0
EndSplineSet
EndChar
StartChar: macron
Encoding: 197 175 128
Width: 480
Flags: MW
HStem: 610 48<212 439>
Fore
198 610 m 1
 212 658 l 1
 453 658 l 1
 439 610 l 1
 198 610 l 1
EndSplineSet
EndChar
StartChar: breve
Encoding: 198 728 129
Width: 480
Flags: MW
HStem: 551 46<302.5 337>
Fore
214 685 m 1
 257 685 l 1
 257 629 281 597 324 597 c 0
 365 597 396 625 423 685 c 1
 466 685 l 1
 451 639 439 617 415 593 c 0
 389 567 354 551 320 551 c 0
 270 551 231 582 218 632 c 0
 214 647 214 649 214 685 c 1
EndSplineSet
EndChar
StartChar: dotaccent
Encoding: 199 729 130
Width: 479
Flags: W
Fore
336 647 m 0
 357 647 372 631 372 608 c 0
 372 577 349 551 322 551 c 0
 300 551 285 569 285 594 c 0
 285 621 310 647 336 647 c 0
EndSplineSet
EndChar
StartChar: dieresis
Encoding: 200 168 131
Width: 480
Flags: W
Fore
250 660 m 0
 274 660 293 638 293 609 c 0
 293 577 269 551 241 551 c 0
 215 551 196 573 196 602 c 0
 196 633 221 660 250 660 c 0
393 660 m 0
 417 660 436 638 436 609 c 0
 436 577 412 551 384 551 c 0
 358 551 339 573 339 602 c 0
 339 633 364 660 393 660 c 0
EndSplineSet
EndChar
StartChar: ring
Encoding: 202 730 132
Width: 480
Flags: MW
HStem: 513 44<321 359> 698 43<332 369.5>
VStem: 237 38<603 641> 414 38<614.5 653.5>
Fore
354 741 m 0
 409 741 452 696 452 638 c 0
 452 573 397 513 336 513 c 0
 279 513 237 557 237 617 c 0
 237 684 291 741 354 741 c 0
352 698 m 0
 312 698 275 661 275 621 c 0
 275 585 303 557 339 557 c 0
 379 557 414 593 414 636 c 0
 414 671 387 698 352 698 c 0
EndSplineSet
EndChar
StartChar: cedilla
Encoding: 203 184 133
Width: 480
Flags: MW
HStem: -181 29<147.5 168>
VStem: 202 55<-130 -112>
Fore
214 0 m 1
 185 -44 l 1
 237 -57 257 -75 257 -109 c 0
 257 -152 215 -181 152 -181 c 0
 110 -181 85 -170 85 -153 c 0
 85 -143 94 -134 103 -134 c 0
 110 -134 110 -134 127 -146 c 0
 133 -150 142 -152 153 -152 c 0
 183 -152 202 -140 202 -120 c 0
 202 -104 185 -88 165 -86 c 0
 161 -86 151 -86 138 -87 c 2
 136 -87 l 2
 132 -87 126 -82 126 -77 c 0
 126 -76 127 -74 131 -70 c 2
 139 -60 l 1
 186 0 l 1
 214 0 l 1
EndSplineSet
EndChar
StartChar: hungarumlaut
Encoding: 205 733 134
Width: 479
Flags: W
Fore
226 539 m 2
 320 692 l 2
 340 724 340 724 347 730 c 0
 356 739 368 744 383 744 c 0
 405 744 424 731 424 717 c 0
 424 705 412 687 390 666 c 2
 247 525 l 1
 240 517 234 513 231 513 c 0
 230 513 228 514 226 516 c 2
 221 519 l 2
 219 520 218 522 218 524 c 0
 218 526 220 530 226 539 c 2
373 539 m 2
 467 692 l 2
 487 724 487 724 494 730 c 1
 503 740 515 744 531 744 c 0
 552 744 571 731 571 717 c 0
 571 705 559 687 537 666 c 2
 394 525 l 1
 387 517 381 513 378 513 c 0
 377 513 375 514 373 516 c 2
 368 519 l 2
 366 520 365 522 365 524 c 0
 365 526 367 530 373 539 c 2
EndSplineSet
EndChar
StartChar: ogonek
Encoding: 206 731 135
Width: 479
Flags: MW
HStem: -158 43
VStem: 165 64<-91 -71>
Fore
255 16 m 1
 296 16 l 1
 288 8 280 -1 272 -10 c 0
 238 -46 229 -61 229 -81 c 0
 229 -101 249 -115 276 -115 c 0
 295 -115 309 -110 335 -92 c 1
 354 -109 l 1
 312 -144 280 -158 241 -158 c 0
 198 -158 165 -127 165 -87 c 0
 165 -49 179 -33 255 16 c 1
EndSplineSet
EndChar
StartChar: caron
Encoding: 207 711 136
Width: 479
Flags: W
Fore
321 615 m 1
 399 701 l 2
 429 734 451 753 460 753 c 0
 465 753 473 746 473 741 c 0
 473 734 473 734 395 627 c 1
 378 602 l 1
 345 551 l 2
 331 530 321 522 309 522 c 0
 288 522 275 537 269 569 c 0
 264 597 260 615 257 631 c 0
 254 644 249 659 232 716 c 0
 228 727 227 733 227 738 c 0
 227 746 232 753 237 753 c 0
 247 753 250 748 278 697 c 1
 321 615 l 1
EndSplineSet
EndChar
StartChar: emdash
Encoding: 208 8212 137
Width: 774
Flags: MW
HStem: 194 71<47 732>
Fore
47 265 m 2
 732 265 l 2
 748 265 750 263 750 253 c 2
 750 209 l 2
 750 195 749 194 732 194 c 2
 47 194 l 2
 32 194 32 194 32 209 c 2
 32 253 l 2
 32 260 38 265 47 265 c 2
EndSplineSet
EndChar
StartChar: AE
Encoding: 225 198 138
Width: 959
Flags: W
HStem: -6 20 -5 20 0 20 353 33<379 508> 355 33<601 689> 669 20<680 708.5> 674 20 675 20
Fore
591 355 m 1x09
 529 141 l 2
 519 107 514 85 514 74 c 0
 514 57 525 44 544 38 c 0
 556 33 582 32 634 32 c 2
 663 32 l 2
 778 32 796 41 864 140 c 1
 892 134 l 1
 827 -5 l 1
 797 -4 780 -3 715 -3 c 2
 614 -2 l 2
 574 -1 546 0 538 0 c 0
 529 0 504 -1 471 -2 c 2
 398 -5 l 1x48
 349 -6 l 1
 344 -6 l 2x80
 337 -6 332 -3 333 1 c 1
 334 7 l 1
 335 20 l 1x20
 337 29 338 30 354 30 c 0
 408 32 416 41 443 128 c 1
 508 353 l 1
 353 353 l 1
 154 123 l 2
 123 88 108 64 108 51 c 0
 108 35 121 29 168 26 c 0
 172 26 174 24 174 21 c 1
 173 16 l 1
 172 5 l 1
 171 -3 169 -5 161 -5 c 0x50
 153 -5 153 -5 108 -2 c 0
 88 -1 74 0 72 0 c 0x20
 14 -3 -32 -5 -47 -5 c 0
 -56 -5 -59 -3 -59 3 c 0
 -59 4 -59 4 -58 10 c 2
 -57 17 l 1
 -56 22 -55 23 -53 24 c 0
 -51 25 -47 26 -32 28 c 0
 20 35 27 40 67 85 c 1
 444 532 l 2
 492 588 511 619 511 640 c 0
 511 659 500 662 435 662 c 0
 429 662 427 665 427 669 c 0x44
 427 671 427 672 428 674 c 1x02
 430 683 l 1
 433 694 435 695 450 695 c 2x01
 680 689 l 1x44
 737 689 872 691 902 692 c 0
 925 693 945 694 955 694 c 0x02
 964 694 969 691 969 687 c 0
 969 686 968 684 967 681 c 2
 965 675 l 1
 932 556 l 1
 905 563 l 1
 902 647 892 657 815 657 c 2
 745 657 l 2
 704 657 698 656 687 649 c 0
 674 641 671 634 658 591 c 1
 601 388 l 1
 691 388 l 2
 724 388 743 391 758 399 c 0
 774 408 775 410 794 448 c 0
 795 450 797 451 798 451 c 0
 799 451 800 451 801 450 c 2
 806 449 l 1
 813 446 l 2
 820 443 822 442 822 438 c 0
 822 436 822 436 818 425 c 1
 777 296 l 1
 771 279 771 279 767 279 c 0
 765 279 763 279 758 281 c 2
 751 283 l 2
 746 284 744 286 744 290 c 0
 744 291 744 293 745 296 c 0
 750 317 750 320 750 329 c 0
 750 352 750 352 689 355 c 1
 591 355 l 1x09
516 386 m 1x10
 588 636 l 1
 564 615 545 593 503 541 c 2
 379 386 l 1
 516 386 l 1x10
EndSplineSet
EndChar
StartChar: ordfeminine
Encoding: 227 170 139
Width: 442
Flags: MW
VStem: 306 53
Fore
396 525 m 2
 367 437 l 2
 362 421 359 409 359 404 c 0
 359 397 365 390 371 390 c 0
 383 390 407 414 426 446 c 0
 431 453 434 457 438 457 c 0
 442 457 453 447 453 443 c 0
 453 436 427 402 404 379 c 0
 372 346 355 335 337 335 c 0
 318 335 306 350 306 374 c 0
 306 395 308 405 321 461 c 1
 254 377 198 335 153 335 c 0
 129 335 114 354 114 383 c 0
 114 436 151 506 210 567 c 0
 263 620 321 648 382 648 c 2
 390 648 l 1
 393 652 396 657 398 663 c 0
 402 671 405 674 408 675 c 2
 412 675 l 1
 414 675 l 1
 440 673 l 2
 442 673 444 670 444 667 c 0
 444 664 443 660 441 656 c 0
 436 647 418 593 396 525 c 2
341 608 m 0
 314 610 265 580 231 543 c 0
 202 510 178 459 175 423 c 0
 173 404 183 390 197 390 c 0
 241 390 361 537 361 591 c 0
 361 601 353 607 341 608 c 0
EndSplineSet
EndChar
StartChar: Lslash
Encoding: 232 321 140
Width: 590
Flags: W
HStem: -5 20 1 32<250 296.5> 669 20<264.5 278.5> 674 20<185 192 406 412>
Fore
168 373 m 1x80
 222 556 l 1
 237 612 237 612 237 622 c 0
 237 642 221 655 192 659 c 0
 171 662 169 662 169 668 c 0
 169 670 170 675 171 677 c 2
 173 682 l 2
 177 691 181 694 189 694 c 0x10
 195 694 212 693 231 691 c 0
 243 690 258 689 271 689 c 0x20
 286 689 347 691 375 693 c 2
 406 694 l 2
 418 694 422 689 421 679 c 1
 420 673 l 1
 419 662 418 661 398 662 c 1
 344 661 340 657 316 580 c 1
 270 423 l 1
 415 504 l 1
 400 455 l 1
 256 374 l 1
 179 108 l 2
 174 91 171 78 171 71 c 0
 171 57 179 46 193 40 c 0
 205 35 225 33 275 33 c 0x50
 354 33 438 43 456 54 c 0
 465 59 505 105 527 135 c 1
 554 124 l 1
 503 16 l 2
 493 -5 493 -5 484 -5 c 0x80
 467 -5 415 -3 371 -1 c 0
 331 0 305 1 288 1 c 0x50
 195 1 55 -1 32 -3 c 0
 19 -4 4 -5 1 -5 c 0
 -7 -5 -10 -3 -10 3 c 0
 -10 5 -10 7 -9 9 c 1
 -8 17 l 1
 -5 26 -3 27 13 28 c 0
 67 35 68 37 97 132 c 1
 154 324 l 1
 60 271 l 1
 75 320 l 1
 168 373 l 1x80
EndSplineSet
EndChar
StartChar: Oslash
Encoding: 233 216 141
Width: 793
Flags: MW
HStem: -20 39<346 423> 669 39<436 515.5>
VStem: 70 101<266.5 333.5> 690 102<348.5 422.5>
Fore
0 15 m 2
 121 115 l 1
 89 163 70 231 70 302 c 0
 70 526 251 708 474 708 c 0
 572 708 651 675 716 606 c 1
 826 697 l 2
 833 702 838 704 848 704 c 2
 870 704 l 2
 875 704 879 701 879 697 c 0
 879 693 877 690 874 688 c 2
 739 576 l 1
 775 519 792 459 792 386 c 0
 792 164 610 -20 389 -20 c 0
 290 -20 207 15 145 84 c 1
 39 -4 l 2
 30 -12 23 -15 15 -15 c 2
 -9 -15 l 2
 -13 -15 -17 -11 -17 -8 c 0
 -17 -3 -10 7 0 15 c 2
188 170 m 1
 657 557 l 1
 615 634 557 669 474 669 c 0
 398 669 326 634 276 573 c 0
 211 496 171 384 171 283 c 0
 171 244 176 210 188 170 c 1
672 520 m 1
 203 132 l 1
 243 57 305 19 387 19 c 0
 459 19 524 49 577 108 c 0
 648 186 690 295 690 402 c 0
 690 445 685 480 672 520 c 1
EndSplineSet
KernsSLIF: 65 -37 0 0
EndChar
StartChar: OE
Encoding: 234 338 142
Width: 1033
Flags: W
HStem: -20 38<367 421> -5 37<719 777 777 825.5> 355 33<697 782> 669 39<506.5 545> 670 20<821.5 844> 674 20<1044 1048.5>
VStem: 80 101<240.5 330>
Fore
687 355 m 1x26
 625 141 l 2
 615 107 610 86 610 75 c 0
 610 58 621 45 640 38 c 0
 652 34 676 32 719 32 c 2
 777 32 l 2
 874 32 895 44 962 140 c 1
 990 134 l 1
 924 -5 l 1
 712 -5 l 2x62
 612 -5 603 -5 496 -15 c 0
 461 -18 431 -20 411 -20 c 0
 323 -20 230 13 172 66 c 0
 112 120 80 196 80 285 c 0
 80 516 281 708 523 708 c 0x92
 567 708 567 708 726 696 c 0
 771 692 813 690 830 690 c 0x0a
 858 690 972 692 991 693 c 2
 1044 694 l 2
 1053 694 1058 691 1058 686 c 0
 1058 685 1058 685 1055 675 c 2
 1022 556 l 1
 995 563 l 1
 992 647 982 657 905 657 c 2
 841 657 l 2
 779 657 772 653 761 611 c 1
 697 388 l 1
 784 388 l 2
 817 388 836 391 851 399 c 0
 866 408 868 410 887 448 c 0
 888 450 890 451 892 451 c 2
 892 451 893 451 894 450 c 2
 898 449 l 1
 906 446 l 2
 913 443 915 442 915 438 c 0
 915 437 915 436 911 425 c 1
 869 297 l 2
 864 281 864 280 860 280 c 0
 857 280 857 280 851 282 c 2
 844 284 l 2
 838 286 836 287 836 291 c 0
 836 292 836 294 837 297 c 0
 841 310 843 322 843 332 c 0
 843 353 837 355 782 355 c 2
 687 355 l 1x26
528 100 m 1x92
 646 512 l 1
 665 577 666 581 666 601 c 0
 666 648 632 669 556 669 c 0
 457 669 377 639 311 578 c 0
 230 503 181 387 181 273 c 0
 181 121 281 18 428 18 c 0
 465 18 490 26 504 41 c 0
 513 52 516 61 528 100 c 1x92
EndSplineSet
EndChar
StartChar: ordmasculine
Encoding: 235 186 143
Width: 442
Flags: MW
HStem: 335 27<225.5 275> 648 27<295 327.5>
VStem: 125 61<430.5 459> 368 61<518.5 585.5>
Fore
309 675 m 0
 379 675 429 622 429 549 c 0
 429 439 340 335 246 335 c 0
 174 335 125 390 125 471 c 0
 125 573 217 675 309 675 c 0
309 648 m 0
 281 648 257 629 233 591 c 0
 206 547 186 481 186 437 c 0
 186 389 207 362 244 362 c 0
 306 362 368 466 368 571 c 0
 368 620 346 648 309 648 c 0
EndSplineSet
EndChar
StartChar: ae
Encoding: 241 230 144
Width: 627
Flags: W
HStem: -17 57<418 441> -17 69 413 29<515 537.5> 425 20<403 419.5>
VStem: -1 74<81.5 110> 283 79<112 139> 568 69<336 377>
Fore
430 422 m 2x5e
 422 404 l 1
 434 413 440 417 445 421 c 0
 464 434 498 442 532 442 c 0
 597 442 637 412 637 362 c 0
 637 275 538 219 366 207 c 1
 363 175 362 163 362 144 c 0
 362 80 393 40 443 40 c 0
 481 40 520 57 547 84 c 2
 560 97 l 1
 580 81 l 1
 568 65 l 2
 531 14 472 -17 410 -17 c 0xae
 329 -17 283 37 283 131 c 0
 283 147 284 161 287 182 c 1
 185 38 120 -17 52 -17 c 0
 19 -17 -1 10 -1 55 c 0
 -1 195 207 412 340 412 c 0
 349 412 356 411 371 408 c 1
 377 420 l 2
 388 441 394 445 412 445 c 0
 427 445 433 442 433 434 c 0
 433 430 432 426 430 422 c 2x5e
298 353 m 0x6e
 246 356 172 301 121 222 c 0
 92 177 73 126 73 94 c 0
 73 69 86 52 106 52 c 0
 143 52 200 103 264 194 c 0
 301 247 331 306 331 328 c 0
 331 343 319 352 298 353 c 0x6e
372 231 m 1
 378 232 378 232 385 232 c 0
 413 234 442 240 467 250 c 0
 534 275 568 312 568 360 c 0
 568 394 552 413 523 413 c 0
 464 413 411 349 372 231 c 1
EndSplineSet
KernsSLIF: 121 25 0 0 119 19 0 0 118 19 0 0
EndChar
StartChar: dotlessi
Encoding: 245 305 145
Width: 295
Flags: MW
HStem: -17 69 373 69
VStem: 48 84
Fore
84 331 m 1
 63 347 l 1
 116 409 164 442 203 442 c 0
 225 442 245 424 245 404 c 0
 245 384 233 351 158 154 c 0
 136 96 132 83 132 74 c 0
 132 63 143 52 155 52 c 0
 176 52 204 79 252 146 c 1
 271 127 l 1
 211 36 146 -17 95 -17 c 0
 68 -17 48 1 48 26 c 0
 48 44 49 47 70 102 c 0
 89 149 137 277 153 321 c 0
 159 335 162 348 162 356 c 0
 162 364 153 373 144 373 c 0
 130 373 109 358 84 331 c 1
EndSplineSet
EndChar
StartChar: lslash
Encoding: 248 322 146
Width: 276
Flags: MW
HStem: -17 75
Fore
143 421 m 1
 194 601 l 1
 201 629 209 667 209 679 c 0
 209 704 189 719 149 723 c 1
 150 733 151 737 155 745 c 1
 161 746 l 1
 210 755 l 2
 217 756 254 765 265 769 c 0
 280 773 282 774 287 774 c 0
 289 774 289 774 295 773 c 2
 303 773 l 2
 310 772 312 771 312 767 c 0
 312 766 312 766 309 755 c 2
 221 453 l 1
 321 502 l 1
 310 460 l 1
 209 410 l 1
 134 151 l 2
 123 113 118 91 118 80 c 0
 118 67 127 58 140 58 c 0
 158 58 176 71 215 111 c 2
 239 137 l 1
 258 119 l 1
 245 104 l 2
 223 78 187 43 158 21 c 0
 123 -7 101 -17 76 -17 c 0
 54 -17 34 3 34 23 c 0
 34 34 34 34 50 93 c 1
 131 378 l 1
 34 330 l 1
 48 374 l 1
 143 421 l 1
EndSplineSet
EndChar
StartChar: oslash
Encoding: 249 248 147
Width: 461
Flags: W
HStem: -17 32<162 207.5> 409 33<243.5 288> 423 20<458 477 477 479>
Fore
-16 9 m 2xa0
 50 72 l 1
 38 102 33 127 33 161 c 0
 33 308 145 442 269 442 c 0xc0
 317 442 354 424 384 387 c 1
 435 435 l 2
 441 440 448 443 458 443 c 2
 477 443 l 2
 481 443 484 440 484 436 c 0
 484 431 482 429 475 422 c 2
 404 355 l 1
 418 323 423 300 423 272 c 0
 423 121 305 -17 175 -17 c 0
 129 -17 99 -1 69 39 c 1
 24 -3 l 1
 14 -14 12 -15 5 -15 c 2
 -17 -15 l 2
 -23 -15 -28 -12 -28 -7 c 0
 -28 -3 -25 1 -16 9 c 2xa0
107 125 m 1
 339 344 l 1
 326 390 306 409 270 409 c 0
 217 409 173 366 138 282 c 1
 118 230 107 179 107 125 c 1
343 297 m 1
 113 80 l 1
 124 37 146 15 178 15 c 0
 237 15 285 67 317 166 c 0
 333 213 341 256 343 297 c 1
EndSplineSet
EndChar
StartChar: oe
Encoding: 250 339 148
Width: 682
Flags: W
HStem: -17 32<150.5 197> -17 57<469 492> 409 33<246.5 290> 413 29<551 588.5>
VStem: 27 74<108.5 167.5> 617 69<336.5 378>
Fore
612 97 m 1x5c
 632 81 l 1
 621 65 l 2
 585 15 523 -17 461 -17 c 0x6c
 401 -17 361 9 341 63 c 1
 291 10 233 -17 170 -17 c 0
 86 -17 27 56 27 161 c 0
 27 309 140 442 265 442 c 0xac
 331 442 380 410 409 348 c 1
 461 412 517 442 585 442 c 0
 648 442 686 412 686 362 c 0
 686 275 589 219 419 207 c 1
 411 178 409 164 409 142 c 0
 409 80 443 40 495 40 c 0
 532 40 572 57 599 84 c 2
 612 97 l 1x5c
266 409 m 0
 227 409 192 387 165 344 c 0
 127 285 101 199 101 136 c 0
 101 59 127 15 174 15 c 0xac
 220 15 267 50 295 108 c 0
 327 173 347 249 347 309 c 0
 347 368 314 409 266 409 c 0
424 231 m 1x1c
 430 232 430 232 438 232 c 0
 465 234 493 240 518 250 c 0
 585 276 617 312 617 361 c 0
 617 395 602 413 575 413 c 0
 516 413 463 349 424 231 c 1x1c
EndSplineSet
EndChar
StartChar: germandbls
Encoding: 251 223 149
Width: 498
Flags: MW
HStem: -255 54 0 55<300.5 302.5> 734 35<374.5 417.5>
VStem: 287 74<379 380.5> 367 67<127 149.5> 509 76<588.5 642.5>
Fore
14 0 m 1
 118 404 l 2
 145 510 174 585 211 645 c 0
 258 720 337 769 412 769 c 0
 507 769 585 702 585 622 c 0
 585 555 549 515 454 475 c 0
 388 448 361 422 361 386 c 0
 361 372 367 355 385 315 c 0
 420 241 434 198 434 166 c 0
 434 88 343 0 262 0 c 0
 230 0 203 21 203 46 c 0
 203 62 220 80 235 80 c 0
 245 80 257 76 272 67 c 0
 285 59 297 55 304 55 c 0
 318 55 342 71 354 89 c 0
 363 102 367 116 367 132 c 0
 367 167 359 188 302 314 c 0
 292 337 287 355 287 369 c 0
 287 392 306 423 335 447 c 0
 349 459 375 474 425 500 c 0
 486 530 509 560 509 608 c 0
 509 677 452 734 383 734 c 0
 331 734 287 698 258 630 c 0
 236 580 200 473 183 405 c 2
 90 39 l 1
 69 -41 30 -131 -8 -185 c 0
 -39 -230 -83 -255 -131 -255 c 0
 -167 -255 -190 -238 -190 -212 c 0
 -190 -193 -174 -175 -158 -175 c 0
 -148 -175 -136 -179 -122 -187 c 0
 -108 -196 -95 -201 -86 -201 c 0
 -76 -201 -62 -192 -53 -179 c 0
 -41 -162 -40 -159 14 0 c 1
EndSplineSet
EndChar
StartChar: Adieresis
Encoding: 256 196 150
Width: 701
Flags: W
HStem: -6 20 -5 20 0 20 273 39<252.5 267 267 435>
Fore
437 273 m 1x90
 267 273 l 2
 238 273 229 272 223 267 c 0
 218 264 218 264 194 228 c 1
 138 140 l 2
 99 79 91 63 91 49 c 0
 91 33 106 28 149 27 c 0
 166 27 171 26 170 22 c 1
 169 14 l 1x90
 168 6 l 1
 168 -2 163 -5 154 -5 c 0x40
 150 -5 141 -5 133 -4 c 0
 105 -2 58 0 46 0 c 0x20
 27 0 25 0 -17 -4 c 0
 -23 -5 -33 -5 -42 -5 c 0
 -50 -5 -53 -3 -53 2 c 1
 -52 11 l 1
 -50 17 l 2
 -47 26 -46 27 -30 28 c 0
 9 28 20 37 64 101 c 1
 398 624 l 1
 405 638 413 651 421 662 c 1
 448 710 459 719 483 720 c 1
 536 106 l 2
 541 49 547 37 572 32 c 0
 598 27 607 23 606 17 c 2
 605 10 l 1
 603 1 l 2
 602 -3 598 -5 591 -5 c 0
 574 -5 574 -5 560 -2 c 0
 553 -1 543 0 527 0 c 0
 513 0 491 -1 464 -2 c 2
 420 -5 l 1x40
 393 -6 l 1
 389 -6 l 2
 382 -6 376 -1 378 5 c 1
 378 6 l 1
 379 17 l 2
 380 28 381 28 404 28 c 0
 439 28 452 39 452 68 c 0
 452 80 452 82 449 125 c 1
 437 273 l 1x90
435 312 m 1
 419 581 l 1
 249 312 l 1
 435 312 l 1
391 859 m 0
 418 859 438 840 438 814 c 0
 438 782 410 753 380 753 c 0
 353 753 332 776 332 804 c 0
 332 833 359 859 391 859 c 0
584 859 m 0
 611 859 631 840 631 814 c 0
 631 782 603 753 573 753 c 0
 547 753 525 776 525 804 c 0
 525 833 552 859 584 859 c 0
EndSplineSet
KernsSLIF: 121 -59 0 0 119 -59 0 0 118 -61 0 0 117 -28 0 0 116 -34 0 0 39 -83 0 0 186 -86 0 0 113 -25 0 0 46 -14 0 0 111 -46 0 0 45 -33 0 0 172 -76 0 0 171 -63 0 0 103 -47 0 0 100 -24 0 0 44 -19 0 0 99 -42 0 0 98 -34 0 0 97 -12 0 0 89 -68 0 0 87 -138 0 0 86 -138 0 0 85 -88 0 0 84 -79 0 0 81 -71 0 0 79 -74 0 0 71 -79 0 0 67 -78 0 0
EndChar
StartChar: Aacute
Encoding: 257 193 151
Width: 701
Flags: W
HStem: -6 20 -5 20 0 20 273 39<252.5 267 267 435>
Fore
437 273 m 1x90
 267 273 l 2
 238 273 229 272 223 267 c 0
 218 264 218 264 194 228 c 1
 138 140 l 2
 99 79 91 63 91 49 c 0
 91 33 106 28 149 27 c 0
 166 27 171 26 170 22 c 1
 169 14 l 1x90
 168 6 l 1
 168 -2 163 -5 154 -5 c 0x40
 150 -5 141 -5 133 -4 c 0
 105 -2 58 0 46 0 c 0x20
 27 0 25 0 -17 -4 c 0
 -23 -5 -33 -5 -42 -5 c 0
 -50 -5 -53 -3 -53 2 c 1
 -52 11 l 1
 -50 17 l 2
 -47 26 -46 27 -30 28 c 0
 9 28 20 37 64 101 c 1
 398 624 l 1
 405 638 413 651 421 662 c 1
 448 710 459 719 483 720 c 1
 536 106 l 2
 541 49 547 37 572 32 c 0
 598 27 607 23 606 17 c 2
 605 10 l 1
 603 1 l 2
 602 -3 598 -5 591 -5 c 0
 574 -5 574 -5 560 -2 c 0
 553 -1 543 0 527 0 c 0
 513 0 491 -1 464 -2 c 2
 420 -5 l 1x40
 393 -6 l 1
 389 -6 l 2
 382 -6 376 -1 378 5 c 1
 378 6 l 1
 379 17 l 2
 380 28 381 28 404 28 c 0
 439 28 452 39 452 68 c 0
 452 80 452 82 449 125 c 1
 437 273 l 1x90
435 312 m 1
 419 581 l 1
 249 312 l 1
 435 312 l 1
575 830 m 2
 479 761 l 2
 472 756 465 753 461 753 c 0
 459 753 457 754 456 755 c 2
 449 759 l 2
 443 764 442 764 442 767 c 0
 442 771 444 775 449 782 c 2
 532 885 l 2
 575 938 586 946 613 946 c 0
 634 946 654 929 654 912 c 0
 654 891 640 876 575 830 c 2
EndSplineSet
KernsSLIF: 121 -59 0 0 119 -60 0 0 118 -63 0 0 117 -28 0 0 116 -34 0 0 39 -84 0 0 113 -25 0 0 46 -16 0 0 111 -45 0 0 45 -33 0 0 172 -77 0 0 171 -64 0 0 103 -45 0 0 101 -36 0 0 100 -24 0 0 44 -19 0 0 99 -41 0 0 98 -34 0 0 97 -12 0 0 89 -68 0 0 87 -140 0 0 86 -136 0 0 85 -86 0 0 84 -79 0 0 81 -72 0 0 79 -71 0 0 71 -80 0 0 67 -79 0 0
EndChar
StartChar: Agrave
Encoding: 258 192 152
Width: 701
Flags: W
HStem: -6 20 -5 20 0 20 273 39<252.5 267 267 435>
Fore
437 273 m 1x90
 267 273 l 2
 238 273 229 272 223 267 c 0
 218 264 218 264 194 228 c 1
 138 140 l 2
 99 79 91 63 91 49 c 0
 91 33 106 28 149 27 c 0
 166 27 171 26 170 22 c 1
 169 14 l 1x90
 168 6 l 1
 168 -2 163 -5 154 -5 c 0x40
 150 -5 141 -5 133 -4 c 0
 105 -2 58 0 46 0 c 0x20
 27 0 25 0 -17 -4 c 0
 -23 -5 -33 -5 -42 -5 c 0
 -50 -5 -53 -3 -53 2 c 1
 -52 11 l 1
 -50 17 l 2
 -47 26 -46 27 -30 28 c 0
 9 28 20 37 64 101 c 1
 398 624 l 1
 405 638 413 651 421 662 c 1
 448 710 459 719 483 720 c 1
 536 106 l 2
 541 49 547 37 572 32 c 0
 598 27 607 23 606 17 c 2
 605 10 l 1
 603 1 l 2
 602 -3 598 -5 591 -5 c 0
 574 -5 574 -5 560 -2 c 0
 553 -1 543 0 527 0 c 0
 513 0 491 -1 464 -2 c 2
 420 -5 l 1x40
 393 -6 l 1
 389 -6 l 2
 382 -6 376 -1 378 5 c 1
 378 6 l 1
 379 17 l 2
 380 28 381 28 404 28 c 0
 439 28 452 39 452 68 c 0
 452 80 452 82 449 125 c 1
 437 273 l 1x90
435 312 m 1
 419 581 l 1
 249 312 l 1
 435 312 l 1
473 761 m 2
 377 830 l 2
 312 877 299 890 299 912 c 0
 299 929 319 946 340 946 c 0
 366 946 378 937 420 885 c 2
 503 782 l 2
 508 776 510 772 510 768 c 0
 510 764 509 763 505 760 c 2
 497 755 l 2
 495 754 493 753 491 753 c 0
 488 753 480 757 473 761 c 2
EndSplineSet
KernsSLIF: 46 -12 0 0 44 -20 0 0 89 -68 0 0 87 -140 0 0 86 -136 0 0 85 -87 0 0 84 -79 0 0 81 -72 0 0 79 -71 0 0 71 -79 0 0 67 -75 0 0
EndChar
StartChar: Acircumflex
Encoding: 259 194 153
Width: 701
Flags: W
HStem: -6 20 -5 20 0 20 273 39<252.5 267 267 435>
Fore
437 273 m 1x90
 267 273 l 2
 238 273 229 272 223 267 c 0
 218 264 218 264 194 228 c 1
 138 140 l 2
 99 79 91 63 91 49 c 0
 91 33 106 28 149 27 c 0
 166 27 171 26 170 22 c 1
 169 14 l 1x90
 168 6 l 1
 168 -2 163 -5 154 -5 c 0x40
 150 -5 141 -5 133 -4 c 0
 105 -2 58 0 46 0 c 0x20
 27 0 25 0 -17 -4 c 0
 -23 -5 -33 -5 -42 -5 c 0
 -50 -5 -53 -3 -53 2 c 1
 -52 11 l 1
 -50 17 l 2
 -47 26 -46 27 -30 28 c 0
 9 28 20 37 64 101 c 1
 398 624 l 1
 405 638 413 651 421 662 c 1
 448 710 459 719 483 720 c 1
 536 106 l 2
 541 49 547 37 572 32 c 0
 598 27 607 23 606 17 c 2
 605 10 l 1
 603 1 l 2
 602 -3 598 -5 591 -5 c 0
 574 -5 574 -5 560 -2 c 0
 553 -1 543 0 527 0 c 0
 513 0 491 -1 464 -2 c 2
 420 -5 l 1x40
 393 -6 l 1
 389 -6 l 2
 382 -6 376 -1 378 5 c 1
 378 6 l 1
 379 17 l 2
 380 28 381 28 404 28 c 0
 439 28 452 39 452 68 c 0
 452 80 452 82 449 125 c 1
 437 273 l 1x90
435 312 m 1
 419 581 l 1
 249 312 l 1
 435 312 l 1
488 856 m 1
 360 758 l 2
 355 755 351 753 348 753 c 0
 343 753 331 763 331 768 c 0
 331 770 333 773 337 778 c 2
 469 924 l 2
 486 942 492 946 504 946 c 0
 517 946 526 939 534 921 c 2
 601 777 l 2
 602 774 603 771 603 770 c 0
 603 765 589 755 581 755 c 0
 578 755 574 758 571 762 c 2
 488 856 l 1
EndSplineSet
KernsSLIF: 46 -12 0 0 44 -20 0 0 89 -68 0 0 87 -140 0 0 86 -136 0 0 85 -87 0 0 84 -79 0 0 81 -72 0 0 79 -71 0 0 71 -79 0 0 67 -75 0 0
EndChar
StartChar: Atilde
Encoding: 260 195 154
Width: 701
Flags: W
HStem: -6 20 -5 20 0 20 273 39<252.5 267 267 435> 753 69<562 564.5> 832 69
Fore
437 273 m 1x9c
 267 273 l 2
 238 273 229 272 223 267 c 0
 218 264 218 264 194 228 c 1
 138 140 l 2
 99 79 91 63 91 49 c 0
 91 33 106 28 149 27 c 0
 166 27 171 26 170 22 c 1
 169 14 l 1x9c
 168 6 l 1
 168 -2 163 -5 154 -5 c 0x40
 150 -5 141 -5 133 -4 c 0
 105 -2 58 0 46 0 c 0x20
 27 0 25 0 -17 -4 c 0
 -23 -5 -33 -5 -42 -5 c 0
 -50 -5 -53 -3 -53 2 c 1
 -52 11 l 1
 -50 17 l 2
 -47 26 -46 27 -30 28 c 0
 9 28 20 37 64 101 c 1
 398 624 l 1
 405 638 413 651 421 662 c 1
 448 710 459 719 483 720 c 1
 536 106 l 2
 541 49 547 37 572 32 c 0
 598 27 607 23 606 17 c 2
 605 10 l 1
 603 1 l 2
 602 -3 598 -5 591 -5 c 0
 574 -5 574 -5 560 -2 c 0
 553 -1 543 0 527 0 c 0
 513 0 491 -1 464 -2 c 2
 420 -5 l 1x40
 393 -6 l 1
 389 -6 l 2
 382 -6 376 -1 378 5 c 1
 378 6 l 1
 379 17 l 2
 380 28 381 28 404 28 c 0
 439 28 452 39 452 68 c 0
 452 80 452 82 449 125 c 1
 437 273 l 1x9c
435 312 m 1
 419 581 l 1
 249 312 l 1
 435 312 l 1
452 901 m 0
 469 901 469 901 539 837 c 0
 551 826 559 822 565 822 c 0
 580 822 611 845 640 877 c 0
 657 895 660 898 665 898 c 0
 671 898 682 889 682 884 c 0
 682 877 658 838 641 816 c 0
 607 774 578 753 551 753 c 0
 529 753 511 765 471 807 c 0
 455 824 444 832 436 832 c 0
 420 832 387 804 354 762 c 0
 349 755 346 753 342 753 c 0
 334 753 325 760 325 766 c 0
 325 775 360 829 381 853 c 0
 410 885 433 901 452 901 c 0
EndSplineSet
KernsSLIF: 46 -18 0 0 44 -22 0 0 89 -68 0 0 87 -139 0 0 86 -138 0 0 85 -88 0 0 84 -79 0 0 81 -72 0 0 79 -71 0 0 71 -80 0 0 67 -79 0 0
EndChar
StartChar: Aring
Encoding: 261 197 155
Width: 701
Flags: W
HStem: -6 20 -5 20 0 20 273 39<252.5 267 267 435> 738 50<497 532> 907 50<502.5 536.5>
VStem: 413 41<829 861> 580 41<833.5 865.5>
Fore
437 273 m 1x9f
 267 273 l 2
 238 273 229 272 223 267 c 0
 218 264 218 264 194 228 c 1
 138 140 l 2
 99 79 91 63 91 49 c 0
 91 33 106 28 149 27 c 0
 166 27 171 26 170 22 c 1
 169 14 l 1x9f
 168 6 l 1
 168 -2 163 -5 154 -5 c 0x43
 150 -5 141 -5 133 -4 c 0
 105 -2 58 0 46 0 c 0x23
 27 0 25 0 -17 -4 c 0
 -23 -5 -33 -5 -42 -5 c 0
 -50 -5 -53 -3 -53 2 c 1
 -52 11 l 1
 -50 17 l 2
 -47 26 -46 27 -30 28 c 0
 9 28 20 37 64 101 c 1
 398 624 l 1
 405 638 413 651 421 662 c 1
 448 710 459 719 483 720 c 1
 536 106 l 2
 541 49 547 37 572 32 c 0
 598 27 607 23 606 17 c 2
 605 10 l 1
 603 1 l 2
 602 -3 598 -5 591 -5 c 0
 574 -5 574 -5 560 -2 c 0
 553 -1 543 0 527 0 c 0
 513 0 491 -1 464 -2 c 2
 420 -5 l 1x43
 393 -6 l 1
 389 -6 l 2
 382 -6 376 -1 378 5 c 1
 378 6 l 1
 379 17 l 2
 380 28 381 28 404 28 c 0
 439 28 452 39 452 68 c 0
 452 80 452 82 449 125 c 1
 437 273 l 1x9f
435 312 m 1
 419 581 l 1
 249 312 l 1
 435 312 l 1
526 957 m 0
 580 957 621 912 621 852 c 0
 621 788 572 738 511 738 c 0
 454 738 413 782 413 843 c 0
 413 905 464 957 526 957 c 0
520 907 m 0
 485 907 454 877 454 845 c 0
 454 813 480 788 514 788 c 0
 550 788 580 817 580 850 c 0
 580 881 553 907 520 907 c 0
EndSplineSet
KernsSLIF: 121 -59 0 0 119 -60 0 0 118 -62 0 0 117 -28 0 0 116 -34 0 0 39 -85 0 0 186 -87 0 0 113 -25 0 0 46 -16 0 0 111 -44 0 0 45 -35 0 0 172 -77 0 0 171 -64 0 0 103 -48 0 0 101 -36 0 0 100 -24 0 0 44 -20 0 0 99 -42 0 0 98 -34 0 0 97 -12 0 0 89 -68 0 0 87 -139 0 0 86 -138 0 0 85 -87 0 0 84 -79 0 0 81 -72 0 0 79 -71 0 0 71 -80 0 0 67 -75 0 0
EndChar
StartChar: Ccedilla
Encoding: 262 199 156
Width: 701
Flags: MW
HStem: -228 32<356 379> 670 38<434 517.5>
VStem: 79 101<214 356.5> 421 64<-159.5 -138.5> 704 57
Fore
423 -20 m 1
 406 -54 l 1
 461 -67 485 -91 485 -132 c 0
 485 -187 427 -228 348 -228 c 0
 306 -228 276 -214 276 -193 c 0
 276 -182 285 -172 296 -172 c 0
 305 -172 305 -172 329 -189 c 0
 336 -193 348 -196 364 -196 c 0
 394 -196 421 -175 421 -151 c 0
 421 -126 395 -107 356 -104 c 0
 341 -102 334 -99 334 -95 c 0
 334 -92 337 -87 353 -69 c 0
 359 -62 370 -46 372 -43 c 1
 384 -18 l 1
 197 0 79 125 79 303 c 0
 79 410 119 508 192 583 c 1
 269 660 381 708 487 708 c 0
 562 708 662 678 732 635 c 0
 753 622 761 614 761 606 c 0
 761 602 761 602 753 582 c 2
 720 497 l 1
 694 503 l 1
 702 524 704 535 704 548 c 0
 704 584 685 610 639 634 c 0
 598 656 542 670 493 670 c 0
 325 670 180 492 180 287 c 0
 180 125 273 18 414 18 c 0
 503 18 563 57 630 158 c 1
 657 148 l 1
 612 24 l 1
 547 -7 496 -19 423 -20 c 1
EndSplineSet
KernsSLIF: 65 14 0 0
EndChar
StartChar: Eth
Encoding: 263 208 157
Width: 756
Flags: W
HStem: -5 33<271 319.5> 0 20 348 40<72 154> 670 38<355.5 449>
VStem: 657 102<359 451.5>
Fore
165 388 m 1x68
 213 560 l 1
 223 598 228 620 228 630 c 0
 228 649 212 659 182 659 c 0
 173 659 160 658 151 657 c 0
 147 656 144 656 142 656 c 0
 136 656 134 659 134 664 c 0
 134 666 134 666 135 673 c 2
 136 680 l 2
 137 688 139 691 145 692 c 0
 181 700 290 708 369 708 c 0
 529 708 615 684 682 622 c 0
 730 576 759 496 759 407 c 0
 759 299 723 208 648 133 c 1
 557 39 439 -5 283 -5 c 0xb8
 259 -5 218 -4 179 -2 c 0
 148 -1 128 0 108 0 c 0
 96 0 73 -1 49 -2 c 0
 13 -4 -6 -5 -18 -5 c 0
 -25 -5 -26 -3 -26 7 c 1
 -27 14 l 1
 -27 19 l 2
 -27 23 -26 24 -19 26 c 0
 66 45 70 50 108 182 c 1
 154 348 l 1
 60 348 l 1
 72 388 l 1
 165 388 l 1x68
250 388 m 1
 434 388 l 1
 422 349 l 1
 239 348 l 1
 181 142 l 1
 171 105 166 84 166 73 c 0
 166 41 196 28 270 28 c 0
 369 28 438 50 506 103 c 0
 599 175 657 297 657 421 c 0
 657 580 557 670 379 670 c 0
 332 670 329 668 318 629 c 2
 250 388 l 1
EndSplineSet
EndChar
StartChar: Edieresis
Encoding: 264 203 158
Width: 590
Flags: W
HStem: -6 20 -5 20 0 20 355 33<252 348> 662 32<170.5 179> 670 20<389 398.5>
Fore
242 355 m 1x14
 180 141 l 2
 170 107 165 86 165 75 c 0
 165 58 176 45 195 38 c 0
 209 33 212 33 288 32 c 2
 322 32 l 2
 441 32 457 41 525 141 c 1
 553 134 l 1
 488 -5 l 1
 460 -4 443 -3 377 -3 c 2
 276 -2 l 2
 231 -1 199 0 191 0 c 0
 176 0 152 -1 122 -2 c 2
 62 -4 l 1
 6 -5 l 2x50
 1 -6 -4 -6 -6 -6 c 0x80
 -16 -6 -21 -4 -21 1 c 2
 -21 7 l 1
 -19 20 l 1
 -18 28 -18 29 -15 30 c 2
 -11 32 l 1
 31 33 l 2
 60 35 72 53 94 128 c 2
 218 556 l 2
 228 590 235 623 235 634 c 0
 235 652 215 662 179 662 c 2
 168 662 l 2
 164 661 161 661 159 661 c 0
 155 661 152 663 152 666 c 0
 152 667 152 668 155 676 c 2
 158 684 l 2
 161 692 165 694 176 694 c 0x28
 194 694 194 694 313 691 c 2
 389 690 l 2
 408 690 529 692 544 693 c 0
 566 694 585 694 597 694 c 0
 605 694 610 691 610 686 c 0
 610 685 610 685 607 675 c 2
 574 556 l 1
 547 563 l 1
 543 648 535 657 457 657 c 2
 396 657 l 2
 355 657 349 656 338 649 c 0
 325 641 322 635 310 591 c 1
 252 388 l 1
 351 388 l 2
 384 388 403 391 417 399 c 0
 433 408 434 410 453 448 c 0
 454 450 456 451 458 451 c 0
 459 451 459 451 465 449 c 2
 472 446 l 2
 479 443 481 442 481 438 c 0
 481 436 481 436 478 425 c 1
 436 297 l 1
 430 280 430 280 426 280 c 0
 424 280 423 280 417 282 c 2
 410 284 l 2
 405 285 403 287 403 290 c 1
 404 297 l 1
 407 306 410 322 410 332 c 0
 410 353 403 355 348 355 c 2
 242 355 l 1x14
357 859 m 0
 385 859 404 840 404 814 c 0
 404 782 377 753 346 753 c 0
 320 753 299 775 299 804 c 0
 299 833 326 859 357 859 c 0
551 859 m 0
 578 859 598 840 598 814 c 0
 598 782 570 753 540 753 c 0
 514 753 492 776 492 804 c 0
 492 833 520 859 551 859 c 0
EndSplineSet
EndChar
StartChar: Eacute
Encoding: 265 201 159
Width: 590
Flags: W
HStem: -6 20 -5 20 0 20 355 33<252 348> 662 32<170.5 179> 670 20<389 398.5>
Fore
242 355 m 1x14
 180 141 l 2
 170 107 165 86 165 75 c 0
 165 58 176 45 195 38 c 0
 209 33 212 33 288 32 c 2
 322 32 l 2
 441 32 457 41 525 141 c 1
 553 134 l 1
 488 -5 l 1
 460 -4 443 -3 377 -3 c 2
 276 -2 l 2
 231 -1 199 0 191 0 c 0
 176 0 152 -1 122 -2 c 2
 62 -4 l 1
 6 -5 l 2x50
 1 -6 -4 -6 -6 -6 c 0x80
 -16 -6 -21 -4 -21 1 c 2
 -21 7 l 1
 -19 20 l 1
 -18 28 -18 29 -15 30 c 2
 -11 32 l 1
 31 33 l 2
 60 35 72 53 94 128 c 2
 218 556 l 2
 228 590 235 623 235 634 c 0
 235 652 215 662 179 662 c 2
 168 662 l 2
 164 661 161 661 159 661 c 0
 155 661 152 663 152 666 c 0
 152 667 152 668 155 676 c 2
 158 684 l 2
 161 692 165 694 176 694 c 0x28
 194 694 194 694 313 691 c 2
 389 690 l 2
 408 690 529 692 544 693 c 0
 566 694 585 694 597 694 c 0
 605 694 610 691 610 686 c 0
 610 685 610 685 607 675 c 2
 574 556 l 1
 547 563 l 1
 543 648 535 657 457 657 c 2
 396 657 l 2
 355 657 349 656 338 649 c 0
 325 641 322 635 310 591 c 1
 252 388 l 1
 351 388 l 2
 384 388 403 391 417 399 c 0
 433 408 434 410 453 448 c 0
 454 450 456 451 458 451 c 0
 459 451 459 451 465 449 c 2
 472 446 l 2
 479 443 481 442 481 438 c 0
 481 436 481 436 478 425 c 1
 436 297 l 1
 430 280 430 280 426 280 c 0
 424 280 423 280 417 282 c 2
 410 284 l 2
 405 285 403 287 403 290 c 1
 404 297 l 1
 407 306 410 322 410 332 c 0
 410 353 403 355 348 355 c 2
 242 355 l 1x14
526 830 m 2
 430 761 l 2
 423 756 415 753 412 753 c 0
 410 753 408 754 406 755 c 2
 400 759 l 2
 394 763 393 764 393 768 c 0
 393 772 395 776 400 782 c 2
 483 885 l 2
 518 929 520 930 533 937 c 0
 544 943 553 946 563 946 c 0
 584 946 604 929 604 912 c 0
 604 891 589 875 526 830 c 2
EndSplineSet
EndChar
StartChar: Egrave
Encoding: 266 200 160
Width: 590
Flags: W
HStem: -6 20 -5 20 0 20 355 33<252 348> 662 32<170.5 179> 670 20<389 398.5>
Fore
242 355 m 1x14
 180 141 l 2
 170 107 165 86 165 75 c 0
 165 58 176 45 195 38 c 0
 209 33 212 33 288 32 c 2
 322 32 l 2
 441 32 457 41 525 141 c 1
 553 134 l 1
 488 -5 l 1
 460 -4 443 -3 377 -3 c 2
 276 -2 l 2
 231 -1 199 0 191 0 c 0
 176 0 152 -1 122 -2 c 2
 62 -4 l 1
 6 -5 l 2x50
 1 -6 -4 -6 -6 -6 c 0x80
 -16 -6 -21 -4 -21 1 c 2
 -21 7 l 1
 -19 20 l 1
 -18 28 -18 29 -15 30 c 2
 -11 32 l 1
 31 33 l 2
 60 35 72 53 94 128 c 2
 218 556 l 2
 228 590 235 623 235 634 c 0
 235 652 215 662 179 662 c 2
 168 662 l 2
 164 661 161 661 159 661 c 0
 155 661 152 663 152 666 c 0
 152 667 152 668 155 676 c 2
 158 684 l 2
 161 692 165 694 176 694 c 0x28
 194 694 194 694 313 691 c 2
 389 690 l 2
 408 690 529 692 544 693 c 0
 566 694 585 694 597 694 c 0
 605 694 610 691 610 686 c 0
 610 685 610 685 607 675 c 2
 574 556 l 1
 547 563 l 1
 543 648 535 657 457 657 c 2
 396 657 l 2
 355 657 349 656 338 649 c 0
 325 641 322 635 310 591 c 1
 252 388 l 1
 351 388 l 2
 384 388 403 391 417 399 c 0
 433 408 434 410 453 448 c 0
 454 450 456 451 458 451 c 0
 459 451 459 451 465 449 c 2
 472 446 l 2
 479 443 481 442 481 438 c 0
 481 436 481 436 478 425 c 1
 436 297 l 1
 430 280 430 280 426 280 c 0
 424 280 423 280 417 282 c 2
 410 284 l 2
 405 285 403 287 403 290 c 1
 404 297 l 1
 407 306 410 322 410 332 c 0
 410 353 403 355 348 355 c 2
 242 355 l 1x14
458 761 m 2
 362 830 l 2
 296 877 283 891 283 912 c 0
 283 929 303 946 324 946 c 0
 351 946 363 937 405 885 c 2
 487 782 l 1
 492 777 494 772 494 768 c 0
 494 764 493 763 489 760 c 2
 481 755 l 2
 480 754 477 753 476 753 c 0
 472 753 465 757 458 761 c 2
EndSplineSet
EndChar
StartChar: Ecircumflex
Encoding: 267 202 161
Width: 590
Flags: W
HStem: -6 20 -5 20 0 20 355 33<252 348> 662 32<170.5 179> 670 20<389 398.5>
Fore
242 355 m 1x14
 180 141 l 2
 170 107 165 86 165 75 c 0
 165 58 176 45 195 38 c 0
 209 33 212 33 288 32 c 2
 322 32 l 2
 441 32 457 41 525 141 c 1
 553 134 l 1
 488 -5 l 1
 460 -4 443 -3 377 -3 c 2
 276 -2 l 2
 231 -1 199 0 191 0 c 0
 176 0 152 -1 122 -2 c 2
 62 -4 l 1
 6 -5 l 2x50
 1 -6 -4 -6 -6 -6 c 0x80
 -16 -6 -21 -4 -21 1 c 2
 -21 7 l 1
 -19 20 l 1
 -18 28 -18 29 -15 30 c 2
 -11 32 l 1
 31 33 l 2
 60 35 72 53 94 128 c 2
 218 556 l 2
 228 590 235 623 235 634 c 0
 235 652 215 662 179 662 c 2
 168 662 l 2
 164 661 161 661 159 661 c 0
 155 661 152 663 152 666 c 0
 152 667 152 668 155 676 c 2
 158 684 l 2
 161 692 165 694 176 694 c 0x28
 194 694 194 694 313 691 c 2
 389 690 l 2
 408 690 529 692 544 693 c 0
 566 694 585 694 597 694 c 0
 605 694 610 691 610 686 c 0
 610 685 610 685 607 675 c 2
 574 556 l 1
 547 563 l 1
 543 648 535 657 457 657 c 2
 396 657 l 2
 355 657 349 656 338 649 c 0
 325 641 322 635 310 591 c 1
 252 388 l 1
 351 388 l 2
 384 388 403 391 417 399 c 0
 433 408 434 410 453 448 c 0
 454 450 456 451 458 451 c 0
 459 451 459 451 465 449 c 2
 472 446 l 2
 479 443 481 442 481 438 c 0
 481 436 481 436 478 425 c 1
 436 297 l 1
 430 280 430 280 426 280 c 0
 424 280 423 280 417 282 c 2
 410 284 l 2
 405 285 403 287 403 290 c 1
 404 297 l 1
 407 306 410 322 410 332 c 0
 410 353 403 355 348 355 c 2
 242 355 l 1x14
487 856 m 1
 358 758 l 2
 353 755 349 753 346 753 c 0
 341 753 329 763 329 768 c 0
 329 770 330 772 336 778 c 2
 467 924 l 2
 484 942 490 946 502 946 c 0
 515 946 524 939 532 921 c 2
 599 777 l 2
 600 774 601 771 601 770 c 0
 601 765 587 755 579 755 c 0
 576 755 572 758 569 762 c 2
 487 856 l 1
EndSplineSet
EndChar
StartChar: Idieresis
Encoding: 268 207 162
Width: 332
Flags: W
HStem: -5 20 0 20 669 20<286.5 316> 674 20<175 181> 675 20<405 409.5>
Fore
101 132 m 1x80
 223 557 l 1
 232 587 236 608 236 623 c 0
 236 646 218 658 177 661 c 0
 160 662 157 663 157 669 c 0x20
 157 671 157 671 160 677 c 1
 162 683 l 1
 166 691 170 694 180 694 c 0x10
 182 694 191 694 198 693 c 0
 247 690 272 689 301 689 c 0x20
 331 689 386 692 397 694 c 0x10
 403 695 404 695 406 695 c 0
 413 695 416 692 416 686 c 0
 416 684 416 682 415 680 c 1
 414 672 l 1
 411 662 409 661 395 660 c 0
 346 655 335 640 309 557 c 1
 187 132 l 1
 178 102 174 80 174 65 c 0
 174 42 191 31 236 27 c 0
 240 26 242 24 242 20 c 0x48
 242 18 241 15 240 12 c 2
 237 6 l 1
 234 -2 229 -5 219 -5 c 0x80
 212 -5 210 -5 180 -2 c 0
 163 -1 143 0 114 0 c 0x48
 74 0 48 -1 13 -4 c 0
 8 -5 0 -5 -2 -5 c 0
 -10 -5 -13 -3 -13 3 c 0
 -13 5 -13 7 -12 9 c 1
 -11 17 l 1
 -8 27 -6 29 8 29 c 0
 61 31 75 46 101 132 c 1x80
228 859 m 0
 255 859 275 840 275 814 c 0
 275 782 247 753 217 753 c 0
 190 753 169 775 169 804 c 0
 169 833 196 859 228 859 c 0
421 859 m 0
 448 859 468 840 468 814 c 0
 468 782 440 753 410 753 c 0
 384 753 363 776 363 804 c 0
 363 833 390 859 421 859 c 0
EndSplineSet
EndChar
StartChar: Iacute
Encoding: 269 205 163
Width: 332
Flags: W
HStem: -5 20 0 20 669 20<286 315.5> 674 20<175 181> 675 20<405 409.5>
Fore
101 132 m 1x80
 223 557 l 1
 232 586 236 609 236 623 c 0
 236 646 218 658 177 661 c 0
 160 662 157 663 157 669 c 0x20
 157 671 157 671 160 677 c 1
 162 683 l 1
 166 691 170 694 180 694 c 0x10
 182 694 191 694 198 693 c 0
 250 690 272 689 300 689 c 0x20
 331 689 386 692 397 694 c 0x10
 403 695 404 695 406 695 c 0
 413 695 416 692 416 686 c 0
 416 684 416 682 415 680 c 1
 414 672 l 1
 411 662 409 661 395 660 c 0
 346 654 334 640 309 557 c 1
 187 132 l 2
 178 101 174 80 174 66 c 0
 174 42 192 31 235 27 c 0
 240 26 242 24 242 20 c 0x48
 242 18 241 15 240 12 c 2
 237 6 l 1
 234 -2 229 -5 219 -5 c 0x80
 212 -5 210 -5 180 -2 c 0
 163 -1 143 0 114 0 c 0x48
 74 0 46 -1 13 -4 c 0
 8 -5 1 -5 -2 -5 c 0
 -10 -5 -13 -3 -13 3 c 0
 -13 5 -13 7 -12 9 c 1
 -11 17 l 1
 -8 27 -6 29 8 29 c 0
 61 31 75 46 101 132 c 1x80
397 830 m 2
 300 761 l 2
 293 756 286 753 283 753 c 0
 281 753 278 754 277 755 c 2
 270 759 l 2
 265 762 264 764 264 767 c 0
 264 771 267 777 271 782 c 2
 354 885 l 2
 396 938 407 946 434 946 c 0
 455 946 475 929 475 913 c 0
 475 891 461 876 397 830 c 2
EndSplineSet
EndChar
StartChar: Igrave
Encoding: 270 204 164
Width: 332
Flags: W
HStem: -5 20 0 20 669 20<286 316.5> 674 20<175 181> 675 20<405 409.5>
Fore
101 132 m 1x80
 223 557 l 2
 231 585 236 609 236 623 c 0
 236 646 218 658 177 661 c 0
 160 662 157 663 157 669 c 0x20
 157 671 157 671 160 677 c 1
 162 683 l 1
 166 691 170 694 180 694 c 0x10
 182 694 191 694 198 693 c 0
 250 690 272 689 300 689 c 0x20
 333 689 386 692 397 694 c 0x10
 403 695 404 695 406 695 c 0
 413 695 416 692 416 686 c 0
 416 684 416 682 415 680 c 1
 414 672 l 1
 411 662 409 661 395 660 c 0
 346 654 334 640 309 557 c 1
 187 132 l 2
 178 101 174 80 174 66 c 0
 174 42 191 31 236 27 c 0
 240 26 242 24 242 20 c 0x48
 242 18 241 15 240 12 c 2
 237 6 l 1
 234 -2 229 -5 219 -5 c 0x80
 212 -5 210 -5 180 -2 c 0
 163 -1 143 0 114 0 c 0x48
 74 0 46 -1 13 -4 c 0
 8 -5 1 -5 -2 -5 c 0
 -10 -5 -13 -3 -13 3 c 0
 -13 5 -13 7 -12 9 c 1
 -11 17 l 1
 -8 27 -6 29 8 29 c 0
 62 31 75 46 101 132 c 1x80
329 761 m 2
 232 830 l 2
 168 876 154 891 154 912 c 0
 154 929 174 946 195 946 c 0
 222 946 234 937 276 885 c 2
 358 782 l 2
 363 776 365 772 365 768 c 0
 365 765 364 763 360 760 c 2
 352 755 l 2
 351 754 348 753 346 753 c 0
 343 753 335 757 329 761 c 2
EndSplineSet
EndChar
StartChar: Icircumflex
Encoding: 271 206 165
Width: 332
Flags: W
HStem: -5 20 0 20 669 20<286 315.5> 674 20<175 181> 675 20<405 409.5>
Fore
101 132 m 1x80
 223 557 l 1
 232 586 236 609 236 623 c 0
 236 646 218 658 177 661 c 0
 160 662 157 663 157 669 c 0x20
 157 671 157 671 160 677 c 1
 162 683 l 1
 166 691 170 694 180 694 c 0x10
 182 694 191 694 198 693 c 0
 250 690 272 689 300 689 c 0x20
 331 689 386 692 397 694 c 0x10
 403 695 404 695 406 695 c 0
 413 695 416 692 416 686 c 0
 416 684 416 682 415 680 c 1
 414 672 l 1
 411 662 409 661 395 660 c 0
 346 654 334 640 309 557 c 1
 187 132 l 2
 178 101 174 80 174 66 c 0
 174 42 192 31 235 27 c 0
 240 26 242 24 242 20 c 0x48
 242 18 241 15 240 12 c 2
 237 6 l 1
 234 -2 229 -5 219 -5 c 0x80
 212 -5 210 -5 180 -2 c 0
 163 -1 143 0 114 0 c 0x48
 74 0 46 -1 13 -4 c 0
 8 -5 1 -5 -2 -5 c 0
 -10 -5 -13 -3 -13 3 c 0
 -13 5 -13 7 -12 9 c 1
 -11 17 l 1
 -8 27 -6 29 8 29 c 0
 61 31 75 46 101 132 c 1x80
336 856 m 1
 207 758 l 2
 203 755 199 753 196 753 c 0
 190 753 178 763 178 768 c 0
 178 770 179 771 185 778 c 2
 317 924 l 2
 333 942 340 946 352 946 c 0
 365 946 373 939 382 921 c 1
 448 777 l 1
 450 774 450 772 450 769 c 0
 450 765 435 755 429 755 c 0
 426 755 422 758 418 762 c 2
 336 856 l 1
EndSplineSet
EndChar
StartChar: Ntilde
Encoding: 272 209 166
Width: 738
Flags: W
HStem: -7 159<567.5 570.5> -5 20 0 20 540 154<285.5 287.5> 662 32 669 20<225 230.5 733.5 739 833 833> 753 69<597 599.5> 832 69
Fore
595 95 m 1x44
 638 16 l 1
 642 10 643 6 643 3 c 0
 643 -4 639 -7 632 -7 c 0
 629 -7 625 -7 621 -6 c 0
 610 -5 602 -5 596 -5 c 0x43
 590 -5 583 -5 574 -7 c 2
 567 -7 l 2x80
 557 -7 548 3 538 23 c 2
 304 514 l 2
 298 527 289 540 286 540 c 0
 282 540 280 536 277 527 c 1
 272 506 l 1
 154 97 l 1
 144 60 144 60 144 52 c 0
 144 35 159 28 198 26 c 0
 221 25 222 25 222 18 c 0
 222 16 222 14 221 13 c 1
 219 4 l 1
 217 -2 214 -5 207 -5 c 0x50
 197 -5 197 -5 149 -2 c 0
 128 -1 113 0 107 0 c 0x20
 94 0 44 -3 17 -5 c 2
 15 -5 l 2
 9 -5 7 -3 7 1 c 1
 8 8 l 1
 8 16 l 1
 10 27 11 28 36 28 c 0
 81 30 90 41 123 143 c 1
 253 583 l 1
 231 634 197 658 141 659 c 0
 127 659 122 662 123 670 c 1
 124 674 l 1
 125 682 l 2
 126 691 130 694 141 694 c 0
 148 694 179 692 194 691 c 0
 211 690 222 689 228 689 c 0x44
 233 689 242 690 253 691 c 0
 274 693 281 694 290 694 c 0x50
 304 694 313 684 330 647 c 2
 549 182 l 2
 557 165 566 152 569 152 c 0
 572 152 572 152 579 174 c 1
 692 571 l 2
 706 621 706 621 706 632 c 0
 706 651 689 662 659 662 c 2x88
 648 662 l 2
 642 661 637 661 635 661 c 0
 628 661 624 664 624 669 c 0x44
 624 670 624 672 625 675 c 1
 627 684 l 1
 629 691 634 694 643 694 c 0x88
 653 694 681 693 702 691 c 0
 719 690 731 689 736 689 c 0
 742 689 746 689 802 693 c 0
 811 694 818 694 824 694 c 0
 829 694 833 692 833 689 c 1
 832 681 l 1
 832 672 l 1
 831 665 829 663 821 662 c 0
 762 661 757 655 730 562 c 2
 595 95 l 1x44
487 901 m 0
 504 901 504 901 574 837 c 0
 586 827 594 822 600 822 c 0
 615 822 646 845 675 877 c 0
 692 895 695 898 700 898 c 0
 706 898 717 889 717 884 c 0
 717 877 693 837 676 816 c 0
 642 773 613 753 586 753 c 0
 564 753 546 765 506 807 c 0
 490 824 479 832 471 832 c 0
 455 832 420 802 389 762 c 0
 384 755 381 753 377 753 c 0
 369 753 360 760 360 766 c 0
 360 775 395 829 416 853 c 0
 445 885 468 901 487 901 c 0
EndSplineSet
EndChar
StartChar: Odieresis
Encoding: 273 214 167
Width: 793
Flags: MW
HStem: -20 39<323.5 425.5> 669 39<438 541>
VStem: 72 101<207.5 334> 692 102<348.5 481.5>
Fore
475 708 m 0
 664 708 794 577 794 386 c 0
 794 164 612 -20 392 -20 c 0
 200 -20 72 110 72 305 c 0
 72 525 255 708 475 708 c 0
476 669 m 0
 400 669 328 634 277 573 c 0
 214 498 173 383 173 285 c 0
 173 122 257 19 390 19 c 0
 461 19 526 50 579 107 c 0
 651 186 692 294 692 403 c 0
 692 563 606 669 476 669 c 0
459 859 m 0
 486 859 506 840 506 814 c 0
 506 782 478 753 448 753 c 0
 422 753 400 776 400 804 c 0
 400 833 428 859 459 859 c 0
652 859 m 0
 679 859 699 840 699 814 c 0
 699 782 671 753 641 753 c 0
 614 753 593 776 593 804 c 0
 593 833 620 859 652 859 c 0
EndSplineSet
KernsSLIF: 89 -57 0 0 88 -51 0 0 87 -76 0 0 86 -71 0 0 84 -46 0 0 65 -35 0 0
EndChar
StartChar: Oacute
Encoding: 274 211 168
Width: 793
Flags: MW
HStem: -20 39<323.5 425.5> 669 39<438 541>
VStem: 72 101<207.5 334> 692 102<348.5 481.5>
Fore
475 708 m 0
 664 708 794 577 794 386 c 0
 794 164 612 -20 392 -20 c 0
 200 -20 72 110 72 305 c 0
 72 525 255 708 475 708 c 0
476 669 m 0
 400 669 328 634 277 573 c 0
 214 498 173 383 173 285 c 0
 173 122 257 19 390 19 c 0
 461 19 526 50 579 107 c 0
 651 186 692 294 692 403 c 0
 692 563 606 669 476 669 c 0
627 830 m 2
 531 761 l 2
 524 757 517 753 513 753 c 0
 512 753 509 754 508 755 c 2
 501 759 l 2
 495 763 494 764 494 767 c 0
 494 771 496 775 502 782 c 2
 584 885 l 2
 627 938 638 946 665 946 c 0
 686 946 706 929 706 912 c 0
 706 891 692 876 627 830 c 2
EndSplineSet
KernsSLIF: 89 -57 0 0 87 -76 0 0 86 -71 0 0 84 -46 0 0 65 -35 0 0
EndChar
StartChar: Ograve
Encoding: 275 210 169
Width: 793
Flags: MW
HStem: -20 39<323.5 425.5> 669 39<438 541>
VStem: 72 101<207.5 334> 692 102<348.5 481.5>
Fore
475 708 m 0
 664 708 794 577 794 386 c 0
 794 164 612 -20 392 -20 c 0
 200 -20 72 110 72 305 c 0
 72 525 255 708 475 708 c 0
476 669 m 0
 400 669 328 634 277 573 c 0
 214 498 173 383 173 285 c 0
 173 122 257 19 390 19 c 0
 461 19 526 50 579 107 c 0
 651 186 692 294 692 403 c 0
 692 563 606 669 476 669 c 0
559 761 m 2
 463 830 l 2
 400 875 385 891 385 912 c 0
 385 929 405 946 426 946 c 0
 452 946 463 938 506 885 c 2
 589 782 l 2
 594 775 596 772 596 768 c 0
 596 765 595 763 590 760 c 2
 583 755 l 2
 581 754 579 753 577 753 c 0
 574 753 566 757 559 761 c 2
EndSplineSet
KernsSLIF: 89 -57 0 0 86 -71 0 0 84 -46 0 0
EndChar
StartChar: Ocircumflex
Encoding: 276 212 170
Width: 793
Flags: MW
HStem: -20 39<323.5 425.5> 669 39<438 541>
VStem: 72 101<207.5 334> 692 102<348.5 481.5>
Fore
475 708 m 0
 664 708 794 577 794 386 c 0
 794 164 612 -20 392 -20 c 0
 200 -20 72 110 72 305 c 0
 72 525 255 708 475 708 c 0
476 669 m 0
 400 669 328 634 277 573 c 0
 214 498 173 383 173 285 c 0
 173 122 257 19 390 19 c 0
 461 19 526 50 579 107 c 0
 651 186 692 294 692 403 c 0
 692 563 606 669 476 669 c 0
588 856 m 1
 459 758 l 2
 455 755 451 753 447 753 c 0
 442 753 430 763 430 768 c 0
 430 770 431 772 437 778 c 2
 569 924 l 2
 585 942 591 946 604 946 c 0
 617 946 625 939 633 921 c 2
 700 777 l 2
 701 774 702 772 702 770 c 0
 702 765 688 755 680 755 c 0
 678 755 674 758 670 762 c 2
 588 856 l 1
EndSplineSet
KernsSLIF: 89 -57 0 0 86 -71 0 0 84 -46 0 0
EndChar
StartChar: Otilde
Encoding: 277 213 171
Width: 793
Flags: MW
HStem: -20 39<323.5 425.5> 669 39<438 541> 753 69<624 627.5> 832 69
VStem: 72 101<207.5 334> 692 102<348.5 481.5>
Fore
475 708 m 0
 664 708 794 577 794 386 c 0
 794 164 612 -20 392 -20 c 0
 200 -20 72 110 72 305 c 0
 72 525 255 708 475 708 c 0
476 669 m 0
 400 669 328 634 277 573 c 0
 214 498 173 383 173 285 c 0
 173 122 257 19 390 19 c 0
 461 19 526 50 579 107 c 0
 651 186 692 294 692 403 c 0
 692 563 606 669 476 669 c 0
515 901 m 0
 532 901 532 901 602 837 c 0
 614 827 621 822 627 822 c 0
 642 822 674 845 702 877 c 0
 719 895 722 898 727 898 c 0
 733 898 744 889 744 884 c 0
 744 877 720 838 703 816 c 0
 670 773 641 753 614 753 c 0
 591 753 574 764 534 807 c 0
 518 824 507 832 498 832 c 0
 482 832 448 803 417 762 c 0
 412 755 409 753 405 753 c 0
 397 753 388 760 388 766 c 0
 388 775 423 829 444 853 c 0
 472 885 495 901 515 901 c 0
EndSplineSet
KernsSLIF: 89 -57 0 0 86 -71 0 0 84 -46 0 0
EndChar
StartChar: Scaron
Encoding: 278 352 172
Width: 461
Flags: MW
HStem: -20 33<156.5 224.5> 676 32<302.5 358>
VStem: 128 79<516 564.5> 329 84<116 165>
Fore
450 543 m 1
 421 551 l 1
 429 581 430 590 430 603 c 0
 430 642 386 676 336 676 c 0
 269 676 207 612 207 543 c 0
 207 489 235 443 327 341 c 0
 396 266 413 233 413 174 c 0
 413 58 322 -20 189 -20 c 0
 116 -20 20 11 20 34 c 0
 20 39 20 40 38 78 c 1
 63 142 l 1
 66 148 68 151 70 151 c 2
 70 151 72 151 74 150 c 2
 85 146 l 2
 92 144 93 143 93 140 c 0
 93 138 92 132 89 122 c 0
 84 105 81 90 81 80 c 0
 81 44 129 13 184 13 c 0
 265 13 329 70 329 143 c 0
 329 187 318 207 251 286 c 0
 151 403 128 444 128 510 c 0
 128 619 219 708 332 708 c 0
 384 708 436 691 479 661 c 0
 485 657 488 653 488 649 c 0
 488 647 487 643 485 638 c 0
 480 630 466 594 456 563 c 2
 450 543 l 1
361 843 m 1
 490 942 l 2
 495 946 499 948 502 948 c 0
 506 948 519 937 519 933 c 0
 519 930 517 927 512 922 c 2
 381 775 l 2
 366 758 358 753 345 753 c 0
 333 753 324 761 316 778 c 2
 249 924 l 2
 248 927 247 929 247 931 c 0
 247 936 262 946 269 946 c 0
 272 946 275 944 279 939 c 2
 361 843 l 1
EndSplineSet
EndChar
StartChar: Udieresis
Encoding: 279 220 173
Width: 756
Flags: W
HStem: -20 45<317.5 388> 669 20 674 20<163 177 411 423 636 647 817.5 825.5>
VStem: 111 92<110.5 144.5>
Fore
123 211 m 1xb0
 224 585 l 2
 229 604 232 619 232 628 c 0
 232 652 215 661 167 660 c 0
 152 660 148 661 149 668 c 1
 150 672 l 1
 151 682 l 1
 153 693 155 694 171 694 c 0x30
 183 694 224 692 249 691 c 0
 273 690 290 689 302 689 c 0xd0
 312 689 328 690 349 691 c 0
 381 693 404 694 418 694 c 0x30
 428 694 431 691 430 683 c 1
 429 669 l 1
 429 661 427 660 419 660 c 0
 344 660 334 652 310 566 c 2
 217 237 l 1
 210 211 203 167 203 146 c 0
 203 75 270 25 365 25 c 0
 484 25 563 101 607 262 c 1
 683 532 l 1
 694 569 702 611 702 627 c 0
 702 649 693 656 661 658 c 0
 642 660 642 660 629 661 c 0
 624 661 622 664 622 669 c 0xd0
 622 670 622 672 623 673 c 1
 626 683 l 1
 628 692 631 694 641 694 c 0x30
 653 694 681 693 703 691 c 0
 720 690 732 689 737 689 c 0xd0
 743 689 755 690 771 691 c 0
 791 693 814 694 821 694 c 0
 830 694 834 691 834 686 c 2
 834 683 l 1
 833 672 l 1
 833 667 832 665 828 663 c 2
 823 662 l 1
 797 658 l 1
 765 650 756 636 739 569 c 1
 659 285 l 1
 630 178 600 114 556 64 c 0
 508 10 433 -20 343 -20 c 0
 206 -20 111 43 111 135 c 0
 111 154 116 183 123 211 c 1xb0
441 859 m 0
 468 859 488 840 488 814 c 0
 488 782 460 753 430 753 c 0
 403 753 382 776 382 804 c 0
 382 833 409 859 441 859 c 0
634 859 m 0
 661 859 681 840 681 814 c 0
 681 782 653 753 623 753 c 0
 596 753 575 776 575 804 c 0
 575 833 602 859 634 859 c 0
EndSplineSet
KernsSLIF: 114 -21 0 0 46 -24 0 0 112 -14 0 0 110 -28 0 0 109 -24 0 0 44 -27 0 0 98 -29 0 0 65 -56 0 0
EndChar
StartChar: Uacute
Encoding: 280 218 174
Width: 756
Flags: W
HStem: -20 45<317.5 388> 669 20 674 20<163 177 411 423 636 647 817.5 825.5>
VStem: 111 92<110.5 144.5>
Fore
123 211 m 1xb0
 224 585 l 2
 229 604 232 619 232 628 c 0
 232 652 215 661 167 660 c 0
 152 660 148 661 149 668 c 1
 150 672 l 1
 151 682 l 1
 153 693 155 694 171 694 c 0x30
 183 694 224 692 249 691 c 0
 273 690 290 689 302 689 c 0xd0
 312 689 328 690 349 691 c 0
 381 693 404 694 418 694 c 0x30
 428 694 431 691 430 683 c 1
 429 669 l 1
 429 661 427 660 419 660 c 0
 344 660 334 652 310 566 c 2
 217 237 l 1
 210 211 203 167 203 146 c 0
 203 75 270 25 365 25 c 0
 484 25 563 101 607 262 c 1
 683 532 l 1
 694 569 702 611 702 627 c 0
 702 649 693 656 661 658 c 0
 642 660 642 660 629 661 c 0
 624 661 622 664 622 669 c 0xd0
 622 670 622 672 623 673 c 1
 626 683 l 1
 628 692 631 694 641 694 c 0x30
 653 694 681 693 703 691 c 0
 720 690 732 689 737 689 c 0xd0
 743 689 755 690 771 691 c 0
 791 693 814 694 821 694 c 0
 830 694 834 691 834 686 c 2
 834 683 l 1
 833 672 l 1
 833 667 832 665 828 663 c 2
 823 662 l 1
 797 658 l 1
 765 650 756 636 739 569 c 1
 659 285 l 1
 630 178 600 114 556 64 c 0
 508 10 433 -20 343 -20 c 0
 206 -20 111 43 111 135 c 0
 111 154 116 183 123 211 c 1xb0
609 830 m 2
 513 761 l 2
 506 756 499 753 495 753 c 0
 493 753 491 754 490 755 c 2
 483 759 l 2
 477 763 476 764 476 767 c 0
 476 771 478 776 483 782 c 2
 566 885 l 2
 608 937 620 946 647 946 c 0
 668 946 688 929 688 912 c 0
 688 891 675 877 609 830 c 2
EndSplineSet
KernsSLIF: 114 -21 0 0 46 -24 0 0 112 -14 0 0 110 -28 0 0 109 -24 0 0 44 -27 0 0 65 -56 0 0
EndChar
StartChar: Ugrave
Encoding: 281 217 175
Width: 756
Flags: W
HStem: -20 45<317.5 388> 669 20 674 20<163 177 411 423 636 647 817.5 825.5>
VStem: 111 92<110.5 144.5>
Fore
123 211 m 1xb0
 224 585 l 2
 229 604 232 619 232 628 c 0
 232 652 215 661 167 660 c 0
 152 660 148 661 149 668 c 1
 150 672 l 1
 151 682 l 1
 153 693 155 694 171 694 c 0x30
 183 694 224 692 249 691 c 0
 273 690 290 689 302 689 c 0xd0
 312 689 328 690 349 691 c 0
 381 693 404 694 418 694 c 0x30
 428 694 431 691 430 683 c 1
 429 669 l 1
 429 661 427 660 419 660 c 0
 344 660 334 652 310 566 c 2
 217 237 l 1
 210 211 203 167 203 146 c 0
 203 75 270 25 365 25 c 0
 484 25 563 101 607 262 c 1
 683 532 l 1
 694 569 702 611 702 627 c 0
 702 649 693 656 661 658 c 0
 642 660 642 660 629 661 c 0
 624 661 622 664 622 669 c 0xd0
 622 670 622 672 623 673 c 1
 626 683 l 1
 628 692 631 694 641 694 c 0x30
 653 694 681 693 703 691 c 0
 720 690 732 689 737 689 c 0xd0
 743 689 755 690 771 691 c 0
 791 693 814 694 821 694 c 0
 830 694 834 691 834 686 c 2
 834 683 l 1
 833 672 l 1
 833 667 832 665 828 663 c 2
 823 662 l 1
 797 658 l 1
 765 650 756 636 739 569 c 1
 659 285 l 1
 630 178 600 114 556 64 c 0
 508 10 433 -20 343 -20 c 0
 206 -20 111 43 111 135 c 0
 111 154 116 183 123 211 c 1xb0
541 761 m 2
 445 830 l 2
 378 878 366 890 366 912 c 0
 366 929 386 946 407 946 c 0
 434 946 446 937 488 885 c 2
 571 782 l 2
 576 775 578 772 578 768 c 0
 578 764 577 764 572 760 c 2
 564 755 l 2
 563 754 561 753 559 753 c 0
 555 753 548 757 541 761 c 2
EndSplineSet
KernsSLIF: 65 -56 0 0
EndChar
StartChar: Ucircumflex
Encoding: 282 219 176
Width: 756
Flags: W
HStem: -20 45<317.5 388> 669 20 674 20<163 177 411 423 636 647 817.5 825.5>
VStem: 111 92<110.5 144.5>
Fore
123 211 m 1xb0
 224 585 l 2
 229 604 232 619 232 628 c 0
 232 652 215 661 167 660 c 0
 152 660 148 661 149 668 c 1
 150 672 l 1
 151 682 l 1
 153 693 155 694 171 694 c 0x30
 183 694 224 692 249 691 c 0
 273 690 290 689 302 689 c 0xd0
 312 689 328 690 349 691 c 0
 381 693 404 694 418 694 c 0x30
 428 694 431 691 430 683 c 1
 429 669 l 1
 429 661 427 660 419 660 c 0
 344 660 334 652 310 566 c 2
 217 237 l 1
 210 211 203 167 203 146 c 0
 203 75 270 25 365 25 c 0
 484 25 563 101 607 262 c 1
 683 532 l 1
 694 569 702 611 702 627 c 0
 702 649 693 656 661 658 c 0
 642 660 642 660 629 661 c 0
 624 661 622 664 622 669 c 0xd0
 622 670 622 672 623 673 c 1
 626 683 l 1
 628 692 631 694 641 694 c 0x30
 653 694 681 693 703 691 c 0
 720 690 732 689 737 689 c 0xd0
 743 689 755 690 771 691 c 0
 791 693 814 694 821 694 c 0
 830 694 834 691 834 686 c 2
 834 683 l 1
 833 672 l 1
 833 667 832 665 828 663 c 2
 823 662 l 1
 797 658 l 1
 765 650 756 636 739 569 c 1
 659 285 l 1
 630 178 600 114 556 64 c 0
 508 10 433 -20 343 -20 c 0
 206 -20 111 43 111 135 c 0
 111 154 116 183 123 211 c 1xb0
570 856 m 1
 441 758 l 2
 437 755 433 753 429 753 c 0
 424 753 412 763 412 768 c 0
 412 770 413 772 419 778 c 2
 550 924 l 2
 567 942 573 946 586 946 c 0
 598 946 607 939 615 921 c 2
 682 777 l 2
 683 774 684 772 684 770 c 0
 684 765 670 755 662 755 c 0
 660 755 656 758 652 762 c 2
 570 856 l 1
EndSplineSet
KernsSLIF: 65 -56 0 0
EndChar
StartChar: Yacute
Encoding: 283 221 177
Width: 664
Flags: W
HStem: -5 20 0 20 669 20<235 239.5 663 671> 674 20
Fore
238 132 m 1x80
 271 233 l 2
 284 273 290 300 290 318 c 0
 290 341 280 377 265 411 c 2
 192 576 l 2
 158 654 152 659 99 660 c 0
 88 660 84 662 84 668 c 0
 84 671 84 672 85 674 c 1
 87 685 l 1
 89 692 92 694 101 694 c 0x10
 111 694 111 694 184 691 c 0
 213 690 234 689 236 689 c 0x20
 243 689 298 692 313 693 c 0
 322 694 330 694 335 694 c 0
 343 694 348 691 347 685 c 1
 347 682 l 1
 346 671 l 1
 345 665 343 663 339 662 c 0
 335 661 327 660 312 659 c 0
 273 657 258 651 258 637 c 0
 258 632 258 632 271 596 c 1
 354 401 l 1
 366 367 368 363 372 363 c 0
 375 363 375 363 409 398 c 2
 570 560 l 2
 599 589 622 624 622 639 c 0
 622 654 610 658 552 661 c 0
 545 661 541 664 541 668 c 0
 541 669 541 671 542 675 c 2
 544 684 l 1
 545 691 549 694 560 694 c 0x10
 569 694 589 693 622 691 c 0
 643 690 659 689 667 689 c 0x20
 675 689 729 691 783 694 c 0
 790 694 791 693 791 687 c 2
 791 675 l 2
 791 664 786 662 760 661 c 0
 722 658 716 654 670 608 c 2
 413 350 l 2
 393 329 382 316 379 312 c 0
 376 308 374 303 372 296 c 2
 363 263 l 1
 325 132 l 1
 315 100 311 80 311 65 c 0
 311 42 328 31 371 28 c 0
 388 27 391 26 391 20 c 0x50
 391 18 390 15 389 12 c 2
 386 6 l 1
 383 -2 378 -5 369 -5 c 0
 367 -5 358 -5 351 -4 c 0
 299 -1 277 0 238 0 c 0
 202 0 194 0 147 -4 c 2
 124 -5 l 2
 115 -5 113 -3 112 3 c 1
 112 9 l 1
 114 17 l 2
 117 27 120 29 134 29 c 0
 197 31 207 41 238 132 c 1x80
562 830 m 2
 466 761 l 2
 459 757 452 753 448 753 c 0
 447 753 444 754 443 755 c 2
 436 759 l 2
 431 762 430 764 430 768 c 0
 430 772 432 777 437 782 c 1
 519 885 l 2
 562 938 573 946 600 946 c 0
 621 946 641 929 641 912 c 0
 641 891 627 876 562 830 c 2
EndSplineSet
EndChar
StartChar: Zcaron
Encoding: 284 381 178
Width: 627
Flags: W
HStem: -5 20 1 34 655 39<298 487>
Fore
584 119 m 1x60
 544 -5 l 1x80
 507 -3 484 -2 421 -2 c 2
 303 -1 l 2
 256 0 224 1 212 1 c 0x40
 189 1 99 -2 81 -4 c 2
 61 -5 l 2x80
 51 -5 46 -2 46 4 c 0
 46 8 49 13 57 22 c 1
 60 24 64 29 69 38 c 1
 490 625 l 1
 507 646 507 646 507 650 c 0
 507 654 506 655 487 655 c 2
 264 655 l 2
 192 655 185 651 156 597 c 0
 146 579 144 576 140 576 c 0
 139 576 138 576 133 578 c 2
 124 582 l 2
 116 586 116 586 116 589 c 0
 116 592 117 596 121 605 c 0
 130 625 163 726 163 733 c 0
 165 742 167 745 172 745 c 2
 182 745 l 2
 190 745 191 744 194 737 c 0
 207 703 229 694 298 694 c 2
 613 694 l 2
 635 694 639 692 639 685 c 0
 639 679 637 675 626 659 c 2
 208 85 l 2
 201 75 193 65 185 54 c 0
 182 50 180 46 180 43 c 0
 180 36 189 35 258 35 c 0
 376 35 469 45 494 61 c 0
 511 71 537 105 557 142 c 0
 559 146 561 147 564 147 c 0
 566 147 568 147 570 146 c 2
 579 143 l 2
 586 141 588 140 588 137 c 0
 588 135 588 135 584 119 c 1x60
465 843 m 1
 594 942 l 2
 599 946 603 948 606 948 c 0
 610 948 623 937 623 933 c 0
 623 931 621 927 616 922 c 2
 484 775 l 2
 469 758 462 753 449 753 c 0
 436 753 428 760 420 778 c 2
 353 924 l 2
 352 926 351 928 351 931 c 0
 351 936 365 946 373 946 c 0
 375 946 378 944 383 939 c 2
 465 843 l 1
EndSplineSet
EndChar
StartChar: Thorn
Encoding: 285 222 179
Width: 553
Flags: W
HStem: -6 20 0 20 152 41<319.5 360> 669 20<264.5 298.5> 675 20<162 168.5 388 392 392 392>
VStem: 464 94<330.5 400>
Fore
303 586 m 1x8c
 293 550 l 1
 392 546 433 538 479 511 c 0
 526 483 558 428 558 372 c 0
 558 260 451 152 341 152 c 0
 298 152 249 172 248 190 c 0
 248 192 248 193 249 195 c 1
 252 205 l 1
 254 208 257 211 260 211 c 0
 263 211 269 209 276 205 c 0
 289 197 304 193 321 193 c 0
 399 193 464 279 464 382 c 0
 464 451 406 503 329 503 c 0
 305 503 288 498 278 487 c 0
 272 480 270 475 262 448 c 2
 164 120 l 1
 160 105 157 87 157 72 c 0
 157 50 162 42 178 36 c 0
 189 32 189 32 227 32 c 0
 231 32 236 27 236 23 c 2
 236 21 l 1
 230 4 l 1
 228 -3 225 -6 218 -6 c 0xa4
 215 -6 210 -6 204 -5 c 0
 181 -1 157 0 123 0 c 0x44
 80 0 43 -1 9 -5 c 2
 -12 -6 l 2
 -20 -6 -24 -3 -24 2 c 0
 -24 4 -24 6 -23 8 c 2
 -17 22 l 2
 -14 28 -11 30 -1 30 c 0
 48 29 61 41 80 107 c 1
 220 583 l 1
 224 598 227 614 227 623 c 0
 227 647 211 656 159 658 c 0
 150 658 144 662 145 667 c 1
 145 667 145 668 146 670 c 1
 151 687 l 1
 153 692 158 695 166 695 c 0x8c
 171 695 178 695 185 694 c 0
 214 691 247 689 282 689 c 0x14
 315 689 343 690 369 693 c 2
 388 695 l 1
 392 695 l 2
 400 696 407 691 405 686 c 1
 399 667 l 2
 396 658 395 657 369 657 c 0
 330 655 315 640 303 586 c 1x8c
EndSplineSet
EndChar
StartChar: Ydieresis
Encoding: 286 376 180
Width: 664
Flags: W
HStem: -5 20 0 20 669 20<235 239.5 663 671> 674 20
Fore
238 132 m 1x80
 271 233 l 2
 284 273 290 300 290 318 c 0
 290 341 280 377 265 411 c 2
 192 576 l 2
 158 654 152 659 99 660 c 0
 88 660 84 662 84 668 c 0
 84 671 84 672 85 674 c 1
 87 685 l 1
 89 692 92 694 101 694 c 0x10
 111 694 111 694 184 691 c 0
 213 690 234 689 236 689 c 0x20
 243 689 298 692 313 693 c 0
 322 694 330 694 335 694 c 0
 343 694 348 691 347 685 c 1
 347 682 l 1
 346 671 l 1
 345 665 343 663 339 662 c 0
 335 661 327 660 312 659 c 0
 273 657 258 651 258 637 c 0
 258 632 258 632 271 596 c 1
 354 401 l 1
 366 367 368 363 372 363 c 0
 375 363 375 363 409 398 c 2
 570 560 l 2
 599 589 622 624 622 639 c 0
 622 654 610 658 552 661 c 0
 545 661 541 664 541 668 c 0
 541 669 541 671 542 675 c 2
 544 684 l 1
 545 691 549 694 560 694 c 0x10
 569 694 589 693 622 691 c 0
 643 690 659 689 667 689 c 0x20
 675 689 729 691 783 694 c 0
 790 694 791 693 791 687 c 2
 791 675 l 2
 791 664 786 662 760 661 c 0
 722 658 716 654 670 608 c 2
 413 350 l 2
 393 329 382 316 379 312 c 0
 376 308 374 303 372 296 c 2
 363 263 l 1
 325 132 l 1
 315 100 311 80 311 65 c 0
 311 42 328 31 371 28 c 0
 388 27 391 26 391 20 c 0x50
 391 18 390 15 389 12 c 2
 386 6 l 1
 383 -2 378 -5 369 -5 c 0
 367 -5 358 -5 351 -4 c 0
 299 -1 277 0 238 0 c 0
 202 0 194 0 147 -4 c 2
 124 -5 l 2
 115 -5 113 -3 112 3 c 1
 112 9 l 1
 114 17 l 2
 117 27 120 29 134 29 c 0
 197 31 207 41 238 132 c 1x80
394 859 m 0
 421 859 441 840 441 814 c 0
 441 782 413 753 383 753 c 0
 357 753 335 776 335 804 c 0
 335 833 363 859 394 859 c 0
587 859 m 0
 614 859 634 840 634 814 c 0
 634 782 606 753 576 753 c 0
 549 753 528 776 528 804 c 0
 528 833 555 859 587 859 c 0
EndSplineSet
EndChar
StartChar: adieresis
Encoding: 287 228 181
Width: 461
Flags: MW
HStem: -17 69 425 20<395 411.5>
VStem: -2 74<81.5 89.5> 250 70
Fore
420 143 m 1
 438 128 l 1
 436 119 l 1
 433 108 433 108 368 29 c 0
 346 1 314 -17 288 -17 c 0
 265 -17 250 3 250 32 c 0
 250 63 253 76 282 186 c 1
 174 35 113 -17 45 -17 c 0
 16 -17 -2 10 -2 55 c 0
 -2 124 46 215 124 294 c 0
 197 367 276 412 333 412 c 0
 342 412 348 411 364 408 c 1
 370 420 l 2
 380 440 386 445 404 445 c 0
 419 445 425 442 425 434 c 0
 425 431 424 426 422 422 c 0
 365 288 320 139 320 88 c 0
 320 72 326 63 336 63 c 0
 348 63 359 69 377 87 c 0
 392 101 415 130 417 136 c 2
 420 143 l 1
290 353 m 0
 239 356 168 301 119 222 c 0
 91 177 72 126 72 94 c 0
 72 69 83 52 99 52 c 0
 136 52 194 104 256 194 c 0
 293 247 323 306 323 328 c 0
 323 343 311 352 290 353 c 0
259 660 m 0
 284 660 303 638 303 609 c 0
 303 577 279 551 250 551 c 0
 224 551 205 573 205 602 c 0
 205 633 230 660 259 660 c 0
402 660 m 0
 426 660 445 638 445 609 c 0
 445 577 421 551 393 551 c 0
 367 551 348 573 348 603 c 0
 348 633 373 660 402 660 c 0
EndSplineSet
KernsSLIF: 121 -15 0 0 119 -18 0 0 118 -19 0 0
EndChar
StartChar: aacute
Encoding: 288 225 182
Width: 461
Flags: MW
HStem: -17 69 425 20<395 411.5>
VStem: -2 74<81.5 89.5> 250 70
Fore
420 143 m 1
 438 128 l 1
 436 119 l 1
 433 108 433 108 368 29 c 0
 346 1 314 -17 288 -17 c 0
 265 -17 250 3 250 32 c 0
 250 63 253 76 282 186 c 1
 174 35 113 -17 45 -17 c 0
 16 -17 -2 10 -2 55 c 0
 -2 124 46 215 124 294 c 0
 197 367 276 412 333 412 c 0
 342 412 348 411 364 408 c 1
 370 420 l 2
 380 440 386 445 404 445 c 0
 419 445 425 442 425 434 c 0
 425 431 424 426 422 422 c 0
 365 288 320 139 320 88 c 0
 320 72 326 63 336 63 c 0
 348 63 359 69 377 87 c 0
 392 101 415 130 417 136 c 2
 420 143 l 1
290 353 m 0
 239 356 168 301 119 222 c 0
 91 177 72 126 72 94 c 0
 72 69 83 52 99 52 c 0
 136 52 194 104 256 194 c 0
 293 247 323 306 323 328 c 0
 323 343 311 352 290 353 c 0
284 539 m 2
 378 692 l 1
 408 739 413 744 441 744 c 0
 463 744 482 731 482 717 c 0
 482 706 470 687 448 666 c 2
 306 525 l 2
 299 518 293 515 289 514 c 0
 288 514 286 514 284 516 c 2
 279 519 l 2
 277 520 276 522 276 524 c 0
 276 526 277 528 284 539 c 2
EndSplineSet
KernsSLIF: 121 -15 0 0 119 -18 0 0 118 -20 0 0
EndChar
StartChar: agrave
Encoding: 289 224 183
Width: 461
Flags: MW
HStem: -17 69 425 20<395 411.5>
VStem: -2 74<81.5 89.5> 250 70
Fore
420 143 m 1
 438 128 l 1
 436 119 l 1
 433 108 433 108 368 29 c 0
 346 1 314 -17 288 -17 c 0
 265 -17 250 3 250 32 c 0
 250 64 252 74 282 186 c 1
 174 35 113 -17 45 -17 c 0
 16 -17 -2 10 -2 55 c 0
 -2 124 46 215 124 294 c 0
 197 367 276 412 333 412 c 0
 342 412 348 411 364 408 c 1
 370 420 l 2
 380 440 386 445 404 445 c 0
 419 445 425 442 425 434 c 0
 425 431 424 426 422 422 c 0
 365 288 320 139 320 88 c 0
 320 72 326 63 336 63 c 0
 348 63 359 69 377 87 c 0
 392 101 415 130 417 136 c 2
 420 143 l 1
290 353 m 0
 239 356 168 301 119 222 c 0
 91 177 72 126 72 94 c 0
 72 69 83 52 99 52 c 0
 136 52 194 104 256 194 c 0
 293 247 323 306 323 328 c 0
 323 343 311 352 290 353 c 0
333 528 m 2
 194 666 l 2
 172 687 160 706 160 717 c 0
 160 731 179 744 201 744 c 0
 219 744 232 738 243 724 c 0
 246 721 246 721 264 692 c 2
 358 540 l 2
 366 527 366 527 366 525 c 0
 366 523 365 521 363 520 c 2
 357 516 l 2
 354 514 352 513 352 513 c 2
 350 513 344 518 333 528 c 2
EndSplineSet
KernsSLIF: 121 -15 0 0 119 -15 0 0 118 -20 0 0
EndChar
StartChar: acircumflex
Encoding: 290 226 184
Width: 461
Flags: MW
HStem: -17 69 425 20<395 411.5>
VStem: -2 74<81.5 89.5> 250 70
Fore
420 143 m 1
 438 128 l 1
 436 119 l 1
 433 108 433 108 368 29 c 0
 346 1 314 -17 288 -17 c 0
 265 -17 250 3 250 32 c 0
 250 63 253 76 282 186 c 1
 174 35 113 -17 45 -17 c 0
 16 -17 -2 10 -2 55 c 0
 -2 124 46 215 124 294 c 0
 197 367 276 412 333 412 c 0
 342 412 348 411 364 408 c 1
 370 420 l 2
 380 440 386 445 404 445 c 0
 419 445 425 442 425 434 c 0
 425 431 424 426 422 422 c 0
 365 288 320 139 320 88 c 0
 320 72 326 63 336 63 c 0
 348 63 359 69 377 87 c 0
 392 101 415 130 417 136 c 2
 420 143 l 1
290 353 m 0
 239 356 168 301 119 222 c 0
 91 177 72 126 72 94 c 0
 72 69 83 52 99 52 c 0
 136 52 194 104 256 194 c 0
 293 247 323 306 323 328 c 0
 323 343 311 352 290 353 c 0
334 652 m 1
 256 566 l 2
 228 535 204 514 196 514 c 0
 190 514 182 521 182 526 c 0
 182 533 182 533 260 639 c 0
 272 655 283 672 294 690 c 2
 310 715 l 2
 324 736 333 744 346 744 c 0
 367 744 380 729 386 697 c 0
 398 630 408 593 423 550 c 0
 426 541 428 532 428 527 c 0
 428 519 423 513 418 513 c 0
 408 513 403 520 377 569 c 2
 334 652 l 1
EndSplineSet
EndChar
StartChar: atilde
Encoding: 291 227 185
Width: 461
Flags: MW
HStem: -17 69 425 20<395 411.5> 514 64 600 64<258 261.5>
VStem: -2 74<81.5 89.5> 250 70
Fore
420 143 m 1
 438 128 l 1
 436 119 l 1
 433 108 433 108 368 29 c 0
 346 1 314 -17 288 -17 c 0
 265 -17 250 3 250 32 c 0
 250 63 253 76 282 186 c 1
 174 35 113 -17 45 -17 c 0
 16 -17 -2 10 -2 55 c 0
 -2 124 46 215 124 294 c 0
 197 367 276 412 333 412 c 0
 342 412 348 411 364 408 c 1
 370 420 l 2
 380 440 386 445 404 445 c 0
 419 445 425 442 425 434 c 0
 425 431 424 426 422 422 c 0
 365 288 320 139 320 88 c 0
 320 72 326 63 336 63 c 0
 348 63 359 69 377 87 c 0
 392 101 415 130 417 136 c 2
 420 143 l 1
290 353 m 0
 239 356 168 301 119 222 c 0
 91 177 72 126 72 94 c 0
 72 69 83 52 99 52 c 0
 136 52 194 104 256 194 c 0
 293 247 323 306 323 328 c 0
 323 343 311 352 290 353 c 0
272 664 m 0
 290 664 290 664 344 601 c 0
 354 588 370 578 380 578 c 0
 394 578 425 611 444 648 c 0
 448 654 451 657 455 657 c 0
 462 657 468 653 468 648 c 0
 468 641 460 623 442 588 c 0
 416 540 387 514 358 514 c 0
 344 514 321 535 286 580 c 0
 274 595 267 600 256 600 c 0
 236 600 218 579 189 526 c 0
 187 521 183 518 181 518 c 0
 175 518 164 526 164 530 c 0
 164 537 176 565 190 593 c 0
 214 638 244 664 272 664 c 0
EndSplineSet
EndChar
StartChar: aring
Encoding: 292 229 186
Width: 461
Flags: W
HStem: -17 69 425 20<395 411.5> 513 44<328.5 366> 698 43<339.5 376.5>
VStem: -2 74<81.5 89.5> 245 38<603 641> 250 70 421 38<614 653>
Fore
420 143 m 1xfa
 438 128 l 1
 436 119 l 1
 433 108 433 108 368 29 c 0
 346 1 314 -17 288 -17 c 0
 265 -17 250 3 250 32 c 0
 250 63 253 76 282 186 c 1
 174 35 113 -17 45 -17 c 0
 16 -17 -2 10 -2 55 c 0
 -2 124 46 215 124 294 c 0
 197 367 276 412 333 412 c 0
 342 412 348 411 364 408 c 1
 370 420 l 2
 380 440 386 445 404 445 c 0
 419 445 425 442 425 434 c 0
 425 431 424 426 422 422 c 0
 365 288 320 139 320 88 c 0
 320 72 326 63 336 63 c 0
 348 63 359 69 377 87 c 0
 392 101 415 130 417 136 c 2
 420 143 l 1xfa
290 353 m 0
 239 356 168 301 119 222 c 0
 91 177 72 126 72 94 c 0
 72 69 83 52 99 52 c 0
 136 52 194 104 256 194 c 0
 293 247 323 306 323 328 c 0
 323 343 311 352 290 353 c 0
361 741 m 0xf5
 417 741 459 696 459 638 c 0
 459 573 404 513 344 513 c 0
 287 513 245 557 245 617 c 0
 245 684 298 741 361 741 c 0xf5
359 698 m 0
 320 698 283 661 283 621 c 0
 283 585 311 557 346 557 c 0
 386 557 421 593 421 635 c 0
 421 671 394 698 359 698 c 0
EndSplineSet
KernsSLIF: 121 -15 0 0 119 -18 0 0 118 -20 0 0
EndChar
StartChar: ccedilla
Encoding: 293 231 187
Width: 369
Flags: MW
HStem: -181 29<125.5 146> 409 33<257.5 283.5>
VStem: 30 79<118 180> 180 55<-130 -112>
Fore
182 -16 m 1
 163 -44 l 1
 215 -57 235 -75 235 -109 c 0
 235 -152 193 -181 130 -181 c 0
 88 -181 63 -170 63 -153 c 0
 63 -143 71 -134 81 -134 c 0
 88 -134 88 -134 105 -146 c 0
 111 -150 120 -152 131 -152 c 0
 161 -152 180 -140 180 -120 c 0
 180 -104 163 -88 143 -86 c 0
 139 -86 129 -86 116 -87 c 2
 114 -87 l 2
 110 -87 104 -81 104 -77 c 0
 104 -75 105 -74 109 -70 c 0
 112 -67 115 -64 117 -60 c 1
 151 -16 l 1
 76 -8 30 47 30 131 c 0
 30 291 151 442 279 442 c 0
 339 442 383 415 383 378 c 0
 383 355 369 340 346 340 c 0
 326 340 314 355 313 381 c 0
 313 395 312 399 307 402 c 0
 301 406 289 409 278 409 c 0
 237 409 196 382 166 333 c 0
 131 277 109 208 109 152 c 0
 109 84 142 41 194 41 c 0
 229 41 258 55 290 86 c 1
 307 71 l 1
 271 15 234 -11 182 -16 c 1
EndSplineSet
EndChar
StartChar: edieresis
Encoding: 294 235 188
Width: 369
Flags: MW
HStem: -17 57<158 181> 413 29<243 277.5>
VStem: 23 79<111.5 152.5> 308 69<336 377>
Fore
300 97 m 1
 320 81 l 1
 309 65 l 2
 272 14 212 -17 150 -17 c 0
 70 -17 23 37 23 128 c 0
 23 210 56 298 112 363 c 0
 156 415 212 442 274 442 c 0
 337 442 377 411 377 362 c 0
 377 275 278 219 106 207 c 1
 103 175 102 162 102 143 c 0
 102 80 133 40 183 40 c 0
 221 40 260 57 287 84 c 2
 300 97 l 1
112 231 m 1
 118 232 119 232 126 232 c 0
 154 234 182 240 207 250 c 0
 275 276 308 312 308 360 c 0
 308 394 292 413 263 413 c 0
 204 413 151 349 112 231 c 1
213 660 m 0
 238 660 257 638 257 609 c 0
 257 577 233 551 204 551 c 0
 178 551 159 573 159 602 c 0
 159 633 185 660 213 660 c 0
356 660 m 0
 381 660 400 638 400 609 c 0
 400 577 376 551 347 551 c 0
 321 551 302 573 302 602 c 0
 302 633 328 660 356 660 c 0
EndSplineSet
EndChar
StartChar: eacute
Encoding: 295 233 189
Width: 369
Flags: MW
HStem: -17 57<158 181> 413 29<243 277.5>
VStem: 23 79<111.5 152.5> 308 69<336 377>
Fore
300 97 m 1
 320 81 l 1
 309 65 l 2
 272 14 212 -17 150 -17 c 0
 70 -17 23 37 23 128 c 0
 23 210 56 298 112 363 c 0
 156 415 212 442 274 442 c 0
 337 442 377 411 377 362 c 0
 377 275 278 219 106 207 c 1
 103 175 102 162 102 143 c 0
 102 80 133 40 183 40 c 0
 221 40 260 57 287 84 c 2
 300 97 l 1
112 231 m 1
 118 232 119 232 126 232 c 0
 154 234 182 240 207 250 c 0
 275 276 308 312 308 360 c 0
 308 394 292 413 263 413 c 0
 204 413 151 349 112 231 c 1
238 539 m 2
 332 692 l 1
 353 724 353 724 359 730 c 0
 368 739 380 744 395 744 c 0
 417 744 436 731 436 717 c 0
 436 706 424 687 402 666 c 2
 260 525 l 2
 253 518 247 515 243 514 c 0
 242 514 240 514 238 516 c 2
 233 519 l 2
 231 520 230 522 230 524 c 0
 230 526 230 527 238 539 c 2
EndSplineSet
KernsSLIF: 121 24 0 0 119 18 0 0 118 18 0 0
EndChar
StartChar: egrave
Encoding: 296 232 190
Width: 369
Flags: MW
HStem: -17 57<158 181> 413 29<243 277.5>
VStem: 23 79<112 153> 308 69<336.5 377.5>
Fore
300 97 m 1
 320 81 l 1
 309 65 l 2
 272 14 212 -17 150 -17 c 0
 70 -17 23 37 23 128 c 0
 23 210 56 298 112 363 c 0
 157 415 212 442 274 442 c 0
 337 442 377 411 377 362 c 0
 377 275 278 219 106 207 c 1
 103 176 102 162 102 144 c 0
 102 80 133 40 183 40 c 0
 221 40 260 57 287 84 c 2
 300 97 l 1
112 231 m 1
 118 232 119 232 126 232 c 0
 154 234 182 240 207 250 c 0
 275 276 308 312 308 361 c 0
 308 394 292 413 263 413 c 0
 204 413 150 348 112 231 c 1
287 528 m 2
 148 666 l 2
 124 689 113 706 113 717 c 0
 113 731 132 744 154 744 c 0
 172 744 186 737 197 724 c 0
 199 721 199 721 217 692 c 2
 312 540 l 2
 320 527 320 527 320 524 c 0
 320 523 319 521 317 520 c 2
 311 516 l 2
 309 514 307 514 306 514 c 0
 303 514 296 519 287 528 c 2
EndSplineSet
EndChar
StartChar: ecircumflex
Encoding: 297 234 191
Width: 369
Flags: MW
HStem: -17 57<158 181> 413 29<243 277.5>
VStem: 23 79<111.5 152.5> 308 69<336 377>
Fore
300 97 m 1
 320 81 l 1
 309 65 l 2
 272 14 212 -17 150 -17 c 0
 70 -17 23 37 23 128 c 0
 23 210 56 298 112 363 c 0
 156 415 212 442 274 442 c 0
 337 442 377 411 377 362 c 0
 377 275 278 219 106 207 c 1
 103 175 102 162 102 143 c 0
 102 80 133 40 183 40 c 0
 221 40 260 57 287 84 c 2
 300 97 l 1
112 231 m 1
 118 232 119 232 126 232 c 0
 154 234 182 240 207 250 c 0
 275 276 308 312 308 360 c 0
 308 394 292 413 263 413 c 0
 204 413 151 349 112 231 c 1
288 652 m 1
 210 566 l 2
 178 531 158 513 149 513 c 0
 144 513 136 520 136 525 c 0
 136 532 136 532 214 639 c 0
 231 664 248 689 264 715 c 0
 278 736 288 744 300 744 c 0
 321 744 334 729 340 697 c 0
 354 623 359 603 377 550 c 0
 380 541 382 532 382 526 c 0
 382 519 377 513 371 513 c 0
 363 513 355 524 331 569 c 2
 288 652 l 1
EndSplineSet
KernsSLIF: 121 24 0 0 119 18 0 0 118 18 0 0
EndChar
StartChar: idieresis
Encoding: 298 239 192
Width: 295
Flags: MW
HStem: -17 69 373 69
VStem: 48 84
Fore
84 331 m 1
 63 347 l 1
 116 409 164 442 202 442 c 0
 225 442 245 424 245 404 c 0
 245 384 237 360 158 154 c 0
 135 92 132 83 132 74 c 0
 132 63 143 52 155 52 c 0
 177 52 206 81 252 146 c 1
 271 127 l 1
 209 35 146 -17 95 -17 c 0
 68 -17 48 1 48 26 c 0
 48 43 49 46 70 102 c 0
 94 163 139 279 154 321 c 0
 160 335 163 348 163 356 c 0
 163 364 154 373 145 373 c 0
 131 373 109 358 84 331 c 1
158 660 m 0
 182 660 201 638 201 609 c 0
 201 577 178 551 149 551 c 0
 123 551 104 573 104 602 c 0
 104 633 129 660 158 660 c 0
300 660 m 0
 325 660 344 638 344 609 c 0
 344 577 321 551 292 551 c 0
 266 551 247 572 247 602 c 0
 247 633 272 660 300 660 c 0
EndSplineSet
EndChar
StartChar: iacute
Encoding: 299 237 193
Width: 295
Flags: MW
HStem: -17 69 373 69
VStem: 48 84
Fore
84 331 m 1
 63 347 l 1
 116 409 164 442 203 442 c 0
 225 442 245 424 245 404 c 0
 245 384 233 351 158 154 c 0
 136 96 132 83 132 74 c 0
 132 63 143 52 155 52 c 0
 176 52 204 79 252 146 c 1
 271 127 l 1
 211 36 146 -17 95 -17 c 0
 68 -17 48 1 48 26 c 0
 48 44 49 47 70 102 c 0
 89 149 137 277 153 321 c 0
 159 335 162 348 162 356 c 0
 162 364 153 373 144 373 c 0
 130 373 109 358 84 331 c 1
201 539 m 2
 295 692 l 2
 315 724 315 724 322 730 c 0
 331 739 344 744 358 744 c 0
 380 744 399 731 399 717 c 0
 399 705 387 687 365 666 c 2
 223 525 l 2
 216 518 210 515 206 514 c 0
 205 514 203 514 201 516 c 2
 196 519 l 2
 194 520 193 522 193 524 c 0
 193 526 193 526 201 539 c 2
EndSplineSet
EndChar
StartChar: igrave
Encoding: 300 236 194
Width: 295
Flags: MW
HStem: -17 69 373 69
VStem: 48 84
Fore
84 331 m 1
 63 347 l 1
 116 409 164 442 202 442 c 0
 225 442 245 424 245 403 c 0
 245 384 236 357 158 154 c 0
 136 95 132 83 132 74 c 0
 132 63 143 52 155 52 c 0
 176 52 207 82 252 146 c 1
 271 127 l 1
 209 35 146 -17 95 -17 c 0
 68 -17 48 1 48 26 c 0
 48 43 49 46 70 102 c 0
 94 163 139 279 154 321 c 0
 160 335 163 348 163 356 c 0
 163 364 154 373 145 373 c 0
 131 373 109 358 84 331 c 1
250 528 m 2
 111 666 l 2
 89 687 77 706 77 717 c 0
 77 731 96 744 118 744 c 0
 135 744 149 738 160 724 c 0
 163 721 163 721 181 692 c 2
 275 540 l 2
 282 529 283 527 283 524 c 0
 283 523 282 521 280 520 c 2
 274 516 l 2
 272 514 271 514 269 514 c 0
 266 514 259 519 250 528 c 2
EndSplineSet
EndChar
StartChar: icircumflex
Encoding: 301 238 195
Width: 295
Flags: MW
HStem: -17 69 373 69
VStem: 48 84
Fore
84 331 m 1
 63 347 l 1
 116 409 164 442 202 442 c 0
 225 442 245 424 245 403 c 0
 245 384 236 357 158 154 c 0
 136 95 132 83 132 74 c 0
 132 63 143 52 155 52 c 0
 176 52 207 82 252 146 c 1
 271 127 l 1
 209 35 146 -17 95 -17 c 0
 68 -17 48 1 48 26 c 0
 48 43 49 46 70 102 c 0
 94 163 139 279 154 321 c 0
 160 335 163 348 163 356 c 0
 163 364 154 373 145 373 c 0
 131 373 109 358 84 331 c 1
251 652 m 1
 173 566 l 2
 143 532 121 513 112 513 c 0
 107 513 99 520 99 525 c 0
 99 532 99 532 177 639 c 0
 185 650 179 642 194 664 c 2
 227 715 l 2
 241 736 251 744 263 744 c 0
 284 744 297 729 303 697 c 0
 317 624 323 599 340 550 c 0
 343 541 345 533 345 526 c 0
 345 519 340 513 335 513 c 0
 326 513 319 522 294 569 c 2
 251 652 l 1
EndSplineSet
EndChar
StartChar: ntilde
Encoding: 302 241 196
Width: 553
Flags: W
HStem: -17 20 363 79 390 52<397 402> 514 64 600 64<304.5 307.5>
VStem: 157 57 425 75
Fore
66 303 m 1xc6
 46 319 l 1
 89 402 131 442 176 442 c 0x5e
 199 442 214 420 214 387 c 0
 214 362 213 355 190 265 c 1
 289 387 363 442 431 442 c 0
 470 442 500 417 500 386 c 0
 500 357 489 323 440 207 c 0
 410 136 393 88 393 79 c 0
 393 72 398 67 406 67 c 0
 425 67 457 88 495 126 c 2
 504 135 l 1
 522 117 l 1
 508 101 l 2
 485 74 442 36 407 12 c 0
 375 -9 357 -17 336 -17 c 0
 317 -17 301 -2 301 15 c 0
 301 29 301 29 351 154 c 0
 414 310 425 341 425 360 c 0
 425 375 410 390 394 390 c 0xa6
 344 390 268 319 200 207 c 0
 174 165 162 140 130 65 c 0
 102 -2 92 -17 76 -17 c 0
 57 -17 39 -6 39 6 c 0
 39 12 39 12 116 198 c 1
 137 254 157 320 157 336 c 0
 157 351 146 363 133 363 c 0
 113 363 98 349 66 303 c 1xc6
318 664 m 0
 337 664 337 664 390 601 c 0
 401 588 417 578 427 578 c 0
 441 578 471 611 491 648 c 0
 495 654 498 657 502 657 c 0
 509 657 515 653 515 648 c 0
 515 641 506 621 488 588 c 0
 463 540 433 514 405 514 c 0
 390 514 367 535 332 580 c 0
 320 595 313 600 302 600 c 0
 282 600 263 578 235 526 c 0
 233 522 229 518 227 518 c 0
 221 518 210 526 210 530 c 0
 210 536 224 568 236 593 c 1
 260 637 291 664 318 664 c 0
EndSplineSet
EndChar
StartChar: odieresis
Encoding: 303 246 197
Width: 461
Flags: MW
HStem: -17 32<161 206> 409 33<256 297>
VStem: 38 74<110.5 167> 348 79<278.5 321>
Fore
273 442 m 0
 362 442 427 370 427 272 c 0
 427 121 309 -17 180 -17 c 0
 95 -17 38 56 38 165 c 0
 38 234 68 311 118 365 c 1
 164 417 216 442 273 442 c 0
275 409 m 0
 237 409 202 387 175 344 c 0
 138 285 112 199 112 135 c 0
 112 59 138 15 184 15 c 0
 228 15 272 50 299 108 c 0
 330 173 348 248 348 309 c 0
 348 369 319 409 275 409 c 0
259 660 m 0
 284 660 303 638 303 609 c 0
 303 577 279 551 250 551 c 0
 224 551 205 573 205 602 c 0
 205 633 231 660 259 660 c 0
402 660 m 0
 427 660 446 638 446 609 c 0
 446 577 422 551 393 551 c 0
 367 551 348 573 348 602 c 0
 348 633 373 660 402 660 c 0
EndSplineSet
KernsSLIF: 121 13 0 0 120 -6 0 0 119 1 0 0 118 3 0 0 116 -13 0 0
EndChar
StartChar: oacute
Encoding: 304 243 198
Width: 461
Flags: MW
HStem: -17 32<161 206> 409 33<256 297>
VStem: 38 74<110.5 167> 348 79<278.5 321>
Fore
273 442 m 0
 362 442 427 370 427 272 c 0
 427 121 309 -17 180 -17 c 0
 95 -17 38 56 38 165 c 0
 38 234 68 311 118 365 c 1
 164 417 216 442 273 442 c 0
275 409 m 0
 237 409 202 387 175 344 c 0
 138 285 112 199 112 135 c 0
 112 59 138 15 184 15 c 0
 228 15 272 50 299 108 c 0
 330 173 348 248 348 309 c 0
 348 369 319 409 275 409 c 0
284 539 m 2
 378 692 l 1
 399 724 399 724 405 730 c 0
 414 739 427 744 441 744 c 0
 463 744 482 731 482 717 c 0
 482 706 470 687 448 666 c 2
 306 525 l 2
 299 518 293 515 289 514 c 0
 288 514 286 514 284 516 c 2
 279 519 l 2
 277 520 276 522 276 524 c 0
 276 526 276 526 284 539 c 2
EndSplineSet
KernsSLIF: 121 13 0 0 119 1 0 0 118 3 0 0
EndChar
StartChar: ograve
Encoding: 305 242 199
Width: 461
Flags: MW
HStem: -17 32<161 206> 409 33<255.5 296.5>
VStem: 38 74<110.5 167> 348 79<279 321>
Fore
273 442 m 0
 362 442 427 370 427 272 c 0
 427 121 309 -17 180 -17 c 0
 95 -17 38 56 38 165 c 0
 38 234 68 311 118 365 c 1
 164 417 216 442 273 442 c 0
274 409 m 0
 237 409 202 386 175 344 c 0
 138 285 112 199 112 135 c 0
 112 59 138 15 184 15 c 0
 228 15 272 50 299 108 c 0
 329 173 348 249 348 309 c 0
 348 369 319 409 274 409 c 0
333 528 m 2
 193 666 l 2
 171 688 159 706 159 717 c 0
 159 731 178 744 200 744 c 0
 228 744 234 739 263 692 c 2
 358 540 l 2
 363 532 365 527 365 525 c 0
 365 523 364 521 363 520 c 2
 356 516 l 1
 355 514 353 514 352 514 c 0
 349 514 342 519 333 528 c 2
EndSplineSet
KernsSLIF: 121 13 0 0 119 1 0 0 118 3 0 0
EndChar
StartChar: ocircumflex
Encoding: 306 244 200
Width: 461
Flags: MW
HStem: -17 32<161 206> 409 33<256 297>
VStem: 38 74<110.5 167> 348 79<278.5 321>
Fore
273 442 m 0
 362 442 427 370 427 272 c 0
 427 121 309 -17 180 -17 c 0
 95 -17 38 56 38 165 c 0
 38 234 68 311 118 365 c 1
 164 417 216 442 273 442 c 0
275 409 m 0
 237 409 202 387 175 344 c 0
 138 285 112 199 112 135 c 0
 112 59 138 15 184 15 c 0
 228 15 272 50 299 108 c 0
 330 173 348 248 348 309 c 0
 348 369 319 409 275 409 c 0
333 652 m 1
 256 566 l 2
 227 534 204 514 195 514 c 0
 190 514 182 521 182 525 c 0
 182 533 182 533 260 639 c 0
 272 656 283 672 294 690 c 2
 310 715 l 2
 324 736 334 744 346 744 c 0
 367 744 380 729 386 697 c 0
 398 632 407 597 423 550 c 0
 426 541 428 532 428 526 c 0
 428 519 423 513 417 513 c 0
 408 513 401 524 377 569 c 2
 333 652 l 1
EndSplineSet
KernsSLIF: 116 -13 0 0
EndChar
StartChar: otilde
Encoding: 307 245 201
Width: 461
Flags: MW
HStem: -17 32<161 206> 409 33<256 297> 513 64 600 64<258 261.5>
VStem: 38 74<110.5 167> 348 79<278.5 321>
Fore
273 442 m 0
 362 442 427 370 427 272 c 0
 427 121 309 -17 180 -17 c 0
 95 -17 38 56 38 165 c 0
 38 234 68 311 118 365 c 1
 164 417 216 442 273 442 c 0
275 409 m 0
 237 409 202 387 175 344 c 0
 138 285 112 199 112 135 c 0
 112 59 138 15 184 15 c 0
 228 15 272 50 299 108 c 0
 330 173 348 248 348 309 c 0
 348 369 319 409 275 409 c 0
272 664 m 0
 290 664 290 664 344 600 c 0
 354 587 371 577 380 577 c 0
 394 577 425 611 444 648 c 0
 448 654 451 657 455 657 c 0
 462 657 468 653 468 648 c 0
 468 641 460 623 442 588 c 0
 416 540 386 513 358 513 c 0
 343 513 343 513 286 579 c 1
 271 598 267 600 256 600 c 0
 236 600 217 579 189 526 c 0
 187 522 183 518 181 518 c 0
 175 518 164 526 164 530 c 0
 164 536 177 567 190 593 c 0
 214 637 244 664 272 664 c 0
EndSplineSet
EndChar
StartChar: scaron
Encoding: 308 353 202
Width: 295
Flags: MW
HStem: -17 58 403 39
VStem: 58 58 178 69
Fore
29 81 m 0
 42 81 44 80 67 58 c 0
 77 48 97 41 112 41 c 0
 146 41 178 71 178 102 c 0
 178 127 172 136 118 196 c 0
 70 249 58 270 58 297 c 0
 58 327 77 368 104 396 c 0
 132 426 169 442 209 442 c 0
 257 442 288 424 288 395 c 0
 288 372 275 354 257 354 c 0
 243 354 240 357 221 382 c 0
 212 395 195 403 179 403 c 0
 149 403 116 371 116 342 c 0
 116 325 130 304 177 251 c 0
 237 182 247 166 247 136 c 0
 247 106 226 67 192 34 c 0
 155 -1 118 -17 75 -17 c 0
 23 -17 -6 5 -6 43 c 0
 -6 65 8 81 29 81 c 0
252 615 m 1
 330 701 l 2
 360 734 381 753 390 753 c 0
 395 753 403 746 403 741 c 0
 403 734 403 734 325 627 c 0
 307 602 291 576 275 551 c 0
 261 530 251 522 239 522 c 0
 218 522 205 537 199 569 c 0
 186 638 185 640 162 716 c 0
 158 727 157 733 157 738 c 0
 157 746 162 753 167 753 c 0
 177 753 181 748 209 697 c 1
 252 615 l 1
EndSplineSet
EndChar
StartChar: udieresis
Encoding: 309 252 203
Width: 516
Flags: W
HStem: -17 20 -16 20 422 20<187.5 209 440.5 454>
Fore
469 170 m 1x60
 491 156 l 1
 481 141 l 2
 447 89 433 70 404 42 c 1
 368 4 333 -17 309 -17 c 0x80
 294 -17 278 1 278 18 c 0
 278 31 278 31 310 124 c 1
 366 275 l 1
 201 96 195 90 137 37 c 0
 97 2 72 -16 61 -16 c 0
 49 -16 33 4 33 19 c 0
 33 44 57 120 87 191 c 2
 127 284 l 2
 141 316 146 332 146 341 c 0
 146 350 140 357 133 357 c 0
 124 357 113 351 95 334 c 0
 82 322 79 319 76 319 c 0
 75 319 75 319 71 323 c 2
 66 327 l 2
 64 329 62 332 62 333 c 0
 62 339 85 365 114 392 c 0
 155 430 175 442 200 442 c 0
 218 442 232 430 232 415 c 0
 232 407 224 375 218 360 c 2
 133 146 l 2
 122 119 118 106 118 99 c 0
 118 93 125 86 130 86 c 0
 144 86 212 151 269 218 c 0
 339 302 373 348 413 416 c 0
 423 433 434 442 447 442 c 0
 461 442 473 431 473 419 c 0
 473 413 467 393 459 370 c 1
 393 193 l 1
 360 102 359 99 359 90 c 0
 359 78 367 68 376 68 c 0
 394 68 414 89 461 158 c 2
 469 170 l 1x60
269 660 m 0
 294 660 312 638 312 609 c 0
 312 577 289 551 260 551 c 0
 234 551 215 573 215 602 c 0
 215 633 240 660 269 660 c 0
411 660 m 0
 436 660 455 638 455 609 c 0
 455 577 431 551 402 551 c 0
 376 551 357 573 357 603 c 0
 357 633 382 660 411 660 c 0
EndSplineSet
EndChar
StartChar: uacute
Encoding: 310 250 204
Width: 516
Flags: W
HStem: -17 20 -16 20 422 20<189.5 211 442.5 456>
Fore
471 170 m 1x60
 493 156 l 1
 483 141 l 2
 449 89 435 70 406 42 c 1
 370 4 335 -17 311 -17 c 0x80
 296 -17 280 1 280 18 c 0
 280 31 280 31 312 124 c 1
 368 275 l 1
 203 96 197 90 139 37 c 0
 99 2 74 -16 63 -16 c 0
 51 -16 35 4 35 19 c 0
 35 44 59 120 89 191 c 2
 129 284 l 2
 143 316 148 332 148 341 c 0
 148 350 142 357 135 357 c 0
 126 357 115 351 97 334 c 0
 84 322 81 319 78 319 c 0
 77 319 77 319 73 323 c 2
 68 327 l 2
 66 329 64 332 64 333 c 0
 64 339 87 365 116 392 c 0
 157 430 177 442 202 442 c 0
 220 442 234 430 234 415 c 0
 234 407 226 375 220 360 c 2
 135 146 l 2
 124 119 120 106 120 99 c 0
 120 93 127 86 132 86 c 0
 146 86 214 151 271 218 c 0
 341 302 375 348 415 416 c 0
 425 433 436 442 449 442 c 0
 463 442 475 431 475 419 c 0
 475 413 469 393 461 370 c 1
 395 193 l 1
 362 102 361 99 361 90 c 0
 361 78 369 68 378 68 c 0
 396 68 416 89 463 158 c 2
 471 170 l 1x60
312 539 m 2
 406 692 l 2
 426 724 426 724 433 730 c 0
 442 739 454 744 469 744 c 0
 491 744 510 731 510 717 c 0
 510 705 498 687 476 666 c 2
 334 525 l 2
 327 518 321 515 317 514 c 0
 316 514 314 514 312 516 c 2
 307 519 l 2
 305 520 304 522 304 524 c 0
 304 527 304 527 312 539 c 2
EndSplineSet
EndChar
StartChar: ugrave
Encoding: 311 249 205
Width: 516
Flags: W
HStem: -17 20 -16 20 422 20<187.5 209 440.5 454>
Fore
469 170 m 1x60
 491 156 l 1
 481 141 l 2
 447 89 433 70 404 42 c 1
 368 4 333 -17 309 -17 c 0x80
 294 -17 278 1 278 18 c 0
 278 31 278 31 310 124 c 1
 366 275 l 1
 201 96 195 90 137 37 c 0
 97 2 72 -16 61 -16 c 0
 49 -16 33 4 33 19 c 0
 33 44 57 120 87 191 c 2
 127 284 l 2
 141 316 146 332 146 341 c 0
 146 350 140 357 133 357 c 0
 124 357 113 351 95 334 c 0
 82 322 79 319 76 319 c 0
 75 319 75 319 71 323 c 2
 66 327 l 2
 64 329 62 332 62 333 c 0
 62 339 85 365 114 392 c 0
 155 430 175 442 200 442 c 0
 218 442 232 430 232 415 c 0
 232 407 224 375 218 360 c 2
 133 146 l 2
 122 119 118 106 118 99 c 0
 118 93 125 86 130 86 c 0
 144 86 212 151 269 218 c 0
 339 302 373 348 413 416 c 0
 423 433 434 442 447 442 c 0
 461 442 473 431 473 419 c 0
 473 413 467 393 459 370 c 1
 393 193 l 1
 360 102 359 99 359 90 c 0
 359 78 367 68 376 68 c 0
 394 68 414 89 461 158 c 2
 469 170 l 1x60
361 528 m 2
 222 666 l 2
 200 687 188 705 188 717 c 0
 188 731 207 744 228 744 c 0
 246 744 260 738 271 724 c 0
 274 721 274 721 291 692 c 1
 386 540 l 2
 393 528 394 527 394 525 c 0
 394 523 393 521 391 520 c 2
 385 516 l 2
 383 514 381 514 380 514 c 0
 377 514 370 519 361 528 c 2
EndSplineSet
EndChar
StartChar: ucircumflex
Encoding: 312 251 206
Width: 516
Flags: W
HStem: -17 20 -16 20 422 20<187.5 209 440.5 454>
Fore
469 170 m 1x60
 491 156 l 1
 481 141 l 2
 447 89 433 70 404 42 c 1
 368 4 333 -17 309 -17 c 0x80
 294 -17 278 1 278 18 c 0
 278 31 278 31 310 124 c 1
 366 275 l 1
 201 96 195 90 137 37 c 0
 97 2 72 -16 61 -16 c 0
 49 -16 33 4 33 19 c 0
 33 44 57 120 87 191 c 2
 127 284 l 2
 141 316 146 332 146 341 c 0
 146 350 140 357 133 357 c 0
 124 357 113 351 95 334 c 0
 82 322 79 319 76 319 c 0
 75 319 75 319 71 323 c 2
 66 327 l 2
 64 329 62 332 62 333 c 0
 62 339 85 365 114 392 c 0
 155 430 175 442 200 442 c 0
 218 442 232 430 232 415 c 0
 232 407 224 375 218 360 c 2
 133 146 l 2
 122 119 118 106 118 99 c 0
 118 93 125 86 130 86 c 0
 144 86 212 151 269 218 c 0
 339 302 373 348 413 416 c 0
 423 433 434 442 447 442 c 0
 461 442 473 431 473 419 c 0
 473 413 467 393 459 370 c 1
 393 193 l 1
 360 102 359 99 359 90 c 0
 359 78 367 68 376 68 c 0
 394 68 414 89 461 158 c 2
 469 170 l 1x60
362 652 m 1
 284 566 l 2
 253 531 232 513 223 513 c 0
 218 513 210 520 210 525 c 0
 210 532 210 532 288 639 c 1
 322 690 l 1
 338 715 l 2
 352 736 362 744 374 744 c 0
 395 744 408 729 414 697 c 0
 428 623 433 602 451 550 c 0
 454 541 456 532 456 526 c 0
 456 519 451 513 445 513 c 0
 437 513 429 524 405 569 c 2
 362 652 l 1
EndSplineSet
EndChar
StartChar: yacute
Encoding: 313 253 207
Width: 442
Flags: MW
HStem: 372 70<110.5 135.5>
VStem: 368 59
Fore
34 272 m 1
 10 280 l 1
 48 393 86 442 135 442 c 0
 184 442 220 395 238 305 c 0
 251 247 253 211 253 72 c 1
 254 27 l 1
 328 141 368 244 368 323 c 0
 368 336 367 350 365 365 c 0
 362 383 360 399 360 407 c 0
 360 428 372 442 391 442 c 0
 411 442 427 422 427 395 c 0
 427 271 327 68 170 -124 c 0
 99 -212 41 -259 5 -259 c 0
 -15 -259 -29 -240 -29 -212 c 0
 -29 -185 -13 -169 15 -169 c 0
 26 -169 31 -171 47 -182 c 0
 50 -184 56 -186 59 -186 c 0
 74 -186 96 -171 121 -142 c 0
 181 -75 194 -38 194 66 c 0
 194 251 161 372 110 372 c 0
 84 372 66 348 34 272 c 1
274 539 m 2
 369 692 l 2
 389 724 389 724 395 730 c 0
 405 739 417 744 432 744 c 0
 454 744 473 731 473 717 c 0
 473 706 461 688 439 666 c 2
 296 525 l 1
 290 518 284 515 280 514 c 0
 278 514 277 514 275 516 c 2
 270 519 l 2
 268 520 267 522 267 524 c 0
 267 527 269 531 274 539 c 2
EndSplineSet
EndChar
